{"glyphs":{"0":{"ha":913,"x_min":49,"x_max":864,"o":"m 457 -19 q 287 19 363 -19 q 158 129 211 58 q 49 521 49 275 q 158 913 49 767 q 287 1022 211 983 q 457 1061 363 1061 q 626 1022 551 1061 q 754 913 701 983 q 864 521 864 767 q 754 129 864 275 q 626 19 701 58 q 457 -19 551 -19 m 457 1 q 531 39 497 1 q 588 144 564 76 q 624 309 611 213 q 638 522 638 406 q 624 735 638 639 q 588 900 611 832 q 531 1006 564 968 q 457 1043 497 1043 q 360 977 401 1043 q 297 794 319 911 q 275 522 275 678 q 297 251 275 368 q 360 67 319 133 q 457 1 401 1 z "},"1":{"ha":453,"x_min":-17,"x_max":443,"o":"m 4 0 l 4 14 l 6 14 q 86 44 56 14 q 117 125 117 75 l 117 650 q 112 763 117 724 q 79 817 107 801 q -17 836 51 833 l -17 853 l 18 856 q 147 890 86 861 q 252 966 207 919 q 317 1069 297 1013 l 331 1069 l 331 125 q 361 44 331 75 q 442 14 392 14 l 443 14 l 443 0 l 4 0 z "},"2":{"ha":700,"x_min":-10,"x_max":654,"o":"m -10 0 l -10 14 q 157 265 78 144 q 297 493 236 385 q 393 694 358 601 q 428 863 428 788 q 394 992 428 942 q 304 1043 361 1043 q 201 1003 253 1043 q 112 896 150 963 q 61 751 74 829 l 47 751 l 92 1040 q 150 1043 119 1040 q 211 1051 181 1046 q 274 1059 243 1057 q 336 1061 306 1061 q 501 1029 433 1061 q 606 944 569 997 q 643 825 643 890 q 601 676 643 750 q 489 524 560 601 q 324 361 415 443 q 131 183 233 279 l 471 183 q 572 192 539 183 q 619 228 606 200 q 640 311 633 256 l 654 311 l 603 0 l -10 0 z "},"3":{"ha":742,"x_min":29,"x_max":682,"o":"m 299 -19 q 220 -15 254 -19 q 153 -5 186 -10 q 74 0 119 0 l 29 311 l 43 311 q 88 151 54 221 q 170 41 121 81 q 276 1 219 1 q 381 44 335 1 q 455 160 428 86 q 482 328 482 233 q 435 524 482 456 q 308 593 388 593 q 193 561 254 593 l 193 575 q 345 735 297 654 q 393 915 393 815 q 372 1012 393 982 q 311 1042 351 1042 q 156 963 222 1042 q 69 751 89 885 l 56 751 l 100 1042 q 183 1047 151 1042 q 249 1056 215 1051 q 335 1061 282 1061 q 471 1040 411 1061 q 565 981 531 1019 q 600 889 600 942 q 570 803 600 846 q 490 724 540 760 q 376 664 440 688 q 534 633 465 672 q 642 518 603 594 q 682 338 682 442 q 632 150 682 231 q 496 25 582 69 q 299 -19 410 -19 z "},"4":{"ha":835,"x_min":7,"x_max":781,"o":"m 411 0 l 411 1 l 297 1 l 300 15 q 379 44 349 15 q 411 122 410 74 l 411 232 l 7 232 l 7 244 l 607 1069 l 621 1069 l 621 406 l 781 406 l 781 232 l 621 232 l 621 126 q 651 46 621 76 q 732 15 682 15 l 733 15 l 736 1 l 621 1 l 621 0 l 411 0 m 139 406 l 411 406 l 411 781 l 139 406 z "},"5":{"ha":760,"x_min":39,"x_max":701,"o":"m 313 -19 q 231 -15 267 -19 q 160 -5 194 -10 q 83 0 125 0 l 39 311 l 53 311 q 98 147 64 217 q 181 40 132 78 q 288 1 231 1 q 398 44 351 1 q 471 162 444 88 q 497 329 497 236 q 441 559 497 472 q 292 646 385 646 q 175 611 233 646 q 81 518 117 576 l 69 518 l 138 1072 q 417 971 272 971 q 547 996 485 971 q 661 1071 610 1021 l 661 1056 q 477 870 582 935 q 263 806 372 806 q 126 833 193 806 l 101 632 q 168 641 126 632 q 258 659 210 650 q 347 668 306 668 q 535 626 456 668 q 658 508 614 583 q 701 333 701 433 q 653 149 701 229 q 519 25 606 69 q 313 -19 432 -19 z "},"6":{"ha":864,"x_min":54,"x_max":814,"o":"m 467 -19 q 296 18 372 -19 q 167 125 219 56 q 83 292 113 194 q 54 510 54 389 q 85 735 54 633 q 171 910 115 838 q 303 1022 225 983 q 474 1061 381 1061 q 533 1059 501 1061 q 600 1051 565 1057 q 668 1044 635 1046 q 733 1042 701 1042 l 769 751 l 756 751 q 713 901 747 836 q 628 1004 679 967 q 519 1042 578 1042 q 427 1008 469 1042 q 353 911 385 974 q 281 565 288 783 q 384 640 318 613 q 525 668 450 668 q 680 626 615 668 q 779 511 744 585 q 814 342 814 438 q 769 149 814 231 q 647 24 725 68 q 467 -19 569 -19 m 450 0 q 534 43 497 0 q 592 156 571 86 q 614 307 614 226 q 590 460 614 393 q 524 567 567 528 q 426 607 482 607 q 348 588 388 607 q 281 538 308 569 l 281 511 q 279 499 279 506 q 279 488 279 493 l 279 464 q 291 274 279 358 q 325 128 303 189 q 379 34 347 68 q 450 0 411 0 z "},"7":{"ha":701,"x_min":32,"x_max":718,"o":"m 192 0 q 219 234 192 115 q 297 467 246 353 q 417 682 347 582 q 574 860 488 782 l 296 857 q 172 857 219 857 q 100 849 125 857 q 63 818 75 840 q 46 751 51 796 l 32 751 l 71 1042 l 718 1042 l 718 1028 q 587 835 646 949 q 486 586 528 721 q 422 301 444 451 q 399 0 399 151 l 192 0 z "},"8":{"ha":861,"x_min":49,"x_max":813,"o":"m 431 -19 q 231 24 317 -19 q 97 147 144 68 q 49 328 49 225 q 133 561 49 468 q 365 671 218 654 q 174 735 244 682 q 103 867 103 788 q 145 971 103 928 q 261 1038 188 1014 q 431 1061 335 1061 q 603 1037 529 1061 q 717 969 676 1013 q 758 865 758 925 q 688 734 758 786 q 496 671 617 682 q 664 614 593 660 q 774 494 735 568 q 813 326 813 421 q 765 145 813 224 q 631 24 717 67 q 431 -19 544 -19 m 431 681 q 506 732 478 681 q 535 867 535 783 q 506 998 535 949 q 431 1047 478 1047 q 355 998 383 1047 q 326 868 326 949 q 355 732 326 783 q 431 681 383 681 m 431 3 q 515 45 479 3 q 572 164 551 88 q 593 342 593 240 q 548 576 593 489 q 431 663 503 663 q 313 576 358 663 q 268 342 268 489 q 289 164 268 240 q 347 45 310 88 q 431 3 383 3 z "},"9":{"ha":864,"x_min":47,"x_max":810,"o":"m 390 -19 q 331 -17 363 -19 q 265 -10 300 -15 q 197 -2 231 -4 q 131 0 163 0 l 94 290 l 113 290 q 155 142 122 208 q 237 38 188 76 q 344 0 286 0 q 437 34 394 0 q 511 131 479 68 q 583 476 576 258 q 480 401 546 429 q 339 374 414 374 q 187 413 253 374 q 84 526 121 453 q 47 699 47 600 q 93 892 47 811 q 221 1017 139 974 q 408 1061 303 1061 q 703 924 597 1061 q 810 540 810 788 q 780 310 810 414 q 696 133 750 207 q 563 20 640 60 q 390 -19 486 -19 m 436 435 q 516 453 476 435 q 583 504 556 472 q 585 518 585 511 q 585 531 585 525 l 585 578 q 563 824 585 719 q 502 985 542 928 q 407 1042 463 1042 q 326 1003 361 1042 q 269 898 290 965 q 249 742 249 831 q 300 519 249 604 q 436 435 351 435 z "},"A":{"ha":950,"x_min":-33,"x_max":988,"o":"m -33 0 l -33 14 q 20 40 -7 17 q 71 97 47 63 q 107 165 94 132 l 474 1063 l 486 1063 l 847 165 q 983 14 908 14 l 988 14 l 988 0 l 543 0 l 543 14 l 549 14 q 633 52 611 14 q 626 158 654 90 l 543 365 l 208 365 l 131 172 q 137 65 106 113 q 238 14 168 17 l 238 0 l -33 0 m 215 383 l 536 383 l 378 783 l 215 383 z "},"Á":{"ha":950,"x_min":-33,"x_max":988,"o":"m -33 0 l -33 14 q 20 40 -7 17 q 71 97 47 63 q 107 165 94 132 l 474 1063 l 486 1063 l 847 165 q 983 14 908 14 l 988 14 l 988 0 l 543 0 l 543 14 l 549 14 q 633 52 611 14 q 626 158 654 90 l 543 365 l 208 365 l 131 172 q 137 65 106 113 q 238 14 168 17 l 238 0 l -33 0 m 215 383 l 536 383 l 378 783 l 215 383 m 399 1088 l 389 1101 l 579 1369 l 586 1369 l 676 1289 l 676 1282 l 399 1088 z "},"Ă":{"ha":950,"x_min":-33,"x_max":988,"o":"m -33 0 l -33 14 q 20 40 -7 17 q 71 97 47 63 q 107 165 94 132 l 474 1063 l 486 1063 l 847 165 q 983 14 908 14 l 988 14 l 988 0 l 543 0 l 543 14 l 549 14 q 633 52 611 14 q 626 158 654 90 l 543 365 l 208 365 l 131 172 q 137 65 106 113 q 238 14 168 17 l 238 0 l -33 0 m 215 383 l 536 383 l 378 783 l 215 383 m 475 1139 q 347 1194 388 1139 q 304 1342 306 1250 l 318 1342 q 367 1256 321 1290 q 475 1222 413 1222 q 583 1256 538 1222 q 632 1342 629 1290 l 646 1342 q 603 1194 644 1250 q 475 1139 561 1139 z "},"Ǎ":{"ha":950,"x_min":-33,"x_max":988,"o":"m -33 0 l -33 14 q 20 40 -7 17 q 71 97 47 63 q 107 165 94 132 l 474 1063 l 486 1063 l 847 165 q 983 14 908 14 l 988 14 l 988 0 l 543 0 l 543 14 l 549 14 q 633 52 611 14 q 626 158 654 90 l 543 365 l 208 365 l 131 172 q 137 65 106 113 q 238 14 168 17 l 238 0 l -33 0 m 215 383 l 536 383 l 378 783 l 215 383 m 439 1101 l 263 1374 l 272 1383 l 475 1199 l 678 1383 l 688 1374 l 510 1101 l 439 1101 z "},"Â":{"ha":950,"x_min":-33,"x_max":988,"o":"m -33 0 l -33 14 q 20 40 -7 17 q 71 97 47 63 q 107 165 94 132 l 474 1063 l 486 1063 l 847 165 q 983 14 908 14 l 988 14 l 988 0 l 543 0 l 543 14 l 549 14 q 633 52 611 14 q 626 158 654 90 l 543 365 l 208 365 l 131 172 q 137 65 106 113 q 238 14 168 17 l 238 0 l -33 0 m 215 383 l 536 383 l 378 783 l 215 383 m 272 1088 l 263 1097 l 439 1369 l 510 1369 l 688 1097 l 678 1088 l 475 1272 l 272 1088 z "},"Ä":{"ha":950,"x_min":-33,"x_max":988,"o":"m -33 0 l -33 14 q 20 40 -7 17 q 71 97 47 63 q 107 165 94 132 l 474 1063 l 486 1063 l 847 165 q 983 14 908 14 l 988 14 l 988 0 l 543 0 l 543 14 l 549 14 q 633 52 611 14 q 626 158 654 90 l 543 365 l 208 365 l 131 172 q 137 65 106 113 q 238 14 168 17 l 238 0 l -33 0 m 215 383 l 536 383 l 378 783 l 215 383 m 613 1119 q 539 1150 569 1119 q 508 1224 508 1181 q 539 1297 508 1267 q 613 1328 569 1328 q 685 1297 654 1328 q 717 1224 717 1267 q 685 1150 717 1181 q 613 1119 654 1119 m 338 1119 q 264 1150 294 1119 q 233 1224 233 1181 q 264 1297 233 1267 q 338 1328 294 1328 q 410 1297 379 1328 q 442 1224 442 1267 q 410 1150 442 1181 q 338 1119 379 1119 z "},"À":{"ha":950,"x_min":-33,"x_max":988,"o":"m -33 0 l -33 14 q 20 40 -7 17 q 71 97 47 63 q 107 165 94 132 l 474 1063 l 486 1063 l 847 165 q 983 14 908 14 l 988 14 l 988 0 l 543 0 l 543 14 l 549 14 q 633 52 611 14 q 626 158 654 90 l 543 365 l 208 365 l 131 172 q 137 65 106 113 q 238 14 168 17 l 238 0 l -33 0 m 215 383 l 536 383 l 378 783 l 215 383 m 550 1088 l 272 1282 l 272 1289 l 363 1369 l 369 1369 l 560 1101 l 550 1088 z "},"Ā":{"ha":950,"x_min":-33,"x_max":988,"o":"m -33 0 l -33 14 q 20 40 -7 17 q 71 97 47 63 q 107 165 94 132 l 474 1063 l 486 1063 l 847 165 q 983 14 908 14 l 988 14 l 988 0 l 543 0 l 543 14 l 549 14 q 633 52 611 14 q 626 158 654 90 l 543 365 l 208 365 l 131 172 q 137 65 106 113 q 238 14 168 17 l 238 0 l -33 0 m 215 383 l 536 383 l 378 783 l 215 383 m 322 1185 l 322 1258 l 628 1258 l 628 1185 l 322 1185 z "},"Ą":{"ha":950,"x_min":-33,"x_max":988,"o":"m -33 0 l -33 14 q 20 40 -7 17 q 71 97 47 63 q 107 165 94 132 l 474 1063 l 486 1063 l 847 165 q 983 14 908 14 l 988 14 l 988 0 l 543 0 l 543 14 l 549 14 q 633 52 611 14 q 626 158 654 90 l 543 365 l 208 365 l 131 172 q 137 65 106 113 q 238 14 168 17 l 238 0 l -33 0 m 215 383 l 536 383 l 378 783 l 215 383 m 844 -312 q 733 -279 772 -312 q 693 -185 693 -246 q 752 -45 693 -99 q 907 8 811 8 l 926 8 l 926 0 q 839 -71 874 -17 q 804 -194 804 -125 q 820 -264 804 -239 q 865 -289 836 -289 q 930 -254 900 -289 q 972 -165 960 -219 l 988 -165 l 961 -303 q 901 -307 925 -303 q 876 -311 890 -310 q 844 -312 861 -312 z "},"Å":{"ha":950,"x_min":-33,"x_max":988,"o":"m -33 0 l -33 14 q 20 40 -7 17 q 71 97 47 63 q 107 165 94 132 l 474 1063 l 486 1063 l 847 165 q 983 14 908 14 l 988 14 l 988 0 l 543 0 l 543 14 l 549 14 q 633 52 611 14 q 626 158 654 90 l 543 365 l 208 365 l 131 172 q 137 65 106 113 q 238 14 168 17 l 238 0 l -33 0 m 215 383 l 536 383 l 378 783 l 215 383 m 474 1119 q 398 1150 429 1119 q 367 1224 367 1181 q 398 1297 367 1267 q 474 1328 429 1328 q 550 1297 518 1328 q 582 1224 582 1267 q 550 1150 582 1181 q 474 1119 518 1119 m 474 1146 q 528 1169 506 1146 q 551 1224 551 1192 q 528 1278 551 1256 q 474 1301 506 1301 q 419 1278 442 1301 q 397 1224 397 1256 q 419 1169 397 1192 q 474 1146 442 1146 z "},"Ã":{"ha":950,"x_min":-33,"x_max":988,"o":"m -33 0 l -33 14 q 20 40 -7 17 q 71 97 47 63 q 107 165 94 132 l 474 1063 l 486 1063 l 847 165 q 983 14 908 14 l 988 14 l 988 0 l 543 0 l 543 14 l 549 14 q 633 52 611 14 q 626 158 654 90 l 543 365 l 208 365 l 131 172 q 137 65 106 113 q 238 14 168 17 l 238 0 l -33 0 m 215 383 l 536 383 l 378 783 l 215 383 m 551 1118 q 487 1138 515 1118 q 432 1177 458 1157 q 375 1197 406 1197 q 326 1183 351 1197 q 283 1136 301 1168 l 269 1142 q 332 1253 294 1211 q 406 1294 369 1294 q 470 1274 443 1294 q 523 1235 497 1254 q 582 1215 549 1215 q 624 1228 603 1215 q 665 1276 646 1240 l 679 1271 q 627 1160 663 1201 q 551 1118 592 1118 z "},"Æ":{"ha":1244,"x_min":-49,"x_max":1226,"o":"m -49 0 l -49 14 q 31 60 -12 17 q 111 175 75 104 l 524 951 q 417 1028 500 1028 l 415 1042 l 1160 1042 l 1201 763 l 1188 763 q 858 1024 1146 1024 l 742 1024 l 742 622 l 867 622 q 978 665 936 622 q 1019 776 1019 707 l 1033 776 l 1033 435 l 1019 435 q 972 558 1018 511 q 851 604 926 604 l 742 604 l 742 107 q 766 42 742 67 q 831 18 790 18 l 897 18 q 1213 306 1171 18 l 1226 306 l 1185 0 l 414 0 l 415 14 l 417 14 q 497 44 467 14 q 528 125 528 75 l 528 365 l 238 365 l 129 163 q 120 59 94 100 q 222 14 146 18 l 222 0 l -49 0 m 247 383 l 528 383 l 528 910 l 247 383 z "},"B":{"ha":913,"x_min":0,"x_max":878,"o":"m 0 0 l 0 14 l 1 14 q 81 42 50 14 q 113 117 113 71 l 113 925 q 80 1000 110 972 q 1 1028 50 1028 l 0 1028 l 0 1042 l 413 1042 q 608 1013 525 1042 q 736 931 690 983 q 782 808 782 879 q 713 669 782 728 q 533 597 644 611 q 713 556 636 592 q 834 461 790 521 q 878 322 878 401 q 823 155 878 228 q 668 41 768 82 q 432 0 568 0 l 0 0 m 326 607 l 413 607 q 527 663 483 607 q 571 814 571 719 q 527 967 571 910 q 413 1024 483 1024 l 326 1024 l 326 607 m 432 18 q 595 96 535 18 q 656 306 656 174 q 590 509 656 432 q 413 586 524 586 l 326 586 l 326 117 q 432 18 326 18 z "},"C":{"ha":1031,"x_min":51,"x_max":1013,"o":"m 656 -19 q 339 48 475 -19 q 127 238 203 115 q 51 522 51 360 q 127 807 51 686 q 342 994 203 928 q 671 1061 481 1061 q 747 1058 717 1061 q 804 1050 778 1054 q 865 1042 831 1046 q 950 1039 899 1039 l 992 761 l 978 761 q 917 906 963 843 q 805 1006 872 969 q 656 1043 738 1043 q 507 1004 575 1043 q 390 896 439 965 q 315 727 342 825 q 288 513 288 629 q 335 244 288 358 q 468 66 382 129 q 671 3 554 3 q 891 83 804 3 q 999 306 978 163 l 1013 306 l 972 6 q 857 -1 907 6 q 760 -13 807 -7 q 656 -19 714 -19 z "},"Ć":{"ha":1031,"x_min":51,"x_max":1013,"o":"m 656 -19 q 339 48 475 -19 q 127 238 203 115 q 51 522 51 360 q 127 807 51 686 q 342 994 203 928 q 671 1061 481 1061 q 747 1058 717 1061 q 804 1050 778 1054 q 865 1042 831 1046 q 950 1039 899 1039 l 992 761 l 978 761 q 917 906 963 843 q 805 1006 872 969 q 656 1043 738 1043 q 507 1004 575 1043 q 390 896 439 965 q 315 727 342 825 q 288 513 288 629 q 335 244 288 358 q 468 66 382 129 q 671 3 554 3 q 891 83 804 3 q 999 306 978 163 l 1013 306 l 972 6 q 857 -1 907 6 q 760 -13 807 -7 q 656 -19 714 -19 m 536 1088 l 526 1101 l 717 1369 l 724 1369 l 814 1289 l 814 1282 l 536 1088 z "},"Č":{"ha":1031,"x_min":51,"x_max":1013,"o":"m 656 -19 q 339 48 475 -19 q 127 238 203 115 q 51 522 51 360 q 127 807 51 686 q 342 994 203 928 q 671 1061 481 1061 q 747 1058 717 1061 q 804 1050 778 1054 q 865 1042 831 1046 q 950 1039 899 1039 l 992 761 l 978 761 q 917 906 963 843 q 805 1006 872 969 q 656 1043 738 1043 q 507 1004 575 1043 q 390 896 439 965 q 315 727 342 825 q 288 513 288 629 q 335 244 288 358 q 468 66 382 129 q 671 3 554 3 q 891 83 804 3 q 999 306 978 163 l 1013 306 l 972 6 q 857 -1 907 6 q 760 -13 807 -7 q 656 -19 714 -19 m 576 1101 l 400 1374 l 410 1383 l 613 1199 l 815 1383 l 825 1374 l 647 1101 l 576 1101 z "},"Ç":{"ha":1031,"x_min":51,"x_max":1013,"o":"m 656 -19 q 339 48 475 -19 q 127 238 203 115 q 51 522 51 360 q 127 807 51 686 q 342 994 203 928 q 671 1061 481 1061 q 747 1058 717 1061 q 804 1050 778 1054 q 865 1042 831 1046 q 950 1039 899 1039 l 992 761 l 978 761 q 917 906 963 843 q 805 1006 872 969 q 656 1043 738 1043 q 507 1004 575 1043 q 390 896 439 965 q 315 727 342 825 q 288 513 288 629 q 335 244 288 358 q 468 66 382 129 q 671 3 554 3 q 891 83 804 3 q 999 306 978 163 l 1013 306 l 972 6 q 857 -1 907 6 q 760 -13 807 -7 q 656 -19 714 -19 m 608 -312 q 574 -310 586 -312 q 547 -305 561 -307 q 506 -303 532 -303 l 479 -165 l 494 -165 q 589 -289 522 -289 q 633 -267 617 -289 q 649 -208 649 -246 q 626 -128 649 -162 q 569 -87 603 -94 l 569 -79 l 601 0 l 621 0 l 589 -78 q 713 -112 667 -79 q 760 -201 760 -146 q 719 -282 760 -251 q 608 -312 678 -312 z "},"Ċ":{"ha":1031,"x_min":51,"x_max":1013,"o":"m 656 -19 q 339 48 475 -19 q 127 238 203 115 q 51 522 51 360 q 127 807 51 686 q 342 994 203 928 q 671 1061 481 1061 q 747 1058 717 1061 q 804 1050 778 1054 q 865 1042 831 1046 q 950 1039 899 1039 l 992 761 l 978 761 q 917 906 963 843 q 805 1006 872 969 q 656 1043 738 1043 q 507 1004 575 1043 q 390 896 439 965 q 315 727 342 825 q 288 513 288 629 q 335 244 288 358 q 468 66 382 129 q 671 3 554 3 q 891 83 804 3 q 999 306 978 163 l 1013 306 l 972 6 q 857 -1 907 6 q 760 -13 807 -7 q 656 -19 714 -19 m 611 1126 q 541 1155 571 1126 q 511 1224 511 1183 q 541 1292 511 1264 q 611 1321 571 1321 q 682 1292 651 1321 q 713 1224 713 1264 q 682 1156 713 1185 q 611 1126 651 1126 z "},"D":{"ha":1149,"x_min":0,"x_max":1097,"o":"m 0 0 l 0 14 q 82 42 51 14 q 113 117 113 69 l 113 924 q 81 999 113 971 q 1 1028 50 1028 l 1 1042 l 449 1042 q 790 983 644 1042 q 1017 807 936 924 q 1097 519 1097 690 q 1016 233 1097 349 q 789 59 935 118 q 449 0 643 0 l 0 0 m 424 18 l 449 18 q 666 75 574 18 q 810 244 758 132 q 861 522 861 357 q 810 799 861 688 q 666 966 758 910 q 449 1022 574 1022 l 326 1022 l 326 117 q 348 45 326 72 q 424 18 369 18 z "},"Ð":{"ha":1149,"x_min":0,"x_max":1097,"o":"m 0 0 l 0 14 q 82 42 51 14 q 113 117 113 69 l 113 511 l 0 511 l 0 529 l 113 529 l 113 924 q 81 999 113 971 q 1 1028 50 1028 l 1 1042 l 449 1042 q 790 983 644 1042 q 1017 807 936 924 q 1097 519 1097 690 q 1016 233 1097 349 q 789 59 935 118 q 449 0 643 0 l 0 0 m 424 18 l 449 18 q 666 75 574 18 q 810 244 758 132 q 861 522 861 357 q 810 799 861 688 q 666 966 758 910 q 449 1022 574 1022 l 326 1022 l 326 531 l 592 531 l 592 513 l 326 513 l 326 117 q 348 45 326 72 q 424 18 369 18 z "},"Ď":{"ha":1149,"x_min":0,"x_max":1097,"o":"m 0 0 l 0 14 q 82 42 51 14 q 113 117 113 69 l 113 924 q 81 999 113 971 q 1 1028 50 1028 l 1 1042 l 449 1042 q 790 983 644 1042 q 1017 807 936 924 q 1097 519 1097 690 q 1016 233 1097 349 q 789 59 935 118 q 449 0 643 0 l 0 0 m 424 18 l 449 18 q 666 75 574 18 q 810 244 758 132 q 861 522 861 357 q 810 799 861 688 q 666 966 758 910 q 449 1022 574 1022 l 326 1022 l 326 117 q 348 45 326 72 q 424 18 369 18 m 442 1101 l 265 1374 l 275 1383 l 478 1199 l 681 1383 l 690 1374 l 513 1101 l 442 1101 z "},"Đ":{"ha":1149,"x_min":0,"x_max":1097,"o":"m 0 0 l 0 14 q 82 42 51 14 q 113 117 113 69 l 113 511 l 0 511 l 0 529 l 113 529 l 113 924 q 81 999 113 971 q 1 1028 50 1028 l 1 1042 l 449 1042 q 790 983 644 1042 q 1017 807 936 924 q 1097 519 1097 690 q 1016 233 1097 349 q 789 59 935 118 q 449 0 643 0 l 0 0 m 424 18 l 449 18 q 666 75 574 18 q 810 244 758 132 q 861 522 861 357 q 810 799 861 688 q 666 966 758 910 q 449 1022 574 1022 l 326 1022 l 326 531 l 592 531 l 592 513 l 326 513 l 326 117 q 348 45 326 72 q 424 18 369 18 z "},"E":{"ha":842,"x_min":11,"x_max":824,"o":"m 11 0 l 13 14 l 14 14 q 94 40 64 14 q 125 117 125 67 l 125 917 q 94 997 125 967 q 14 1028 64 1028 l 13 1042 l 757 1042 l 799 763 l 785 763 q 456 1024 743 1024 l 339 1024 l 339 622 l 464 622 q 575 665 533 622 q 617 776 617 707 l 631 776 l 631 435 l 617 435 q 569 557 615 510 q 449 604 524 604 l 339 604 l 339 117 q 436 18 339 18 l 494 18 q 708 88 629 18 q 810 306 788 157 l 824 306 l 782 0 l 11 0 z "},"É":{"ha":842,"x_min":11,"x_max":824,"o":"m 11 0 l 13 14 l 14 14 q 94 40 64 14 q 125 117 125 67 l 125 917 q 94 997 125 967 q 14 1028 64 1028 l 13 1042 l 757 1042 l 799 763 l 785 763 q 456 1024 743 1024 l 339 1024 l 339 622 l 464 622 q 575 665 533 622 q 617 776 617 707 l 631 776 l 631 435 l 617 435 q 569 557 615 510 q 449 604 524 604 l 339 604 l 339 117 q 436 18 339 18 l 494 18 q 708 88 629 18 q 810 306 788 157 l 824 306 l 782 0 l 11 0 m 344 1088 l 335 1101 l 525 1369 l 532 1369 l 622 1289 l 622 1282 l 344 1088 z "},"Ě":{"ha":842,"x_min":11,"x_max":824,"o":"m 11 0 l 13 14 l 14 14 q 94 40 64 14 q 125 117 125 67 l 125 917 q 94 997 125 967 q 14 1028 64 1028 l 13 1042 l 757 1042 l 799 763 l 785 763 q 456 1024 743 1024 l 339 1024 l 339 622 l 464 622 q 575 665 533 622 q 617 776 617 707 l 631 776 l 631 435 l 617 435 q 569 557 615 510 q 449 604 524 604 l 339 604 l 339 117 q 436 18 339 18 l 494 18 q 708 88 629 18 q 810 306 788 157 l 824 306 l 782 0 l 11 0 m 385 1101 l 208 1374 l 218 1383 l 421 1199 l 624 1383 l 633 1374 l 456 1101 l 385 1101 z "},"Ê":{"ha":842,"x_min":11,"x_max":824,"o":"m 11 0 l 13 14 l 14 14 q 94 40 64 14 q 125 117 125 67 l 125 917 q 94 997 125 967 q 14 1028 64 1028 l 13 1042 l 757 1042 l 799 763 l 785 763 q 456 1024 743 1024 l 339 1024 l 339 622 l 464 622 q 575 665 533 622 q 617 776 617 707 l 631 776 l 631 435 l 617 435 q 569 557 615 510 q 449 604 524 604 l 339 604 l 339 117 q 436 18 339 18 l 494 18 q 708 88 629 18 q 810 306 788 157 l 824 306 l 782 0 l 11 0 m 218 1088 l 208 1097 l 385 1369 l 456 1369 l 633 1097 l 624 1088 l 421 1272 l 218 1088 z "},"Ë":{"ha":842,"x_min":11,"x_max":824,"o":"m 11 0 l 13 14 l 14 14 q 94 40 64 14 q 125 117 125 67 l 125 917 q 94 997 125 967 q 14 1028 64 1028 l 13 1042 l 757 1042 l 799 763 l 785 763 q 456 1024 743 1024 l 339 1024 l 339 622 l 464 622 q 575 665 533 622 q 617 776 617 707 l 631 776 l 631 435 l 617 435 q 569 557 615 510 q 449 604 524 604 l 339 604 l 339 117 q 436 18 339 18 l 494 18 q 708 88 629 18 q 810 306 788 157 l 824 306 l 782 0 l 11 0 m 558 1119 q 485 1150 515 1119 q 454 1224 454 1181 q 485 1297 454 1267 q 558 1328 515 1328 q 631 1297 600 1328 q 663 1224 663 1267 q 631 1150 663 1181 q 558 1119 600 1119 m 283 1119 q 210 1150 240 1119 q 179 1224 179 1181 q 210 1297 179 1267 q 283 1328 240 1328 q 356 1297 325 1328 q 388 1224 388 1267 q 356 1150 388 1181 q 283 1119 325 1119 z "},"Ė":{"ha":842,"x_min":11,"x_max":824,"o":"m 11 0 l 13 14 l 14 14 q 94 40 64 14 q 125 117 125 67 l 125 917 q 94 997 125 967 q 14 1028 64 1028 l 13 1042 l 757 1042 l 799 763 l 785 763 q 456 1024 743 1024 l 339 1024 l 339 622 l 464 622 q 575 665 533 622 q 617 776 617 707 l 631 776 l 631 435 l 617 435 q 569 557 615 510 q 449 604 524 604 l 339 604 l 339 117 q 436 18 339 18 l 494 18 q 708 88 629 18 q 810 306 788 157 l 824 306 l 782 0 l 11 0 m 419 1126 q 349 1155 379 1126 q 319 1224 319 1183 q 349 1292 319 1264 q 419 1321 379 1321 q 490 1292 460 1321 q 521 1224 521 1264 q 490 1156 521 1185 q 419 1126 460 1126 z "},"È":{"ha":842,"x_min":11,"x_max":824,"o":"m 11 0 l 13 14 l 14 14 q 94 40 64 14 q 125 117 125 67 l 125 917 q 94 997 125 967 q 14 1028 64 1028 l 13 1042 l 757 1042 l 799 763 l 785 763 q 456 1024 743 1024 l 339 1024 l 339 622 l 464 622 q 575 665 533 622 q 617 776 617 707 l 631 776 l 631 435 l 617 435 q 569 557 615 510 q 449 604 524 604 l 339 604 l 339 117 q 436 18 339 18 l 494 18 q 708 88 629 18 q 810 306 788 157 l 824 306 l 782 0 l 11 0 m 496 1088 l 218 1282 l 218 1289 l 308 1369 l 315 1369 l 506 1101 l 496 1088 z "},"Ē":{"ha":842,"x_min":11,"x_max":824,"o":"m 11 0 l 13 14 l 14 14 q 94 40 64 14 q 125 117 125 67 l 125 917 q 94 997 125 967 q 14 1028 64 1028 l 13 1042 l 757 1042 l 799 763 l 785 763 q 456 1024 743 1024 l 339 1024 l 339 622 l 464 622 q 575 665 533 622 q 617 776 617 707 l 631 776 l 631 435 l 617 435 q 569 557 615 510 q 449 604 524 604 l 339 604 l 339 117 q 436 18 339 18 l 494 18 q 708 88 629 18 q 810 306 788 157 l 824 306 l 782 0 l 11 0 m 268 1185 l 268 1258 l 574 1258 l 574 1185 l 268 1185 z "},"Ę":{"ha":842,"x_min":11,"x_max":824,"o":"m 11 0 l 13 14 l 14 14 q 94 40 64 14 q 125 117 125 67 l 125 917 q 94 997 125 967 q 14 1028 64 1028 l 13 1042 l 757 1042 l 799 763 l 785 763 q 456 1024 743 1024 l 339 1024 l 339 622 l 464 622 q 575 665 533 622 q 617 776 617 707 l 631 776 l 631 435 l 617 435 q 569 557 615 510 q 449 604 524 604 l 339 604 l 339 117 q 436 18 339 18 l 494 18 q 708 88 629 18 q 810 306 788 157 l 824 306 l 782 0 l 11 0 m 667 -312 q 555 -279 594 -312 q 515 -185 515 -246 q 574 -45 515 -99 q 729 8 633 8 l 749 8 l 749 0 q 661 -71 696 -17 q 626 -194 626 -125 q 642 -264 626 -239 q 688 -289 658 -289 q 752 -254 722 -289 q 794 -165 782 -219 l 810 -165 l 783 -303 q 724 -307 747 -303 q 698 -311 713 -310 q 667 -312 683 -312 z "},"F":{"ha":790,"x_min":0,"x_max":790,"o":"m 0 0 l 3 14 l 7 14 q 88 44 57 14 q 118 125 118 75 l 118 917 q 88 997 118 967 q 7 1028 57 1028 l 6 1042 l 749 1042 l 790 761 l 778 761 q 447 1024 736 1024 l 332 1024 l 332 606 l 440 606 q 551 649 510 606 q 593 763 593 693 l 607 763 l 607 415 l 593 415 q 547 539 593 490 q 426 588 501 588 l 332 588 l 332 114 q 364 41 332 68 q 443 14 396 14 l 444 0 l 0 0 z "},"G":{"ha":1146,"x_min":51,"x_max":1146,"o":"m 654 -19 q 334 47 469 -19 q 125 236 199 114 q 51 524 51 358 q 125 806 51 685 q 331 994 199 926 q 642 1061 464 1061 q 731 1058 696 1061 q 794 1050 767 1054 q 856 1042 822 1046 q 942 1039 890 1039 l 983 761 l 969 761 q 858 968 944 893 q 642 1043 771 1043 q 497 1006 563 1043 q 386 901 432 968 q 315 738 340 833 q 289 525 289 642 q 313 310 289 407 q 381 146 338 214 q 487 40 425 78 q 625 3 549 3 q 734 22 682 3 q 814 71 786 42 l 814 425 q 783 506 814 475 q 703 536 753 536 l 699 536 l 699 550 l 1146 550 l 1146 536 l 1140 536 q 1060 506 1090 536 q 1029 425 1029 475 l 1029 71 q 941 23 1001 43 q 805 -8 881 3 q 654 -19 729 -19 z "},"Ğ":{"ha":1146,"x_min":51,"x_max":1146,"o":"m 654 -19 q 334 47 469 -19 q 125 236 199 114 q 51 524 51 358 q 125 806 51 685 q 331 994 199 926 q 642 1061 464 1061 q 731 1058 696 1061 q 794 1050 767 1054 q 856 1042 822 1046 q 942 1039 890 1039 l 983 761 l 969 761 q 858 968 944 893 q 642 1043 771 1043 q 497 1006 563 1043 q 386 901 432 968 q 315 738 340 833 q 289 525 289 642 q 313 310 289 407 q 381 146 338 214 q 487 40 425 78 q 625 3 549 3 q 734 22 682 3 q 814 71 786 42 l 814 425 q 783 506 814 475 q 703 536 753 536 l 699 536 l 699 550 l 1146 550 l 1146 536 l 1140 536 q 1060 506 1090 536 q 1029 425 1029 475 l 1029 71 q 941 23 1001 43 q 805 -8 881 3 q 654 -19 729 -19 m 601 1139 q 473 1194 514 1139 q 431 1342 432 1250 l 444 1342 q 493 1256 447 1290 q 601 1222 539 1222 q 710 1256 664 1222 q 758 1342 756 1290 l 772 1342 q 729 1194 771 1250 q 601 1139 688 1139 z "},"Ģ":{"ha":1146,"x_min":51,"x_max":1146,"o":"m 654 -19 q 334 47 469 -19 q 125 236 199 114 q 51 524 51 358 q 125 806 51 685 q 331 994 199 926 q 642 1061 464 1061 q 731 1058 696 1061 q 794 1050 767 1054 q 856 1042 822 1046 q 942 1039 890 1039 l 983 761 l 969 761 q 858 968 944 893 q 642 1043 771 1043 q 497 1006 563 1043 q 386 901 432 968 q 315 738 340 833 q 289 525 289 642 q 313 310 289 407 q 381 146 338 214 q 487 40 425 78 q 625 3 549 3 q 734 22 682 3 q 814 71 786 42 l 814 425 q 783 506 814 475 q 703 536 753 536 l 699 536 l 699 550 l 1146 550 l 1146 536 l 1140 536 q 1060 506 1090 536 q 1029 425 1029 475 l 1029 71 q 941 23 1001 43 q 805 -8 881 3 q 654 -19 729 -19 m 542 -504 l 529 -499 q 607 -411 574 -446 q 640 -331 640 -376 q 626 -294 640 -307 q 592 -274 613 -282 q 552 -257 572 -267 q 518 -229 532 -247 q 504 -178 504 -211 q 535 -101 504 -129 q 614 -72 565 -72 q 696 -106 665 -72 q 726 -199 726 -140 q 701 -313 726 -265 q 633 -406 675 -361 q 542 -504 590 -450 z "},"Ġ":{"ha":1146,"x_min":51,"x_max":1146,"o":"m 654 -19 q 334 47 469 -19 q 125 236 199 114 q 51 524 51 358 q 125 806 51 685 q 331 994 199 926 q 642 1061 464 1061 q 731 1058 696 1061 q 794 1050 767 1054 q 856 1042 822 1046 q 942 1039 890 1039 l 983 761 l 969 761 q 858 968 944 893 q 642 1043 771 1043 q 497 1006 563 1043 q 386 901 432 968 q 315 738 340 833 q 289 525 289 642 q 313 310 289 407 q 381 146 338 214 q 487 40 425 78 q 625 3 549 3 q 734 22 682 3 q 814 71 786 42 l 814 425 q 783 506 814 475 q 703 536 753 536 l 699 536 l 699 550 l 1146 550 l 1146 536 l 1140 536 q 1060 506 1090 536 q 1029 425 1029 475 l 1029 71 q 941 23 1001 43 q 805 -8 881 3 q 654 -19 729 -19 m 600 1126 q 530 1155 560 1126 q 500 1224 500 1183 q 530 1292 500 1264 q 600 1321 560 1321 q 671 1292 640 1321 q 701 1224 701 1264 q 671 1156 701 1185 q 600 1126 640 1126 z "},"H":{"ha":1118,"x_min":0,"x_max":1118,"o":"m 0 0 l 0 14 l 6 14 q 86 44 56 14 q 117 125 117 75 l 117 917 q 86 997 117 967 q 6 1028 56 1028 l 0 1028 l 0 1042 l 444 1042 l 444 1028 l 442 1028 q 361 997 392 1028 q 331 917 331 967 l 331 594 l 789 594 l 789 917 q 758 997 789 967 q 678 1028 728 1028 l 674 1028 l 674 1042 l 1118 1042 l 1118 1028 l 1114 1028 q 1033 997 1064 1028 q 1003 917 1003 967 l 1003 125 q 1033 44 1003 75 q 1114 14 1064 14 l 1118 14 l 1118 0 l 674 0 l 674 14 l 678 14 q 758 44 728 14 q 789 125 789 75 l 789 575 l 331 575 l 331 125 q 361 44 331 75 q 442 14 392 14 l 444 14 l 444 0 l 0 0 z "},"Ħ":{"ha":1118,"x_min":0,"x_max":1118,"o":"m 0 0 l 0 14 l 6 14 q 86 44 56 14 q 117 125 117 75 l 117 753 l 10 753 l 10 772 l 117 772 l 117 917 q 86 997 117 967 q 6 1028 56 1028 l 0 1028 l 0 1042 l 444 1042 l 444 1028 l 442 1028 q 361 997 392 1028 q 331 917 331 967 l 331 772 l 789 772 l 789 917 q 758 997 789 967 q 678 1028 728 1028 l 674 1028 l 674 1042 l 1118 1042 l 1118 1028 l 1114 1028 q 1033 997 1064 1028 q 1003 917 1003 967 l 1003 772 l 1110 772 l 1110 753 l 1003 753 l 1003 125 q 1033 44 1003 75 q 1114 14 1064 14 l 1118 14 l 1118 0 l 674 0 l 674 14 l 678 14 q 758 44 728 14 q 789 125 789 75 l 789 575 l 331 575 l 331 125 q 361 44 331 75 q 442 14 392 14 l 444 14 l 444 0 l 0 0 m 331 594 l 789 594 l 789 753 l 331 753 l 331 594 z "},"I":{"ha":440,"x_min":0,"x_max":440,"o":"m 0 0 l 0 14 l 1 14 q 82 44 51 14 q 113 125 113 75 l 113 917 q 82 997 113 967 q 1 1028 51 1028 l 0 1028 l 0 1042 l 440 1042 l 440 1028 l 439 1028 q 358 997 389 1028 q 328 917 328 967 l 328 125 q 358 44 328 75 q 439 14 389 14 l 440 14 l 440 0 l 0 0 z "},"Ĳ":{"ha":876,"x_min":0,"x_max":876,"o":"m 0 0 l 0 14 l 1 14 q 82 44 51 14 q 113 125 113 75 l 113 917 q 82 997 113 967 q 1 1028 51 1028 l 0 1028 l 0 1042 l 440 1042 l 440 1028 l 439 1028 q 358 997 389 1028 q 328 917 328 967 l 328 125 q 358 44 328 75 q 439 14 389 14 l 440 14 l 440 0 l 0 0 m 428 -260 l 426 -247 q 519 -151 485 -242 q 554 86 554 -61 l 554 917 q 524 997 554 967 q 443 1028 493 1028 l 440 1028 l 440 1042 l 876 1042 l 876 1028 l 875 1028 q 794 997 825 1028 q 764 917 764 967 l 764 86 q 722 -83 764 -8 q 603 -204 679 -158 q 428 -260 528 -250 z "},"Í":{"ha":440,"x_min":0,"x_max":440,"o":"m 0 0 l 0 14 l 1 14 q 82 44 51 14 q 113 125 113 75 l 113 917 q 82 997 113 967 q 1 1028 51 1028 l 0 1028 l 0 1042 l 440 1042 l 440 1028 l 439 1028 q 358 997 389 1028 q 328 917 328 967 l 328 125 q 358 44 328 75 q 439 14 389 14 l 440 14 l 440 0 l 0 0 m 144 1088 l 135 1101 l 325 1369 l 332 1369 l 422 1289 l 422 1282 l 144 1088 z "},"Î":{"ha":440,"x_min":0,"x_max":440,"o":"m 0 0 l 0 14 l 1 14 q 82 44 51 14 q 113 125 113 75 l 113 917 q 82 997 113 967 q 1 1028 51 1028 l 0 1028 l 0 1042 l 440 1042 l 440 1028 l 439 1028 q 358 997 389 1028 q 328 917 328 967 l 328 125 q 358 44 328 75 q 439 14 389 14 l 440 14 l 440 0 l 0 0 m 18 1088 l 8 1097 l 185 1369 l 256 1369 l 433 1097 l 424 1088 l 221 1272 l 18 1088 z "},"Ï":{"ha":440,"x_min":-21,"x_max":463,"o":"m 0 0 l 0 14 l 1 14 q 82 44 51 14 q 113 125 113 75 l 113 917 q 82 997 113 967 q 1 1028 51 1028 l 0 1028 l 0 1042 l 440 1042 l 440 1028 l 439 1028 q 358 997 389 1028 q 328 917 328 967 l 328 125 q 358 44 328 75 q 439 14 389 14 l 440 14 l 440 0 l 0 0 m 358 1119 q 285 1150 315 1119 q 254 1224 254 1181 q 285 1297 254 1267 q 358 1328 315 1328 q 431 1297 400 1328 q 463 1224 463 1267 q 431 1150 463 1181 q 358 1119 400 1119 m 83 1119 q 10 1150 40 1119 q -21 1224 -21 1181 q 10 1297 -21 1267 q 83 1328 40 1328 q 156 1297 125 1328 q 188 1224 188 1267 q 156 1150 188 1181 q 83 1119 125 1119 z "},"İ":{"ha":440,"x_min":0,"x_max":440,"o":"m 0 0 l 0 14 l 1 14 q 82 44 51 14 q 113 125 113 75 l 113 917 q 82 997 113 967 q 1 1028 51 1028 l 0 1028 l 0 1042 l 440 1042 l 440 1028 l 439 1028 q 358 997 389 1028 q 328 917 328 967 l 328 125 q 358 44 328 75 q 439 14 389 14 l 440 14 l 440 0 l 0 0 m 219 1126 q 149 1155 179 1126 q 119 1224 119 1183 q 149 1292 119 1264 q 219 1321 179 1321 q 290 1292 260 1321 q 321 1224 321 1264 q 290 1156 321 1185 q 219 1126 260 1126 z "},"Ì":{"ha":440,"x_min":0,"x_max":440,"o":"m 0 0 l 0 14 l 1 14 q 82 44 51 14 q 113 125 113 75 l 113 917 q 82 997 113 967 q 1 1028 51 1028 l 0 1028 l 0 1042 l 440 1042 l 440 1028 l 439 1028 q 358 997 389 1028 q 328 917 328 967 l 328 125 q 358 44 328 75 q 439 14 389 14 l 440 14 l 440 0 l 0 0 m 296 1088 l 18 1282 l 18 1289 l 108 1369 l 115 1369 l 306 1101 l 296 1088 z "},"Ī":{"ha":440,"x_min":0,"x_max":440,"o":"m 0 0 l 0 14 l 1 14 q 82 44 51 14 q 113 125 113 75 l 113 917 q 82 997 113 967 q 1 1028 51 1028 l 0 1028 l 0 1042 l 440 1042 l 440 1028 l 439 1028 q 358 997 389 1028 q 328 917 328 967 l 328 125 q 358 44 328 75 q 439 14 389 14 l 440 14 l 440 0 l 0 0 m 68 1185 l 68 1258 l 374 1258 l 374 1185 l 68 1185 z "},"Į":{"ha":440,"x_min":0,"x_max":440,"o":"m 0 0 l 0 14 l 1 14 q 82 44 51 14 q 113 125 113 75 l 113 917 q 82 997 113 967 q 1 1028 51 1028 l 0 1028 l 0 1042 l 440 1042 l 440 1028 l 439 1028 q 358 997 389 1028 q 328 917 328 967 l 328 125 q 358 44 328 75 q 439 14 389 14 l 440 14 l 440 0 l 0 0 m 228 -312 q 116 -279 156 -312 q 76 -185 76 -246 q 135 -45 76 -99 q 290 8 194 8 l 310 8 l 310 0 q 222 -71 257 -17 q 188 -194 188 -125 q 203 -264 188 -239 q 249 -289 219 -289 q 313 -254 283 -289 q 356 -165 343 -219 l 371 -165 l 344 -303 q 285 -307 308 -303 q 259 -311 274 -310 q 228 -312 244 -312 z "},"J":{"ha":436,"x_min":-14,"x_max":436,"o":"m -12 -260 l -14 -247 q 79 -151 44 -242 q 114 86 114 -61 l 114 917 q 83 997 114 967 q 3 1028 53 1028 l 0 1028 l 0 1042 l 436 1042 l 436 1028 l 435 1028 q 354 997 385 1028 q 324 917 324 967 l 324 86 q 281 -83 324 -8 q 163 -204 239 -158 q -12 -260 88 -250 z "},"K":{"ha":1018,"x_min":0,"x_max":1056,"o":"m 0 0 l 0 14 l 6 14 q 86 44 56 14 q 117 125 117 75 l 117 917 q 86 997 117 967 q 6 1028 56 1028 l 0 1028 l 0 1042 l 426 1042 l 426 1028 l 421 1028 q 340 997 371 1028 q 310 917 310 967 l 310 572 l 665 894 q 722 987 722 946 q 658 1028 722 1028 l 657 1028 l 657 1042 l 951 1042 l 951 1028 q 885 1015 924 1026 q 810 987 847 1004 q 746 946 772 969 l 451 675 l 944 83 q 999 33 969 53 q 1056 14 1028 14 l 1056 0 l 644 0 l 644 14 q 717 37 703 14 q 701 96 732 60 l 310 565 l 310 125 q 340 44 310 75 q 421 14 371 14 l 426 14 l 426 0 l 0 0 z "},"Ķ":{"ha":1018,"x_min":0,"x_max":1056,"o":"m 0 0 l 0 14 l 6 14 q 86 44 56 14 q 117 125 117 75 l 117 917 q 86 997 117 967 q 6 1028 56 1028 l 0 1028 l 0 1042 l 426 1042 l 426 1028 l 421 1028 q 340 997 371 1028 q 310 917 310 967 l 310 572 l 665 894 q 722 987 722 946 q 658 1028 722 1028 l 657 1028 l 657 1042 l 951 1042 l 951 1028 q 885 1015 924 1026 q 810 987 847 1004 q 746 946 772 969 l 451 675 l 944 83 q 999 33 969 53 q 1056 14 1028 14 l 1056 0 l 644 0 l 644 14 q 717 37 703 14 q 701 96 732 60 l 310 565 l 310 125 q 340 44 310 75 q 421 14 371 14 l 426 14 l 426 0 l 0 0 m 422 -504 l 410 -499 q 488 -411 454 -446 q 521 -331 521 -376 q 507 -294 521 -307 q 473 -274 493 -282 q 433 -257 453 -267 q 399 -229 413 -247 q 385 -178 385 -211 q 415 -101 385 -129 q 494 -72 446 -72 q 576 -106 546 -72 q 607 -199 607 -140 q 581 -313 607 -265 q 513 -406 556 -361 q 422 -504 471 -450 z "},"L":{"ha":790,"x_min":0,"x_max":782,"o":"m 0 0 l 0 14 l 1 14 q 82 40 51 14 q 113 117 113 67 l 113 917 q 82 997 113 967 q 1 1028 51 1028 l 0 1028 l 0 1042 l 443 1042 l 443 1028 l 438 1028 q 357 997 388 1028 q 326 917 326 967 l 326 111 q 348 42 326 67 q 424 18 369 18 l 453 18 q 661 94 576 18 q 768 310 746 171 l 782 310 l 740 0 l 0 0 z "},"Ĺ":{"ha":790,"x_min":0,"x_max":782,"o":"m 0 0 l 0 14 l 1 14 q 82 40 51 14 q 113 117 113 67 l 113 917 q 82 997 113 967 q 1 1028 51 1028 l 0 1028 l 0 1042 l 443 1042 l 443 1028 l 438 1028 q 357 997 388 1028 q 326 917 326 967 l 326 111 q 348 42 326 67 q 424 18 369 18 l 453 18 q 661 94 576 18 q 768 310 746 171 l 782 310 l 740 0 l 0 0 m 96 1088 l 86 1101 l 276 1369 l 283 1369 l 374 1289 l 374 1282 l 96 1088 z "},"Ľ":{"ha":790,"x_min":0,"x_max":782,"o":"m 0 0 l 0 14 l 1 14 q 82 40 51 14 q 113 117 113 67 l 113 917 q 82 997 113 967 q 1 1028 51 1028 l 0 1028 l 0 1042 l 443 1042 l 443 1028 l 438 1028 q 357 997 388 1028 q 326 917 326 967 l 326 111 q 348 42 326 67 q 424 18 369 18 l 453 18 q 661 94 576 18 q 768 310 746 171 l 782 310 l 740 0 l 0 0 m 532 671 l 524 686 q 575 722 554 706 q 607 751 596 738 q 631 804 631 778 q 610 845 631 832 q 563 868 589 858 q 515 898 535 878 q 494 956 494 918 q 524 1032 494 1003 q 603 1061 554 1061 q 686 1025 656 1061 q 717 922 717 989 q 676 797 717 853 q 532 671 636 740 z "},"Ļ":{"ha":790,"x_min":0,"x_max":782,"o":"m 0 0 l 0 14 l 1 14 q 82 40 51 14 q 113 117 113 67 l 113 917 q 82 997 113 967 q 1 1028 51 1028 l 0 1028 l 0 1042 l 443 1042 l 443 1028 l 438 1028 q 357 997 388 1028 q 326 917 326 967 l 326 111 q 348 42 326 67 q 424 18 369 18 l 453 18 q 661 94 576 18 q 768 310 746 171 l 782 310 l 740 0 l 0 0 m 347 -504 l 335 -499 q 413 -411 379 -446 q 446 -331 446 -376 q 432 -294 446 -307 q 398 -274 418 -282 q 358 -257 378 -267 q 324 -229 338 -247 q 310 -178 310 -211 q 340 -101 310 -129 q 419 -72 371 -72 q 501 -106 471 -72 q 532 -199 532 -140 q 506 -313 532 -265 q 438 -406 481 -361 q 347 -504 396 -450 z "},"Ł":{"ha":818,"x_min":28,"x_max":810,"o":"m 28 0 l 28 14 l 29 14 q 110 40 79 14 q 140 117 140 67 l 140 424 l 28 358 l 28 376 l 140 442 l 140 917 q 110 997 140 967 q 29 1028 79 1028 l 28 1028 l 28 1042 l 471 1042 l 471 1028 l 465 1028 q 385 997 415 1028 q 354 917 354 967 l 354 564 l 561 682 l 561 664 l 354 546 l 354 111 q 376 42 354 67 q 451 18 397 18 l 481 18 q 689 94 604 18 q 796 310 774 171 l 810 310 l 768 0 l 28 0 z "},"M":{"ha":1319,"x_min":-37,"x_max":1354,"o":"m 571 -19 l 182 872 l 117 142 q 149 51 111 86 q 240 14 186 17 l 240 0 l -37 0 l -37 14 q 51 53 15 17 q 93 143 88 89 l 163 911 q 97 997 136 965 q -6 1028 57 1028 l -6 1042 l 328 1042 l 667 257 l 1006 1042 l 1265 1042 l 1265 1028 q 1190 1001 1221 1028 q 1163 929 1160 975 l 1233 107 q 1278 36 1240 60 q 1354 13 1317 13 l 1354 0 l 924 0 l 924 13 q 972 24 947 13 q 1013 56 997 35 q 1025 104 1029 76 l 957 871 l 571 -19 z "},"N":{"ha":1040,"x_min":-7,"x_max":1053,"o":"m 921 -19 l 193 908 q 172 933 183 921 q 150 954 160 946 l 150 160 q 186 57 150 100 q 282 14 222 14 l 282 0 l -7 0 l -7 14 q 90 57 54 14 q 126 161 126 100 l 126 974 q -6 1028 64 1021 l -6 1042 l 351 1042 l 897 338 l 897 882 q 861 985 897 942 q 765 1028 825 1028 l 765 1042 l 1053 1042 l 1053 1028 q 957 985 993 1028 q 921 882 921 942 l 921 -19 z "},"Ń":{"ha":1040,"x_min":-7,"x_max":1053,"o":"m 921 -19 l 193 908 q 172 933 183 921 q 150 954 160 946 l 150 160 q 186 57 150 100 q 282 14 222 14 l 282 0 l -7 0 l -7 14 q 90 57 54 14 q 126 161 126 100 l 126 974 q -6 1028 64 1021 l -6 1042 l 351 1042 l 897 338 l 897 882 q 861 985 897 942 q 765 1028 825 1028 l 765 1042 l 1053 1042 l 1053 1028 q 957 985 993 1028 q 921 882 921 942 l 921 -19 m 444 1088 l 435 1101 l 625 1369 l 632 1369 l 722 1289 l 722 1282 l 444 1088 z "},"Ň":{"ha":1040,"x_min":-7,"x_max":1053,"o":"m 921 -19 l 193 908 q 172 933 183 921 q 150 954 160 946 l 150 160 q 186 57 150 100 q 282 14 222 14 l 282 0 l -7 0 l -7 14 q 90 57 54 14 q 126 161 126 100 l 126 974 q -6 1028 64 1021 l -6 1042 l 351 1042 l 897 338 l 897 882 q 861 985 897 942 q 765 1028 825 1028 l 765 1042 l 1053 1042 l 1053 1028 q 957 985 993 1028 q 921 882 921 942 l 921 -19 m 485 1101 l 308 1374 l 318 1383 l 521 1199 l 724 1383 l 733 1374 l 556 1101 l 485 1101 z "},"Ņ":{"ha":1040,"x_min":-7,"x_max":1053,"o":"m 921 -19 l 193 908 q 172 933 183 921 q 150 954 160 946 l 150 160 q 186 57 150 100 q 282 14 222 14 l 282 0 l -7 0 l -7 14 q 90 57 54 14 q 126 161 126 100 l 126 974 q -6 1028 64 1021 l -6 1042 l 351 1042 l 897 338 l 897 882 q 861 985 897 942 q 765 1028 825 1028 l 765 1042 l 1053 1042 l 1053 1028 q 957 985 993 1028 q 921 882 921 942 l 921 -19 m 447 -504 l 435 -499 q 513 -411 479 -446 q 546 -331 546 -376 q 532 -294 546 -307 q 498 -274 518 -282 q 458 -257 478 -267 q 424 -229 438 -247 q 410 -178 410 -211 q 440 -101 410 -129 q 519 -72 471 -72 q 601 -106 571 -72 q 632 -199 632 -140 q 606 -313 632 -265 q 538 -406 581 -361 q 447 -504 496 -450 z "},"Ñ":{"ha":1040,"x_min":-7,"x_max":1053,"o":"m 921 -19 l 193 908 q 172 933 183 921 q 150 954 160 946 l 150 160 q 186 57 150 100 q 282 14 222 14 l 282 0 l -7 0 l -7 14 q 90 57 54 14 q 126 161 126 100 l 126 974 q -6 1028 64 1021 l -6 1042 l 351 1042 l 897 338 l 897 882 q 861 985 897 942 q 765 1028 825 1028 l 765 1042 l 1053 1042 l 1053 1028 q 957 985 993 1028 q 921 882 921 942 l 921 -19 m 597 1118 q 533 1138 561 1118 q 478 1177 504 1157 q 421 1197 451 1197 q 372 1183 397 1197 q 329 1136 347 1168 l 315 1142 q 378 1253 340 1211 q 451 1294 415 1294 q 516 1274 489 1294 q 569 1235 543 1254 q 628 1215 594 1215 q 670 1228 649 1215 q 711 1276 692 1240 l 725 1271 q 673 1160 708 1201 q 597 1118 638 1118 z "},"Ŋ":{"ha":1040,"x_min":-7,"x_max":1053,"o":"m 604 -260 l 603 -247 q 696 -151 661 -242 q 731 86 731 -61 l 731 224 l 193 908 q 172 933 183 921 q 150 954 160 946 l 150 160 q 186 57 150 100 q 282 14 222 14 l 282 0 l -7 0 l -7 14 q 90 57 54 14 q 126 161 126 100 l 126 974 q -6 1028 64 1021 l -6 1042 l 351 1042 l 731 553 l 731 917 q 700 997 731 967 q 619 1028 669 1028 l 617 1028 l 617 1042 l 1053 1042 l 1053 1028 l 1051 1028 q 971 997 1001 1028 q 940 917 940 967 l 940 86 q 898 -83 940 -8 q 780 -204 856 -158 q 604 -260 704 -250 z "},"O":{"ha":1219,"x_min":51,"x_max":1168,"o":"m 610 -19 q 317 48 443 -19 q 122 237 192 115 q 51 521 51 358 q 122 805 51 683 q 317 994 192 926 q 610 1061 443 1061 q 902 994 776 1061 q 1098 805 1028 926 q 1168 521 1168 683 q 1098 237 1168 358 q 902 48 1028 115 q 610 -19 776 -19 m 610 3 q 742 40 682 3 q 844 146 801 78 q 909 310 886 214 q 932 522 932 406 q 909 735 932 639 q 844 900 886 832 q 742 1006 801 968 q 610 1043 682 1043 q 478 1006 538 1043 q 376 900 418 968 q 310 735 333 832 q 288 522 288 639 q 310 310 288 406 q 376 146 333 214 q 478 40 418 78 q 610 3 538 3 z "},"Ó":{"ha":1219,"x_min":51,"x_max":1168,"o":"m 610 -19 q 317 48 443 -19 q 122 237 192 115 q 51 521 51 358 q 122 805 51 683 q 317 994 192 926 q 610 1061 443 1061 q 902 994 776 1061 q 1098 805 1028 926 q 1168 521 1168 683 q 1098 237 1168 358 q 902 48 1028 115 q 610 -19 776 -19 m 610 3 q 742 40 682 3 q 844 146 801 78 q 909 310 886 214 q 932 522 932 406 q 909 735 932 639 q 844 900 886 832 q 742 1006 801 968 q 610 1043 682 1043 q 478 1006 538 1043 q 376 900 418 968 q 310 735 333 832 q 288 522 288 639 q 310 310 288 406 q 376 146 333 214 q 478 40 418 78 q 610 3 538 3 m 533 1088 l 524 1101 l 714 1369 l 721 1369 l 811 1289 l 811 1282 l 533 1088 z "},"Ô":{"ha":1219,"x_min":51,"x_max":1168,"o":"m 610 -19 q 317 48 443 -19 q 122 237 192 115 q 51 521 51 358 q 122 805 51 683 q 317 994 192 926 q 610 1061 443 1061 q 902 994 776 1061 q 1098 805 1028 926 q 1168 521 1168 683 q 1098 237 1168 358 q 902 48 1028 115 q 610 -19 776 -19 m 610 3 q 742 40 682 3 q 844 146 801 78 q 909 310 886 214 q 932 522 932 406 q 909 735 932 639 q 844 900 886 832 q 742 1006 801 968 q 610 1043 682 1043 q 478 1006 538 1043 q 376 900 418 968 q 310 735 333 832 q 288 522 288 639 q 310 310 288 406 q 376 146 333 214 q 478 40 418 78 q 610 3 538 3 m 407 1088 l 397 1097 l 574 1369 l 644 1369 l 822 1097 l 813 1088 l 610 1272 l 407 1088 z "},"Ö":{"ha":1219,"x_min":51,"x_max":1168,"o":"m 610 -19 q 317 48 443 -19 q 122 237 192 115 q 51 521 51 358 q 122 805 51 683 q 317 994 192 926 q 610 1061 443 1061 q 902 994 776 1061 q 1098 805 1028 926 q 1168 521 1168 683 q 1098 237 1168 358 q 902 48 1028 115 q 610 -19 776 -19 m 610 3 q 742 40 682 3 q 844 146 801 78 q 909 310 886 214 q 932 522 932 406 q 909 735 932 639 q 844 900 886 832 q 742 1006 801 968 q 610 1043 682 1043 q 478 1006 538 1043 q 376 900 418 968 q 310 735 333 832 q 288 522 288 639 q 310 310 288 406 q 376 146 333 214 q 478 40 418 78 q 610 3 538 3 m 747 1119 q 674 1150 704 1119 q 643 1224 643 1181 q 674 1297 643 1267 q 747 1328 704 1328 q 820 1297 789 1328 q 851 1224 851 1267 q 820 1150 851 1181 q 747 1119 789 1119 m 472 1119 q 399 1150 429 1119 q 368 1224 368 1181 q 399 1297 368 1267 q 472 1328 429 1328 q 545 1297 514 1328 q 576 1224 576 1267 q 545 1150 576 1181 q 472 1119 514 1119 z "},"Ò":{"ha":1219,"x_min":51,"x_max":1168,"o":"m 610 -19 q 317 48 443 -19 q 122 237 192 115 q 51 521 51 358 q 122 805 51 683 q 317 994 192 926 q 610 1061 443 1061 q 902 994 776 1061 q 1098 805 1028 926 q 1168 521 1168 683 q 1098 237 1168 358 q 902 48 1028 115 q 610 -19 776 -19 m 610 3 q 742 40 682 3 q 844 146 801 78 q 909 310 886 214 q 932 522 932 406 q 909 735 932 639 q 844 900 886 832 q 742 1006 801 968 q 610 1043 682 1043 q 478 1006 538 1043 q 376 900 418 968 q 310 735 333 832 q 288 522 288 639 q 310 310 288 406 q 376 146 333 214 q 478 40 418 78 q 610 3 538 3 m 685 1088 l 407 1282 l 407 1289 l 497 1369 l 504 1369 l 694 1101 l 685 1088 z "},"Ő":{"ha":1219,"x_min":51,"x_max":1168,"o":"m 610 -19 q 317 48 443 -19 q 122 237 192 115 q 51 521 51 358 q 122 805 51 683 q 317 994 192 926 q 610 1061 443 1061 q 902 994 776 1061 q 1098 805 1028 926 q 1168 521 1168 683 q 1098 237 1168 358 q 902 48 1028 115 q 610 -19 776 -19 m 610 3 q 742 40 682 3 q 844 146 801 78 q 909 310 886 214 q 932 522 932 406 q 909 735 932 639 q 844 900 886 832 q 742 1006 801 968 q 610 1043 682 1043 q 478 1006 538 1043 q 376 900 418 968 q 310 735 333 832 q 288 522 288 639 q 310 310 288 406 q 376 146 333 214 q 478 40 418 78 q 610 3 538 3 m 688 1088 l 678 1101 l 869 1369 l 876 1369 l 965 1289 l 965 1282 l 688 1088 m 457 1088 l 447 1101 l 638 1369 l 644 1369 l 735 1289 l 735 1282 l 457 1088 z "},"Ō":{"ha":1219,"x_min":51,"x_max":1168,"o":"m 610 -19 q 317 48 443 -19 q 122 237 192 115 q 51 521 51 358 q 122 805 51 683 q 317 994 192 926 q 610 1061 443 1061 q 902 994 776 1061 q 1098 805 1028 926 q 1168 521 1168 683 q 1098 237 1168 358 q 902 48 1028 115 q 610 -19 776 -19 m 610 3 q 742 40 682 3 q 844 146 801 78 q 909 310 886 214 q 932 522 932 406 q 909 735 932 639 q 844 900 886 832 q 742 1006 801 968 q 610 1043 682 1043 q 478 1006 538 1043 q 376 900 418 968 q 310 735 333 832 q 288 522 288 639 q 310 310 288 406 q 376 146 333 214 q 478 40 418 78 q 610 3 538 3 m 457 1185 l 457 1258 l 763 1258 l 763 1185 l 457 1185 z "},"Ø":{"ha":1219,"x_min":51,"x_max":1168,"o":"m 610 -19 q 417 8 506 -19 q 260 83 329 35 l 190 0 l 168 0 l 246 94 q 103 274 154 165 q 51 521 51 382 q 122 805 51 683 q 317 994 192 926 q 610 1061 443 1061 q 801 1035 714 1061 q 958 958 889 1008 l 1028 1042 l 1050 1042 l 972 949 q 1117 769 1065 878 q 1168 521 1168 660 q 1098 237 1168 358 q 902 48 1028 115 q 610 -19 776 -19 m 343 211 l 869 850 q 761 992 828 942 q 610 1043 694 1043 q 478 1006 538 1043 q 376 900 418 968 q 310 735 333 832 q 288 522 288 639 q 343 211 288 336 m 610 3 q 742 40 682 3 q 844 146 801 78 q 909 310 886 214 q 932 522 932 406 q 918 692 932 614 q 878 833 904 769 l 350 193 q 459 53 393 103 q 610 3 525 3 z "},"Õ":{"ha":1219,"x_min":51,"x_max":1168,"o":"m 610 -19 q 317 48 443 -19 q 122 237 192 115 q 51 521 51 358 q 122 805 51 683 q 317 994 192 926 q 610 1061 443 1061 q 902 994 776 1061 q 1098 805 1028 926 q 1168 521 1168 683 q 1098 237 1168 358 q 902 48 1028 115 q 610 -19 776 -19 m 610 3 q 742 40 682 3 q 844 146 801 78 q 909 310 886 214 q 932 522 932 406 q 909 735 932 639 q 844 900 886 832 q 742 1006 801 968 q 610 1043 682 1043 q 478 1006 538 1043 q 376 900 418 968 q 310 735 333 832 q 288 522 288 639 q 310 310 288 406 q 376 146 333 214 q 478 40 418 78 q 610 3 538 3 m 686 1118 q 622 1138 650 1118 q 567 1177 593 1157 q 510 1197 540 1197 q 461 1183 486 1197 q 418 1136 436 1168 l 404 1142 q 467 1253 429 1211 q 540 1294 504 1294 q 605 1274 578 1294 q 658 1235 632 1254 q 717 1215 683 1215 q 759 1228 738 1215 q 800 1276 781 1240 l 814 1271 q 762 1160 797 1201 q 686 1118 726 1118 z "},"Œ":{"ha":1479,"x_min":51,"x_max":1461,"o":"m 610 -19 q 317 48 443 -19 q 122 237 192 115 q 51 521 51 358 q 122 805 51 683 q 317 994 192 926 q 610 1061 443 1061 q 673 1058 647 1061 q 723 1051 699 1056 q 778 1044 747 1047 q 858 1042 810 1042 l 1394 1042 l 1436 763 l 1422 763 q 1093 1024 1381 1024 l 976 1024 l 976 622 l 1101 622 q 1213 665 1171 622 q 1254 776 1254 707 l 1268 776 l 1268 435 l 1254 435 q 1207 557 1253 510 q 1086 604 1161 604 l 976 604 l 976 107 q 1001 42 976 67 q 1065 18 1025 18 l 1132 18 q 1346 88 1267 18 q 1447 306 1425 157 l 1461 306 l 1419 0 l 858 0 q 778 -3 810 0 q 723 -10 747 -6 q 673 -17 699 -14 q 610 -19 647 -19 m 610 3 q 763 54 694 3 l 763 992 q 610 1043 694 1043 q 478 1006 538 1043 q 376 900 418 968 q 310 735 333 832 q 288 522 288 639 q 310 310 288 406 q 376 146 333 214 q 478 40 418 78 q 610 3 538 3 z "},"P":{"ha":844,"x_min":0,"x_max":821,"o":"m 0 0 l 0 14 q 81 44 50 14 q 111 125 111 75 l 111 917 q 81 997 111 967 q 0 1028 50 1028 l 0 1042 l 464 1042 q 651 1005 571 1040 q 776 907 731 969 q 821 760 821 844 q 776 612 821 675 q 648 513 731 549 q 453 478 565 478 l 325 478 l 325 125 q 356 44 325 75 q 436 14 386 14 l 439 14 l 439 0 l 0 0 m 325 496 l 407 496 q 510 530 467 496 q 578 624 554 564 q 603 760 603 683 q 578 896 603 836 q 510 990 554 956 q 406 1024 465 1024 l 325 1024 l 325 496 z "},"Þ":{"ha":821,"x_min":0,"x_max":788,"o":"m 0 0 l 0 14 l 1 14 q 82 44 51 14 q 113 125 113 75 l 113 917 q 82 997 113 967 q 1 1028 51 1028 l 0 1028 l 0 1042 l 425 1042 l 425 1028 l 424 1028 q 343 997 374 1028 q 313 917 313 967 l 313 838 l 410 838 q 608 798 524 838 q 740 688 693 758 q 788 521 788 617 q 740 355 788 426 q 608 244 693 283 q 410 204 524 204 l 313 204 l 313 125 q 343 44 313 75 q 424 14 374 14 l 425 14 l 425 0 l 0 0 m 313 218 l 367 219 q 472 258 428 219 q 541 365 517 297 q 565 521 565 433 q 541 677 565 610 q 473 783 517 744 q 368 822 429 822 l 313 822 l 313 218 z "},"Q":{"ha":1211,"x_min":51,"x_max":1311,"o":"m 1014 -221 q 719 -162 871 -221 q 439 8 567 -103 q 156 192 260 57 q 51 525 51 326 q 121 808 51 688 q 315 994 190 928 q 606 1061 440 1061 q 897 994 772 1061 q 1090 808 1021 928 q 1160 525 1160 688 q 1108 278 1160 386 q 965 99 1057 169 q 746 3 872 29 q 940 -107 839 -69 q 1135 -144 1040 -144 q 1311 -103 1235 -144 l 1310 -118 q 1181 -196 1257 -171 q 1014 -221 1104 -221 m 606 11 q 737 48 678 11 q 839 153 796 85 q 903 315 881 219 q 926 525 926 410 q 903 738 926 642 q 839 901 881 833 q 737 1006 796 968 q 606 1043 678 1043 q 474 1006 533 1043 q 374 901 415 968 q 309 738 332 833 q 286 525 286 642 q 326 255 286 371 q 438 75 365 139 q 606 11 510 11 z "},"R":{"ha":929,"x_min":0,"x_max":964,"o":"m 0 0 l 0 14 q 81 44 50 14 q 111 125 111 75 l 111 917 q 81 997 111 967 q 0 1028 50 1028 l 0 1042 l 464 1042 q 638 1008 564 1042 q 753 913 713 974 q 794 772 794 853 q 732 599 794 671 q 563 511 669 526 q 619 469 586 504 q 682 383 651 435 l 857 83 q 903 33 876 51 q 964 14 931 14 l 964 0 l 676 0 q 635 69 657 32 q 596 139 614 107 l 460 389 q 417 460 435 435 q 383 496 400 486 q 339 506 365 506 l 325 506 l 325 125 q 356 44 325 75 q 436 14 386 14 l 439 14 l 439 0 l 0 0 m 325 524 l 396 524 q 540 593 486 524 q 593 774 593 663 q 542 955 593 886 q 406 1024 490 1024 l 325 1024 l 325 524 z "},"Ŕ":{"ha":929,"x_min":0,"x_max":964,"o":"m 0 0 l 0 14 q 81 44 50 14 q 111 125 111 75 l 111 917 q 81 997 111 967 q 0 1028 50 1028 l 0 1042 l 464 1042 q 638 1008 564 1042 q 753 913 713 974 q 794 772 794 853 q 732 599 794 671 q 563 511 669 526 q 619 469 586 504 q 682 383 651 435 l 857 83 q 903 33 876 51 q 964 14 931 14 l 964 0 l 676 0 q 635 69 657 32 q 596 139 614 107 l 460 389 q 417 460 435 435 q 383 496 400 486 q 339 506 365 506 l 325 506 l 325 125 q 356 44 325 75 q 436 14 386 14 l 439 14 l 439 0 l 0 0 m 325 524 l 396 524 q 540 593 486 524 q 593 774 593 663 q 542 955 593 886 q 406 1024 490 1024 l 325 1024 l 325 524 m 294 1088 l 285 1101 l 475 1369 l 482 1369 l 572 1289 l 572 1282 l 294 1088 z "},"Ř":{"ha":929,"x_min":0,"x_max":964,"o":"m 0 0 l 0 14 q 81 44 50 14 q 111 125 111 75 l 111 917 q 81 997 111 967 q 0 1028 50 1028 l 0 1042 l 464 1042 q 638 1008 564 1042 q 753 913 713 974 q 794 772 794 853 q 732 599 794 671 q 563 511 669 526 q 619 469 586 504 q 682 383 651 435 l 857 83 q 903 33 876 51 q 964 14 931 14 l 964 0 l 676 0 q 635 69 657 32 q 596 139 614 107 l 460 389 q 417 460 435 435 q 383 496 400 486 q 339 506 365 506 l 325 506 l 325 125 q 356 44 325 75 q 436 14 386 14 l 439 14 l 439 0 l 0 0 m 325 524 l 396 524 q 540 593 486 524 q 593 774 593 663 q 542 955 593 886 q 406 1024 490 1024 l 325 1024 l 325 524 m 335 1101 l 158 1374 l 168 1383 l 371 1199 l 574 1383 l 583 1374 l 406 1101 l 335 1101 z "},"Ŗ":{"ha":929,"x_min":0,"x_max":964,"o":"m 0 0 l 0 14 q 81 44 50 14 q 111 125 111 75 l 111 917 q 81 997 111 967 q 0 1028 50 1028 l 0 1042 l 464 1042 q 638 1008 564 1042 q 753 913 713 974 q 794 772 794 853 q 732 599 794 671 q 563 511 669 526 q 619 469 586 504 q 682 383 651 435 l 857 83 q 903 33 876 51 q 964 14 931 14 l 964 0 l 676 0 q 635 69 657 32 q 596 139 614 107 l 460 389 q 417 460 435 435 q 383 496 400 486 q 339 506 365 506 l 325 506 l 325 125 q 356 44 325 75 q 436 14 386 14 l 439 14 l 439 0 l 0 0 m 325 524 l 396 524 q 540 593 486 524 q 593 774 593 663 q 542 955 593 886 q 406 1024 490 1024 l 325 1024 l 325 524 m 392 -504 l 379 -499 q 457 -411 424 -446 q 490 -331 490 -376 q 476 -294 490 -307 q 442 -274 463 -282 q 402 -257 422 -267 q 368 -229 382 -247 q 354 -178 354 -211 q 385 -101 354 -129 q 464 -72 415 -72 q 546 -106 515 -72 q 576 -199 576 -140 q 551 -313 576 -265 q 483 -406 525 -361 q 392 -504 440 -450 z "},"S":{"ha":708,"x_min":32,"x_max":690,"o":"m 326 -19 q 267 -17 290 -19 q 222 -10 244 -14 q 168 -3 200 -6 q 81 0 136 0 l 32 361 l 49 361 q 144 98 69 190 q 335 6 218 6 q 475 54 421 6 q 529 181 529 103 q 517 244 529 214 q 478 310 506 275 q 404 385 450 344 q 290 478 358 426 l 233 521 q 89 663 129 600 q 49 799 49 725 q 138 991 49 921 q 375 1061 228 1061 q 434 1058 411 1061 q 478 1051 457 1056 q 529 1044 500 1047 q 604 1042 558 1042 l 618 761 l 604 761 q 521 965 585 890 q 367 1040 457 1040 q 265 1003 303 1040 q 226 903 226 965 q 262 799 226 849 q 385 685 297 750 l 444 640 q 590 517 536 574 q 667 408 643 461 q 690 296 690 356 q 644 133 690 204 q 517 23 599 63 q 326 -19 436 -17 z "},"Ś":{"ha":708,"x_min":32,"x_max":690,"o":"m 326 -19 q 267 -17 290 -19 q 222 -10 244 -14 q 168 -3 200 -6 q 81 0 136 0 l 32 361 l 49 361 q 144 98 69 190 q 335 6 218 6 q 475 54 421 6 q 529 181 529 103 q 517 244 529 214 q 478 310 506 275 q 404 385 450 344 q 290 478 358 426 l 233 521 q 89 663 129 600 q 49 799 49 725 q 138 991 49 921 q 375 1061 228 1061 q 434 1058 411 1061 q 478 1051 457 1056 q 529 1044 500 1047 q 604 1042 558 1042 l 618 761 l 604 761 q 521 965 585 890 q 367 1040 457 1040 q 265 1003 303 1040 q 226 903 226 965 q 262 799 226 849 q 385 685 297 750 l 444 640 q 590 517 536 574 q 667 408 643 461 q 690 296 690 356 q 644 133 690 204 q 517 23 599 63 q 326 -19 436 -17 m 278 1088 l 268 1101 l 458 1369 l 465 1369 l 556 1289 l 556 1282 l 278 1088 z "},"Š":{"ha":708,"x_min":32,"x_max":690,"o":"m 326 -19 q 267 -17 290 -19 q 222 -10 244 -14 q 168 -3 200 -6 q 81 0 136 0 l 32 361 l 49 361 q 144 98 69 190 q 335 6 218 6 q 475 54 421 6 q 529 181 529 103 q 517 244 529 214 q 478 310 506 275 q 404 385 450 344 q 290 478 358 426 l 233 521 q 89 663 129 600 q 49 799 49 725 q 138 991 49 921 q 375 1061 228 1061 q 434 1058 411 1061 q 478 1051 457 1056 q 529 1044 500 1047 q 604 1042 558 1042 l 618 761 l 604 761 q 521 965 585 890 q 367 1040 457 1040 q 265 1003 303 1040 q 226 903 226 965 q 262 799 226 849 q 385 685 297 750 l 444 640 q 590 517 536 574 q 667 408 643 461 q 690 296 690 356 q 644 133 690 204 q 517 23 599 63 q 326 -19 436 -17 m 318 1101 l 142 1374 l 151 1383 l 354 1199 l 557 1383 l 567 1374 l 389 1101 l 318 1101 z "},"Ş":{"ha":708,"x_min":32,"x_max":690,"o":"m 326 -19 q 267 -17 290 -19 q 222 -10 244 -14 q 168 -3 200 -6 q 81 0 136 0 l 32 361 l 49 361 q 144 98 69 190 q 335 6 218 6 q 475 54 421 6 q 529 181 529 103 q 517 244 529 214 q 478 310 506 275 q 404 385 450 344 q 290 478 358 426 l 233 521 q 89 663 129 600 q 49 799 49 725 q 138 991 49 921 q 375 1061 228 1061 q 434 1058 411 1061 q 478 1051 457 1056 q 529 1044 500 1047 q 604 1042 558 1042 l 618 761 l 604 761 q 521 965 585 890 q 367 1040 457 1040 q 265 1003 303 1040 q 226 903 226 965 q 262 799 226 849 q 385 685 297 750 l 444 640 q 590 517 536 574 q 667 408 643 461 q 690 296 690 356 q 644 133 690 204 q 517 23 599 63 q 326 -19 436 -17 m 343 -312 q 308 -310 321 -312 q 281 -305 296 -307 q 240 -303 267 -303 l 214 -165 l 229 -165 q 324 -289 257 -289 q 367 -267 351 -289 q 383 -208 383 -246 q 360 -128 383 -162 q 304 -87 338 -94 l 304 -79 l 336 0 l 356 0 l 324 -78 q 448 -112 401 -79 q 494 -201 494 -146 q 453 -282 494 -251 q 343 -312 413 -312 z "},"Ș":{"ha":708,"x_min":32,"x_max":690,"o":"m 326 -19 q 267 -17 290 -19 q 222 -10 244 -14 q 168 -3 200 -6 q 81 0 136 0 l 32 361 l 49 361 q 144 98 69 190 q 335 6 218 6 q 475 54 421 6 q 529 181 529 103 q 517 244 529 214 q 478 310 506 275 q 404 385 450 344 q 290 478 358 426 l 233 521 q 89 663 129 600 q 49 799 49 725 q 138 991 49 921 q 375 1061 228 1061 q 434 1058 411 1061 q 478 1051 457 1056 q 529 1044 500 1047 q 604 1042 558 1042 l 618 761 l 604 761 q 521 965 585 890 q 367 1040 457 1040 q 265 1003 303 1040 q 226 903 226 965 q 262 799 226 849 q 385 685 297 750 l 444 640 q 590 517 536 574 q 667 408 643 461 q 690 296 690 356 q 644 133 690 204 q 517 23 599 63 q 326 -19 436 -17 m 281 -504 l 268 -499 q 346 -411 313 -446 q 379 -331 379 -376 q 365 -294 379 -307 q 331 -274 351 -282 q 291 -257 311 -267 q 257 -229 271 -247 q 243 -178 243 -211 q 274 -101 243 -129 q 353 -72 304 -72 q 435 -106 404 -72 q 465 -199 465 -140 q 440 -313 465 -265 q 372 -406 414 -361 q 281 -504 329 -450 z "},"ẞ":{"ha":982,"x_min":10,"x_max":960,"o":"m 669 -19 q 594 -15 622 -19 q 539 -5 567 -10 q 461 0 511 0 l 429 281 l 443 281 q 478 113 458 174 q 533 26 499 51 q 625 0 568 0 q 710 40 678 0 q 742 149 742 81 q 700 286 742 228 q 601 393 658 344 q 503 492 546 440 q 460 613 460 543 q 617 783 460 726 q 579 972 617 901 q 479 1042 542 1042 q 377 969 415 1042 q 339 776 339 897 l 339 0 l 10 0 l 11 14 l 13 14 q 93 44 63 14 q 124 125 124 75 l 124 581 q 93 661 124 631 q 13 692 63 692 l 11 692 l 10 706 l 125 706 l 126 742 q 169 910 126 839 q 287 1022 211 982 q 463 1061 363 1061 q 630 1026 557 1061 q 744 929 703 992 q 785 783 785 867 q 576 744 654 783 q 497 640 497 704 q 530 569 497 601 q 615 507 563 536 q 729 447 668 478 q 843 378 790 417 q 928 293 896 340 q 960 186 960 246 q 885 35 960 90 q 669 -19 810 -19 z "},"T":{"ha":964,"x_min":11,"x_max":956,"o":"m 261 0 l 263 14 l 264 14 q 344 44 314 14 q 375 125 375 75 l 375 1022 l 335 1022 q 201 1001 267 1022 q 89 923 136 979 q 25 761 42 867 l 11 761 l 50 1042 l 915 1042 l 956 761 l 942 761 q 877 922 925 865 q 763 1001 829 979 q 626 1022 697 1022 l 590 1022 l 590 125 q 621 44 590 75 q 701 14 651 14 l 703 0 l 261 0 z "},"Ť":{"ha":964,"x_min":11,"x_max":956,"o":"m 261 0 l 263 14 l 264 14 q 344 44 314 14 q 375 125 375 75 l 375 1022 l 335 1022 q 201 1001 267 1022 q 89 923 136 979 q 25 761 42 867 l 11 761 l 50 1042 l 915 1042 l 956 761 l 942 761 q 877 922 925 865 q 763 1001 829 979 q 626 1022 697 1022 l 590 1022 l 590 125 q 621 44 590 75 q 701 14 651 14 l 703 0 l 261 0 m 446 1101 l 269 1374 l 279 1383 l 482 1199 l 685 1383 l 694 1374 l 517 1101 l 446 1101 z "},"Ț":{"ha":964,"x_min":11,"x_max":956,"o":"m 261 0 l 263 14 l 264 14 q 344 44 314 14 q 375 125 375 75 l 375 1022 l 335 1022 q 201 1001 267 1022 q 89 923 136 979 q 25 761 42 867 l 11 761 l 50 1042 l 915 1042 l 956 761 l 942 761 q 877 922 925 865 q 763 1001 829 979 q 626 1022 697 1022 l 590 1022 l 590 125 q 621 44 590 75 q 701 14 651 14 l 703 0 l 261 0 m 408 -504 l 396 -499 q 474 -411 440 -446 q 507 -331 507 -376 q 493 -294 507 -307 q 459 -274 479 -282 q 419 -257 439 -267 q 385 -229 399 -247 q 371 -178 371 -211 q 401 -101 371 -129 q 481 -72 432 -72 q 563 -106 532 -72 q 593 -199 593 -140 q 567 -313 593 -265 q 499 -406 542 -361 q 408 -504 457 -450 z "},"U":{"ha":1035,"x_min":-7,"x_max":1042,"o":"m 511 -19 q 299 28 389 -19 q 159 162 208 75 q 110 365 110 249 l 110 917 q 79 997 110 967 q -1 1028 49 1028 l -7 1028 l -7 1042 l 440 1042 l 440 1028 l 436 1028 q 356 997 386 1028 q 325 917 325 967 l 325 365 q 401 133 325 218 q 606 47 476 47 q 811 134 736 47 q 886 365 886 221 l 886 896 q 850 990 886 956 q 754 1028 814 1025 l 754 1042 l 1042 1042 l 1042 1028 q 946 990 982 1025 q 910 896 910 956 l 910 365 q 862 163 910 249 q 724 28 814 76 q 511 -19 635 -19 z "},"Ú":{"ha":1035,"x_min":-7,"x_max":1042,"o":"m 511 -19 q 299 28 389 -19 q 159 162 208 75 q 110 365 110 249 l 110 917 q 79 997 110 967 q -1 1028 49 1028 l -7 1028 l -7 1042 l 440 1042 l 440 1028 l 436 1028 q 356 997 386 1028 q 325 917 325 967 l 325 365 q 401 133 325 218 q 606 47 476 47 q 811 134 736 47 q 886 365 886 221 l 886 896 q 850 990 886 956 q 754 1028 814 1025 l 754 1042 l 1042 1042 l 1042 1028 q 946 990 982 1025 q 910 896 910 956 l 910 365 q 862 163 910 249 q 724 28 814 76 q 511 -19 635 -19 m 483 1088 l 474 1101 l 664 1369 l 671 1369 l 761 1289 l 761 1282 l 483 1088 z "},"Ŭ":{"ha":1035,"x_min":-7,"x_max":1042,"o":"m 511 -19 q 299 28 389 -19 q 159 162 208 75 q 110 365 110 249 l 110 917 q 79 997 110 967 q -1 1028 49 1028 l -7 1028 l -7 1042 l 440 1042 l 440 1028 l 436 1028 q 356 997 386 1028 q 325 917 325 967 l 325 365 q 401 133 325 218 q 606 47 476 47 q 811 134 736 47 q 886 365 886 221 l 886 896 q 850 990 886 956 q 754 1028 814 1025 l 754 1042 l 1042 1042 l 1042 1028 q 946 990 982 1025 q 910 896 910 956 l 910 365 q 862 163 910 249 q 724 28 814 76 q 511 -19 635 -19 m 560 1139 q 431 1194 472 1139 q 389 1342 390 1250 l 403 1342 q 451 1256 406 1290 q 560 1222 497 1222 q 668 1256 622 1222 q 717 1342 714 1290 l 731 1342 q 688 1194 729 1250 q 560 1139 646 1139 z "},"Û":{"ha":1035,"x_min":-7,"x_max":1042,"o":"m 511 -19 q 299 28 389 -19 q 159 162 208 75 q 110 365 110 249 l 110 917 q 79 997 110 967 q -1 1028 49 1028 l -7 1028 l -7 1042 l 440 1042 l 440 1028 l 436 1028 q 356 997 386 1028 q 325 917 325 967 l 325 365 q 401 133 325 218 q 606 47 476 47 q 811 134 736 47 q 886 365 886 221 l 886 896 q 850 990 886 956 q 754 1028 814 1025 l 754 1042 l 1042 1042 l 1042 1028 q 946 990 982 1025 q 910 896 910 956 l 910 365 q 862 163 910 249 q 724 28 814 76 q 511 -19 635 -19 m 357 1088 l 347 1097 l 524 1369 l 594 1369 l 772 1097 l 763 1088 l 560 1272 l 357 1088 z "},"Ü":{"ha":1035,"x_min":-7,"x_max":1042,"o":"m 511 -19 q 299 28 389 -19 q 159 162 208 75 q 110 365 110 249 l 110 917 q 79 997 110 967 q -1 1028 49 1028 l -7 1028 l -7 1042 l 440 1042 l 440 1028 l 436 1028 q 356 997 386 1028 q 325 917 325 967 l 325 365 q 401 133 325 218 q 606 47 476 47 q 811 134 736 47 q 886 365 886 221 l 886 896 q 850 990 886 956 q 754 1028 814 1025 l 754 1042 l 1042 1042 l 1042 1028 q 946 990 982 1025 q 910 896 910 956 l 910 365 q 862 163 910 249 q 724 28 814 76 q 511 -19 635 -19 m 697 1119 q 624 1150 654 1119 q 593 1224 593 1181 q 624 1297 593 1267 q 697 1328 654 1328 q 770 1297 739 1328 q 801 1224 801 1267 q 770 1150 801 1181 q 697 1119 739 1119 m 422 1119 q 349 1150 379 1119 q 318 1224 318 1181 q 349 1297 318 1267 q 422 1328 379 1328 q 495 1297 464 1328 q 526 1224 526 1267 q 495 1150 526 1181 q 422 1119 464 1119 z "},"Ù":{"ha":1035,"x_min":-7,"x_max":1042,"o":"m 511 -19 q 299 28 389 -19 q 159 162 208 75 q 110 365 110 249 l 110 917 q 79 997 110 967 q -1 1028 49 1028 l -7 1028 l -7 1042 l 440 1042 l 440 1028 l 436 1028 q 356 997 386 1028 q 325 917 325 967 l 325 365 q 401 133 325 218 q 606 47 476 47 q 811 134 736 47 q 886 365 886 221 l 886 896 q 850 990 886 956 q 754 1028 814 1025 l 754 1042 l 1042 1042 l 1042 1028 q 946 990 982 1025 q 910 896 910 956 l 910 365 q 862 163 910 249 q 724 28 814 76 q 511 -19 635 -19 m 635 1088 l 357 1282 l 357 1289 l 447 1369 l 454 1369 l 644 1101 l 635 1088 z "},"Ű":{"ha":1035,"x_min":-7,"x_max":1042,"o":"m 511 -19 q 299 28 389 -19 q 159 162 208 75 q 110 365 110 249 l 110 917 q 79 997 110 967 q -1 1028 49 1028 l -7 1028 l -7 1042 l 440 1042 l 440 1028 l 436 1028 q 356 997 386 1028 q 325 917 325 967 l 325 365 q 401 133 325 218 q 606 47 476 47 q 811 134 736 47 q 886 365 886 221 l 886 896 q 850 990 886 956 q 754 1028 814 1025 l 754 1042 l 1042 1042 l 1042 1028 q 946 990 982 1025 q 910 896 910 956 l 910 365 q 862 163 910 249 q 724 28 814 76 q 511 -19 635 -19 m 638 1088 l 628 1101 l 819 1369 l 826 1369 l 915 1289 l 915 1282 l 638 1088 m 407 1088 l 397 1101 l 588 1369 l 594 1369 l 685 1289 l 685 1282 l 407 1088 z "},"Ū":{"ha":1035,"x_min":-7,"x_max":1042,"o":"m 511 -19 q 299 28 389 -19 q 159 162 208 75 q 110 365 110 249 l 110 917 q 79 997 110 967 q -1 1028 49 1028 l -7 1028 l -7 1042 l 440 1042 l 440 1028 l 436 1028 q 356 997 386 1028 q 325 917 325 967 l 325 365 q 401 133 325 218 q 606 47 476 47 q 811 134 736 47 q 886 365 886 221 l 886 896 q 850 990 886 956 q 754 1028 814 1025 l 754 1042 l 1042 1042 l 1042 1028 q 946 990 982 1025 q 910 896 910 956 l 910 365 q 862 163 910 249 q 724 28 814 76 q 511 -19 635 -19 m 407 1185 l 407 1258 l 713 1258 l 713 1185 l 407 1185 z "},"Ų":{"ha":1035,"x_min":-7,"x_max":1042,"o":"m 511 -19 q 299 28 389 -19 q 159 162 208 75 q 110 365 110 249 l 110 917 q 79 997 110 967 q -1 1028 49 1028 l -7 1028 l -7 1042 l 440 1042 l 440 1028 l 436 1028 q 356 997 386 1028 q 325 917 325 967 l 325 365 q 401 133 325 218 q 606 47 476 47 q 811 134 736 47 q 886 365 886 221 l 886 896 q 850 990 886 956 q 754 1028 814 1025 l 754 1042 l 1042 1042 l 1042 1028 q 946 990 982 1025 q 910 896 910 956 l 910 365 q 862 163 910 249 q 724 28 814 76 q 511 -19 635 -19 m 569 -312 q 458 -279 497 -312 q 418 -185 418 -246 q 477 -45 418 -99 q 632 8 536 8 l 651 8 l 651 0 q 564 -71 599 -17 q 529 -194 529 -125 q 545 -264 529 -239 q 590 -289 561 -289 q 655 -254 625 -289 q 697 -165 685 -219 l 713 -165 l 686 -303 q 626 -307 650 -303 q 601 -311 615 -310 q 569 -312 586 -312 z "},"Ů":{"ha":1035,"x_min":-7,"x_max":1042,"o":"m 511 -19 q 299 28 389 -19 q 159 162 208 75 q 110 365 110 249 l 110 917 q 79 997 110 967 q -1 1028 49 1028 l -7 1028 l -7 1042 l 440 1042 l 440 1028 l 436 1028 q 356 997 386 1028 q 325 917 325 967 l 325 365 q 401 133 325 218 q 606 47 476 47 q 811 134 736 47 q 886 365 886 221 l 886 896 q 850 990 886 956 q 754 1028 814 1025 l 754 1042 l 1042 1042 l 1042 1028 q 946 990 982 1025 q 910 896 910 956 l 910 365 q 862 163 910 249 q 724 28 814 76 q 511 -19 635 -19 m 558 1119 q 483 1150 514 1119 q 451 1224 451 1181 q 483 1297 451 1267 q 558 1328 514 1328 q 635 1297 603 1328 q 667 1224 667 1267 q 635 1150 667 1181 q 558 1119 603 1119 m 558 1146 q 613 1169 590 1146 q 636 1224 636 1192 q 613 1278 636 1256 q 558 1301 590 1301 q 504 1278 526 1301 q 482 1224 482 1256 q 504 1169 482 1192 q 558 1146 526 1146 z "},"V":{"ha":949,"x_min":-37,"x_max":983,"o":"m 463 -21 l 101 876 q -33 1028 42 1028 l -37 1028 l -37 1042 l 407 1042 l 407 1028 l 401 1028 q 317 990 338 1028 q 324 883 296 951 l 571 258 l 825 883 q 819 985 850 946 q 713 1028 788 1025 l 713 1042 l 983 1042 l 983 1028 q 930 1003 957 1026 q 880 945 903 979 q 843 876 857 911 l 476 -21 l 463 -21 z "},"W":{"ha":1393,"x_min":-37,"x_max":1428,"o":"m 458 -21 l 100 876 q -33 1028 40 1028 l -37 1028 l -37 1042 l 403 1042 l 403 1028 l 397 1028 q 314 990 335 1028 q 319 885 293 951 l 565 258 l 711 619 l 619 876 q 556 990 593 951 q 464 1028 519 1028 l 461 1028 l 461 1042 l 907 1042 l 907 1028 l 901 1028 q 824 990 842 1028 q 828 885 806 953 l 1040 258 l 1278 883 q 1273 985 1301 946 q 1174 1028 1244 1025 l 1174 1042 l 1428 1042 l 1428 1028 q 1358 992 1390 1028 q 1304 900 1325 956 l 950 -21 l 939 -21 l 719 593 l 471 -21 l 458 -21 z "},"Ẃ":{"ha":1393,"x_min":-37,"x_max":1428,"o":"m 458 -21 l 100 876 q -33 1028 40 1028 l -37 1028 l -37 1042 l 403 1042 l 403 1028 l 397 1028 q 314 990 335 1028 q 319 885 293 951 l 565 258 l 711 619 l 619 876 q 556 990 593 951 q 464 1028 519 1028 l 461 1028 l 461 1042 l 907 1042 l 907 1028 l 901 1028 q 824 990 842 1028 q 828 885 806 953 l 1040 258 l 1278 883 q 1273 985 1301 946 q 1174 1028 1244 1025 l 1174 1042 l 1428 1042 l 1428 1028 q 1358 992 1390 1028 q 1304 900 1325 956 l 950 -21 l 939 -21 l 719 593 l 471 -21 l 458 -21 m 649 1088 l 639 1101 l 829 1369 l 836 1369 l 926 1289 l 926 1282 l 649 1088 z "},"Ŵ":{"ha":1393,"x_min":-37,"x_max":1428,"o":"m 458 -21 l 100 876 q -33 1028 40 1028 l -37 1028 l -37 1042 l 403 1042 l 403 1028 l 397 1028 q 314 990 335 1028 q 319 885 293 951 l 565 258 l 711 619 l 619 876 q 556 990 593 951 q 464 1028 519 1028 l 461 1028 l 461 1042 l 907 1042 l 907 1028 l 901 1028 q 824 990 842 1028 q 828 885 806 953 l 1040 258 l 1278 883 q 1273 985 1301 946 q 1174 1028 1244 1025 l 1174 1042 l 1428 1042 l 1428 1028 q 1358 992 1390 1028 q 1304 900 1325 956 l 950 -21 l 939 -21 l 719 593 l 471 -21 l 458 -21 m 522 1088 l 513 1097 l 689 1369 l 760 1369 l 938 1097 l 928 1088 l 725 1272 l 522 1088 z "},"Ẅ":{"ha":1393,"x_min":-37,"x_max":1428,"o":"m 458 -21 l 100 876 q -33 1028 40 1028 l -37 1028 l -37 1042 l 403 1042 l 403 1028 l 397 1028 q 314 990 335 1028 q 319 885 293 951 l 565 258 l 711 619 l 619 876 q 556 990 593 951 q 464 1028 519 1028 l 461 1028 l 461 1042 l 907 1042 l 907 1028 l 901 1028 q 824 990 842 1028 q 828 885 806 953 l 1040 258 l 1278 883 q 1273 985 1301 946 q 1174 1028 1244 1025 l 1174 1042 l 1428 1042 l 1428 1028 q 1358 992 1390 1028 q 1304 900 1325 956 l 950 -21 l 939 -21 l 719 593 l 471 -21 l 458 -21 m 863 1119 q 789 1150 819 1119 q 758 1224 758 1181 q 789 1297 758 1267 q 863 1328 819 1328 q 935 1297 904 1328 q 967 1224 967 1267 q 935 1150 967 1181 q 863 1119 904 1119 m 588 1119 q 514 1150 544 1119 q 483 1224 483 1181 q 514 1297 483 1267 q 588 1328 544 1328 q 660 1297 629 1328 q 692 1224 692 1267 q 660 1150 692 1181 q 588 1119 629 1119 z "},"Ẁ":{"ha":1393,"x_min":-37,"x_max":1428,"o":"m 458 -21 l 100 876 q -33 1028 40 1028 l -37 1028 l -37 1042 l 403 1042 l 403 1028 l 397 1028 q 314 990 335 1028 q 319 885 293 951 l 565 258 l 711 619 l 619 876 q 556 990 593 951 q 464 1028 519 1028 l 461 1028 l 461 1042 l 907 1042 l 907 1028 l 901 1028 q 824 990 842 1028 q 828 885 806 953 l 1040 258 l 1278 883 q 1273 985 1301 946 q 1174 1028 1244 1025 l 1174 1042 l 1428 1042 l 1428 1028 q 1358 992 1390 1028 q 1304 900 1325 956 l 950 -21 l 939 -21 l 719 593 l 471 -21 l 458 -21 m 800 1088 l 522 1282 l 522 1289 l 613 1369 l 619 1369 l 810 1101 l 800 1088 z "},"X":{"ha":982,"x_min":-37,"x_max":1017,"o":"m -37 0 l -37 14 q 55 51 3 17 q 147 143 107 85 q 216 238 181 190 q 283 332 251 285 q 343 415 313 374 q 401 500 374 457 l 300 674 q 256 747 276 714 q 221 801 236 779 q 127 940 164 892 q 63 1007 90 988 q 0 1028 35 1026 l 0 1042 l 478 1042 l 478 1028 q 403 1001 422 1025 q 390 940 383 976 q 419 863 397 903 q 450 813 433 840 q 486 751 467 785 l 569 613 l 749 863 q 785 978 799 933 q 696 1028 771 1022 l 694 1028 l 694 1042 l 983 1042 l 983 1028 q 892 991 943 1025 q 799 899 840 957 l 579 596 q 658 469 619 531 q 725 360 696 407 q 765 292 754 313 q 874 128 832 189 q 949 42 917 68 q 1017 14 982 17 l 1017 0 l 539 0 l 539 14 q 623 63 608 14 q 597 179 638 113 q 550 262 579 213 q 485 369 521 311 q 415 483 450 426 l 414 482 l 190 169 q 160 63 146 108 q 250 14 175 18 l 251 14 l 251 0 l -37 0 z "},"Y":{"ha":888,"x_min":-37,"x_max":922,"o":"m 243 0 l 244 14 l 247 14 q 328 44 297 14 q 358 125 358 75 l 358 597 l 67 975 q 24 1013 49 999 q -36 1028 0 1028 l -37 1028 l -37 1042 l 433 1042 l 433 1028 q 340 984 357 1028 q 365 881 322 940 l 546 636 l 714 863 q 754 981 767 935 q 658 1028 742 1028 l 658 1042 l 922 1042 l 922 1028 q 838 986 875 1025 q 754 885 801 947 l 560 622 l 560 125 q 590 45 560 76 q 668 14 621 14 l 671 14 l 672 0 l 243 0 z "},"Ý":{"ha":888,"x_min":-37,"x_max":922,"o":"m 243 0 l 244 14 l 247 14 q 328 44 297 14 q 358 125 358 75 l 358 597 l 67 975 q 24 1013 49 999 q -36 1028 0 1028 l -37 1028 l -37 1042 l 433 1042 l 433 1028 q 340 984 357 1028 q 365 881 322 940 l 546 636 l 714 863 q 754 981 767 935 q 658 1028 742 1028 l 658 1042 l 922 1042 l 922 1028 q 838 986 875 1025 q 754 885 801 947 l 560 622 l 560 125 q 590 45 560 76 q 668 14 621 14 l 671 14 l 672 0 l 243 0 m 410 1088 l 400 1101 l 590 1369 l 597 1369 l 688 1289 l 688 1282 l 410 1088 z "},"Ŷ":{"ha":888,"x_min":-37,"x_max":922,"o":"m 243 0 l 244 14 l 247 14 q 328 44 297 14 q 358 125 358 75 l 358 597 l 67 975 q 24 1013 49 999 q -36 1028 0 1028 l -37 1028 l -37 1042 l 433 1042 l 433 1028 q 340 984 357 1028 q 365 881 322 940 l 546 636 l 714 863 q 754 981 767 935 q 658 1028 742 1028 l 658 1042 l 922 1042 l 922 1028 q 838 986 875 1025 q 754 885 801 947 l 560 622 l 560 125 q 590 45 560 76 q 668 14 621 14 l 671 14 l 672 0 l 243 0 m 283 1088 l 274 1097 l 450 1369 l 521 1369 l 699 1097 l 689 1088 l 486 1272 l 283 1088 z "},"Ÿ":{"ha":888,"x_min":-37,"x_max":922,"o":"m 243 0 l 244 14 l 247 14 q 328 44 297 14 q 358 125 358 75 l 358 597 l 67 975 q 24 1013 49 999 q -36 1028 0 1028 l -37 1028 l -37 1042 l 433 1042 l 433 1028 q 340 984 357 1028 q 365 881 322 940 l 546 636 l 714 863 q 754 981 767 935 q 658 1028 742 1028 l 658 1042 l 922 1042 l 922 1028 q 838 986 875 1025 q 754 885 801 947 l 560 622 l 560 125 q 590 45 560 76 q 668 14 621 14 l 671 14 l 672 0 l 243 0 m 624 1119 q 550 1150 581 1119 q 519 1224 519 1181 q 550 1297 519 1267 q 624 1328 581 1328 q 697 1297 665 1328 q 728 1224 728 1267 q 697 1150 728 1181 q 624 1119 665 1119 m 349 1119 q 275 1150 306 1119 q 244 1224 244 1181 q 275 1297 244 1267 q 349 1328 306 1328 q 422 1297 390 1328 q 453 1224 453 1267 q 422 1150 453 1181 q 349 1119 390 1119 z "},"Ỳ":{"ha":888,"x_min":-37,"x_max":922,"o":"m 243 0 l 244 14 l 247 14 q 328 44 297 14 q 358 125 358 75 l 358 597 l 67 975 q 24 1013 49 999 q -36 1028 0 1028 l -37 1028 l -37 1042 l 433 1042 l 433 1028 q 340 984 357 1028 q 365 881 322 940 l 546 636 l 714 863 q 754 981 767 935 q 658 1028 742 1028 l 658 1042 l 922 1042 l 922 1028 q 838 986 875 1025 q 754 885 801 947 l 560 622 l 560 125 q 590 45 560 76 q 668 14 621 14 l 671 14 l 672 0 l 243 0 m 561 1088 l 283 1282 l 283 1289 l 374 1369 l 381 1369 l 571 1101 l 561 1088 z "},"Z":{"ha":792,"x_min":1,"x_max":792,"o":"m 1 0 l 1 14 l 508 1024 l 438 1024 q 205 958 290 1024 q 101 761 119 892 l 88 761 l 129 1042 l 736 1042 l 736 1028 l 231 18 l 463 18 q 676 86 597 18 q 778 308 756 154 l 792 308 l 750 0 l 1 0 z "},"Ź":{"ha":792,"x_min":1,"x_max":792,"o":"m 1 0 l 1 14 l 508 1024 l 438 1024 q 205 958 290 1024 q 101 761 119 892 l 88 761 l 129 1042 l 736 1042 l 736 1028 l 231 18 l 463 18 q 676 86 597 18 q 778 308 756 154 l 792 308 l 750 0 l 1 0 m 347 1088 l 338 1101 l 528 1369 l 535 1369 l 625 1289 l 625 1282 l 347 1088 z "},"Ž":{"ha":792,"x_min":1,"x_max":792,"o":"m 1 0 l 1 14 l 508 1024 l 438 1024 q 205 958 290 1024 q 101 761 119 892 l 88 761 l 129 1042 l 736 1042 l 736 1028 l 231 18 l 463 18 q 676 86 597 18 q 778 308 756 154 l 792 308 l 750 0 l 1 0 m 388 1101 l 211 1374 l 221 1383 l 424 1199 l 626 1383 l 636 1374 l 458 1101 l 388 1101 z "},"Ż":{"ha":792,"x_min":1,"x_max":792,"o":"m 1 0 l 1 14 l 508 1024 l 438 1024 q 205 958 290 1024 q 101 761 119 892 l 88 761 l 129 1042 l 736 1042 l 736 1028 l 231 18 l 463 18 q 676 86 597 18 q 778 308 756 154 l 792 308 l 750 0 l 1 0 m 422 1126 q 352 1155 382 1126 q 322 1224 322 1183 q 352 1292 322 1264 q 422 1321 382 1321 q 493 1292 463 1321 q 524 1224 524 1264 q 493 1156 524 1185 q 422 1126 463 1126 z "},"a":{"ha":765,"x_min":43,"x_max":788,"o":"m 231 -19 q 94 26 146 -19 q 43 147 43 72 q 54 208 43 179 q 96 264 65 236 q 183 322 128 292 q 331 385 239 351 l 460 432 l 460 536 q 435 662 460 615 q 365 708 410 708 q 276 639 313 707 q 226 450 239 571 l 76 536 q 149 636 100 593 q 260 703 197 679 q 393 726 324 726 q 585 660 511 726 q 660 481 660 594 l 660 146 q 714 65 660 65 q 776 100 746 65 l 788 90 q 700 11 751 42 q 600 -19 649 -19 q 509 17 547 -19 q 461 113 471 53 q 342 12 393 43 q 231 -19 292 -19 m 335 67 q 394 82 365 67 q 458 132 422 97 l 460 414 l 404 393 q 296 340 333 367 q 244 279 258 313 q 229 203 229 246 q 259 105 229 143 q 335 67 289 67 z "},"á":{"ha":765,"x_min":43,"x_max":788,"o":"m 231 -19 q 94 26 146 -19 q 43 147 43 72 q 54 208 43 179 q 96 264 65 236 q 183 322 128 292 q 331 385 239 351 l 460 432 l 460 536 q 435 662 460 615 q 365 708 410 708 q 276 639 313 707 q 226 450 239 571 l 76 536 q 149 636 100 593 q 260 703 197 679 q 393 726 324 726 q 585 660 511 726 q 660 481 660 594 l 660 146 q 714 65 660 65 q 776 100 746 65 l 788 90 q 700 11 751 42 q 600 -19 649 -19 q 509 17 547 -19 q 461 113 471 53 q 342 12 393 43 q 231 -19 292 -19 m 335 67 q 394 82 365 67 q 458 132 422 97 l 460 414 l 404 393 q 296 340 333 367 q 244 279 258 313 q 229 203 229 246 q 259 105 229 143 q 335 67 289 67 m 276 807 l 267 821 l 457 1089 l 464 1089 l 554 1008 l 554 1001 l 276 807 z "},"ă":{"ha":765,"x_min":43,"x_max":788,"o":"m 231 -19 q 94 26 146 -19 q 43 147 43 72 q 54 208 43 179 q 96 264 65 236 q 183 322 128 292 q 331 385 239 351 l 460 432 l 460 536 q 435 662 460 615 q 365 708 410 708 q 276 639 313 707 q 226 450 239 571 l 76 536 q 149 636 100 593 q 260 703 197 679 q 393 726 324 726 q 585 660 511 726 q 660 481 660 594 l 660 146 q 714 65 660 65 q 776 100 746 65 l 788 90 q 700 11 751 42 q 600 -19 649 -19 q 509 17 547 -19 q 461 113 471 53 q 342 12 393 43 q 231 -19 292 -19 m 335 67 q 394 82 365 67 q 458 132 422 97 l 460 414 l 404 393 q 296 340 333 367 q 244 279 258 313 q 229 203 229 246 q 259 105 229 143 q 335 67 289 67 m 369 858 q 241 914 282 858 q 199 1061 200 969 l 213 1061 q 261 976 215 1010 q 369 942 307 942 q 478 976 432 942 q 526 1061 524 1010 l 540 1061 q 497 914 539 969 q 369 858 456 858 z "},"ǎ":{"ha":765,"x_min":43,"x_max":788,"o":"m 231 -19 q 94 26 146 -19 q 43 147 43 72 q 54 208 43 179 q 96 264 65 236 q 183 322 128 292 q 331 385 239 351 l 460 432 l 460 536 q 435 662 460 615 q 365 708 410 708 q 276 639 313 707 q 226 450 239 571 l 76 536 q 149 636 100 593 q 260 703 197 679 q 393 726 324 726 q 585 660 511 726 q 660 481 660 594 l 660 146 q 714 65 660 65 q 776 100 746 65 l 788 90 q 700 11 751 42 q 600 -19 649 -19 q 509 17 547 -19 q 461 113 471 53 q 342 12 393 43 q 231 -19 292 -19 m 335 67 q 394 82 365 67 q 458 132 422 97 l 460 414 l 404 393 q 296 340 333 367 q 244 279 258 313 q 229 203 229 246 q 259 105 229 143 q 335 67 289 67 m 333 807 l 157 1079 l 167 1089 l 369 904 l 572 1089 l 582 1079 l 404 807 l 333 807 z "},"â":{"ha":765,"x_min":43,"x_max":788,"o":"m 231 -19 q 94 26 146 -19 q 43 147 43 72 q 54 208 43 179 q 96 264 65 236 q 183 322 128 292 q 331 385 239 351 l 460 432 l 460 536 q 435 662 460 615 q 365 708 410 708 q 276 639 313 707 q 226 450 239 571 l 76 536 q 149 636 100 593 q 260 703 197 679 q 393 726 324 726 q 585 660 511 726 q 660 481 660 594 l 660 146 q 714 65 660 65 q 776 100 746 65 l 788 90 q 700 11 751 42 q 600 -19 649 -19 q 509 17 547 -19 q 461 113 471 53 q 342 12 393 43 q 231 -19 292 -19 m 335 67 q 394 82 365 67 q 458 132 422 97 l 460 414 l 404 393 q 296 340 333 367 q 244 279 258 313 q 229 203 229 246 q 259 105 229 143 q 335 67 289 67 m 167 807 l 157 817 l 333 1089 l 404 1089 l 582 817 l 572 807 l 369 992 l 167 807 z "},"ä":{"ha":765,"x_min":43,"x_max":788,"o":"m 231 -19 q 94 26 146 -19 q 43 147 43 72 q 54 208 43 179 q 96 264 65 236 q 183 322 128 292 q 331 385 239 351 l 460 432 l 460 536 q 435 662 460 615 q 365 708 410 708 q 276 639 313 707 q 226 450 239 571 l 76 536 q 149 636 100 593 q 260 703 197 679 q 393 726 324 726 q 585 660 511 726 q 660 481 660 594 l 660 146 q 714 65 660 65 q 776 100 746 65 l 788 90 q 700 11 751 42 q 600 -19 649 -19 q 509 17 547 -19 q 461 113 471 53 q 342 12 393 43 q 231 -19 292 -19 m 335 67 q 394 82 365 67 q 458 132 422 97 l 460 414 l 404 393 q 296 340 333 367 q 244 279 258 313 q 229 203 229 246 q 259 105 229 143 q 335 67 289 67 m 507 839 q 433 869 464 839 q 403 943 403 900 q 433 1017 403 986 q 507 1047 464 1047 q 580 1017 549 1047 q 611 943 611 986 q 580 869 611 900 q 507 839 549 839 m 232 839 q 158 869 189 839 q 128 943 128 900 q 158 1017 128 986 q 232 1047 189 1047 q 305 1017 274 1047 q 336 943 336 986 q 305 869 336 900 q 232 839 274 839 z "},"à":{"ha":765,"x_min":43,"x_max":788,"o":"m 231 -19 q 94 26 146 -19 q 43 147 43 72 q 54 208 43 179 q 96 264 65 236 q 183 322 128 292 q 331 385 239 351 l 460 432 l 460 536 q 435 662 460 615 q 365 708 410 708 q 276 639 313 707 q 226 450 239 571 l 76 536 q 149 636 100 593 q 260 703 197 679 q 393 726 324 726 q 585 660 511 726 q 660 481 660 594 l 660 146 q 714 65 660 65 q 776 100 746 65 l 788 90 q 700 11 751 42 q 600 -19 649 -19 q 509 17 547 -19 q 461 113 471 53 q 342 12 393 43 q 231 -19 292 -19 m 335 67 q 394 82 365 67 q 458 132 422 97 l 460 414 l 404 393 q 296 340 333 367 q 244 279 258 313 q 229 203 229 246 q 259 105 229 143 q 335 67 289 67 m 461 807 l 183 1001 l 183 1008 l 274 1089 l 281 1089 l 471 821 l 461 807 z "},"ā":{"ha":765,"x_min":43,"x_max":788,"o":"m 231 -19 q 94 26 146 -19 q 43 147 43 72 q 54 208 43 179 q 96 264 65 236 q 183 322 128 292 q 331 385 239 351 l 460 432 l 460 536 q 435 662 460 615 q 365 708 410 708 q 276 639 313 707 q 226 450 239 571 l 76 536 q 149 636 100 593 q 260 703 197 679 q 393 726 324 726 q 585 660 511 726 q 660 481 660 594 l 660 146 q 714 65 660 65 q 776 100 746 65 l 788 90 q 700 11 751 42 q 600 -19 649 -19 q 509 17 547 -19 q 461 113 471 53 q 342 12 393 43 q 231 -19 292 -19 m 335 67 q 394 82 365 67 q 458 132 422 97 l 460 414 l 404 393 q 296 340 333 367 q 244 279 258 313 q 229 203 229 246 q 259 105 229 143 q 335 67 289 67 m 217 932 l 217 1006 l 522 1006 l 522 932 l 217 932 z "},"ą":{"ha":765,"x_min":43,"x_max":788,"o":"m 231 -19 q 94 26 146 -19 q 43 147 43 72 q 54 208 43 179 q 96 264 65 236 q 183 322 128 292 q 331 385 239 351 l 460 432 l 460 536 q 435 662 460 615 q 365 708 410 708 q 276 639 313 707 q 226 450 239 571 l 76 536 q 149 636 100 593 q 260 703 197 679 q 393 726 324 726 q 585 660 511 726 q 660 481 660 594 l 660 146 q 714 65 660 65 q 776 100 746 65 l 788 90 q 700 11 751 42 q 600 -19 649 -19 q 509 17 547 -19 q 461 113 471 53 q 342 12 393 43 q 231 -19 292 -19 m 335 67 q 394 82 365 67 q 458 132 422 97 l 460 414 l 404 393 q 296 340 333 367 q 244 279 258 313 q 229 203 229 246 q 259 105 229 143 q 335 67 289 67 m 607 -311 q 495 -278 535 -311 q 456 -183 456 -244 q 515 -44 456 -97 q 669 10 574 10 l 689 10 l 689 1 q 601 -69 636 -15 q 567 -193 567 -124 q 583 -262 567 -237 q 628 -287 599 -287 q 692 -253 663 -287 q 735 -164 722 -218 l 750 -164 l 724 -301 q 664 -306 688 -301 q 638 -310 653 -308 q 607 -311 624 -311 z "},"å":{"ha":765,"x_min":43,"x_max":788,"o":"m 231 -19 q 94 26 146 -19 q 43 147 43 72 q 54 208 43 179 q 96 264 65 236 q 183 322 128 292 q 331 385 239 351 l 460 432 l 460 536 q 435 662 460 615 q 365 708 410 708 q 276 639 313 707 q 226 450 239 571 l 76 536 q 149 636 100 593 q 260 703 197 679 q 393 726 324 726 q 585 660 511 726 q 660 481 660 594 l 660 146 q 714 65 660 65 q 776 100 746 65 l 788 90 q 700 11 751 42 q 600 -19 649 -19 q 509 17 547 -19 q 461 113 471 53 q 342 12 393 43 q 231 -19 292 -19 m 335 67 q 394 82 365 67 q 458 132 422 97 l 460 414 l 404 393 q 296 340 333 367 q 244 279 258 313 q 229 203 229 246 q 259 105 229 143 q 335 67 289 67 m 368 853 q 292 883 324 853 q 261 957 261 914 q 292 1031 261 1000 q 368 1061 324 1061 q 444 1031 413 1061 q 476 957 476 1000 q 444 883 476 914 q 368 853 413 853 m 368 879 q 423 902 400 879 q 446 957 446 925 q 423 1012 446 989 q 368 1035 400 1035 q 314 1012 336 1035 q 292 957 292 989 q 314 902 292 925 q 368 879 336 879 z "},"ã":{"ha":765,"x_min":43,"x_max":788,"o":"m 231 -19 q 94 26 146 -19 q 43 147 43 72 q 54 208 43 179 q 96 264 65 236 q 183 322 128 292 q 331 385 239 351 l 460 432 l 460 536 q 435 662 460 615 q 365 708 410 708 q 276 639 313 707 q 226 450 239 571 l 76 536 q 149 636 100 593 q 260 703 197 679 q 393 726 324 726 q 585 660 511 726 q 660 481 660 594 l 660 146 q 714 65 660 65 q 776 100 746 65 l 788 90 q 700 11 751 42 q 600 -19 649 -19 q 509 17 547 -19 q 461 113 471 53 q 342 12 393 43 q 231 -19 292 -19 m 335 67 q 394 82 365 67 q 458 132 422 97 l 460 414 l 404 393 q 296 340 333 367 q 244 279 258 313 q 229 203 229 246 q 259 105 229 143 q 335 67 289 67 m 446 851 q 381 871 410 851 q 326 910 353 890 q 269 931 300 931 q 221 916 246 931 q 178 869 196 901 l 164 875 q 226 986 189 944 q 300 1028 264 1028 q 365 1008 338 1028 q 417 968 392 988 q 476 949 443 949 q 519 961 497 949 q 560 1010 540 974 l 574 1004 q 522 893 557 935 q 446 851 486 851 z "},"æ":{"ha":1147,"x_min":43,"x_max":1114,"o":"m 225 -19 q 94 26 144 -19 q 43 147 43 72 q 68 232 43 196 q 155 304 93 268 q 326 385 217 340 l 478 446 l 478 536 q 381 707 478 707 q 281 638 322 707 q 226 450 239 568 l 76 533 q 195 676 117 626 q 382 725 274 725 q 593 658 518 725 q 800 725 679 725 q 952 692 885 725 q 1060 598 1019 658 q 1101 458 1100 538 l 1101 438 l 636 438 l 636 431 q 665 260 636 335 q 748 142 694 185 q 874 100 801 100 q 1000 135 939 100 q 1101 228 1061 169 l 1114 224 q 990 47 1078 111 q 789 -17 903 -17 q 618 31 690 -17 q 515 165 546 79 q 440 72 486 114 q 339 5 394 29 q 225 -19 283 -19 m 638 458 l 919 458 q 883 638 919 571 q 785 704 847 704 q 683 638 724 704 q 638 458 643 571 m 338 64 q 429 96 382 64 q 508 181 476 128 q 478 354 478 256 l 478 426 l 403 394 q 267 311 307 354 q 226 206 226 268 q 257 102 226 140 q 338 64 288 64 z "},"b":{"ha":810,"x_min":-49,"x_max":764,"o":"m 64 -19 l 64 917 q 33 997 64 967 q -49 1028 1 1028 l -49 1042 l 93 1042 q 206 1057 175 1042 q 250 1094 236 1072 l 264 1094 l 264 589 q 353 689 296 651 q 481 726 411 726 q 626 678 563 726 q 727 546 690 629 q 764 356 764 463 q 723 160 764 244 q 608 28 682 75 q 436 -19 535 -19 q 214 118 271 -19 l 78 -19 l 64 -19 m 396 4 q 507 96 469 4 q 544 365 544 188 q 515 596 544 521 q 424 671 486 671 q 326 631 368 671 q 264 540 283 590 l 264 192 q 304 55 269 106 q 396 4 339 4 z "},"c":{"ha":744,"x_min":46,"x_max":711,"o":"m 369 -19 q 201 27 275 -19 q 87 157 128 74 q 46 347 46 240 q 92 544 46 458 q 217 677 138 629 q 397 725 297 725 q 591 662 514 725 q 683 490 668 599 l 517 397 q 481 622 517 539 q 379 704 444 704 q 302 668 335 704 q 252 571 269 632 q 235 435 235 510 q 264 266 235 339 q 346 152 293 193 q 471 111 399 111 q 598 144 538 111 q 697 235 658 178 l 711 231 q 636 99 688 156 q 516 12 585 43 q 369 -19 447 -19 z "},"ć":{"ha":744,"x_min":46,"x_max":711,"o":"m 369 -19 q 201 27 275 -19 q 87 157 128 74 q 46 347 46 240 q 92 544 46 458 q 217 677 138 629 q 397 725 297 725 q 591 662 514 725 q 683 490 668 599 l 517 397 q 481 622 517 539 q 379 704 444 704 q 302 668 335 704 q 252 571 269 632 q 235 435 235 510 q 264 266 235 339 q 346 152 293 193 q 471 111 399 111 q 598 144 538 111 q 697 235 658 178 l 711 231 q 636 99 688 156 q 516 12 585 43 q 369 -19 447 -19 m 279 807 l 269 821 l 460 1089 l 467 1089 l 557 1008 l 557 1001 l 279 807 z "},"č":{"ha":744,"x_min":46,"x_max":711,"o":"m 369 -19 q 201 27 275 -19 q 87 157 128 74 q 46 347 46 240 q 92 544 46 458 q 217 677 138 629 q 397 725 297 725 q 591 662 514 725 q 683 490 668 599 l 517 397 q 481 622 517 539 q 379 704 444 704 q 302 668 335 704 q 252 571 269 632 q 235 435 235 510 q 264 266 235 339 q 346 152 293 193 q 471 111 399 111 q 598 144 538 111 q 697 235 658 178 l 711 231 q 636 99 688 156 q 516 12 585 43 q 369 -19 447 -19 m 336 807 l 160 1079 l 169 1089 l 372 904 l 575 1089 l 585 1079 l 407 807 l 336 807 z "},"ç":{"ha":744,"x_min":46,"x_max":711,"o":"m 369 -19 q 201 27 275 -19 q 87 157 128 74 q 46 347 46 240 q 92 544 46 458 q 217 677 138 629 q 397 725 297 725 q 591 662 514 725 q 683 490 668 599 l 517 397 q 481 622 517 539 q 379 704 444 704 q 302 668 335 704 q 252 571 269 632 q 235 435 235 510 q 264 266 235 339 q 346 152 293 193 q 471 111 399 111 q 598 144 538 111 q 697 235 658 178 l 711 231 q 636 99 688 156 q 516 12 585 43 q 369 -19 447 -19 m 397 -312 q 363 -310 375 -312 q 335 -305 350 -307 q 294 -303 321 -303 l 268 -165 l 283 -165 q 378 -289 311 -289 q 422 -267 406 -289 q 438 -208 438 -246 q 415 -128 438 -162 q 358 -87 392 -94 l 358 -79 l 390 0 l 410 0 l 378 -78 q 502 -112 456 -79 q 549 -201 549 -146 q 508 -282 549 -251 q 397 -312 467 -312 z "},"ċ":{"ha":744,"x_min":46,"x_max":711,"o":"m 369 -19 q 201 27 275 -19 q 87 157 128 74 q 46 347 46 240 q 92 544 46 458 q 217 677 138 629 q 397 725 297 725 q 591 662 514 725 q 683 490 668 599 l 517 397 q 481 622 517 539 q 379 704 444 704 q 302 668 335 704 q 252 571 269 632 q 235 435 235 510 q 264 266 235 339 q 346 152 293 193 q 471 111 399 111 q 598 144 538 111 q 697 235 658 178 l 711 231 q 636 99 688 156 q 516 12 585 43 q 369 -19 447 -19 m 372 846 q 290 878 322 846 q 257 961 257 911 q 290 1044 257 1011 q 372 1076 322 1076 q 453 1043 421 1076 q 486 961 486 1010 q 453 879 486 913 q 372 846 421 846 z "},"d":{"ha":840,"x_min":49,"x_max":864,"o":"m 557 -53 l 556 144 q 456 26 522 72 q 313 -21 389 -21 q 178 26 238 -21 q 83 156 118 74 q 49 343 49 239 q 92 546 49 460 q 214 678 136 632 q 393 725 292 725 q 486 708 450 725 q 551 649 522 690 l 551 917 q 520 997 551 967 q 439 1028 489 1028 l 439 1042 l 581 1042 q 686 1056 650 1042 q 738 1094 722 1069 l 751 1094 l 751 125 q 782 44 751 75 q 864 14 813 14 l 864 0 l 722 0 q 626 -12 661 0 q 571 -53 590 -25 l 557 -53 m 389 35 q 453 55 421 35 q 513 108 486 75 q 551 179 539 142 l 551 518 q 510 651 544 601 q 422 701 476 701 q 310 610 350 701 q 271 339 271 518 q 389 35 271 35 z "},"ð":{"ha":850,"x_min":46,"x_max":796,"o":"m 422 -19 q 225 25 310 -19 q 93 150 140 69 q 46 338 46 231 q 90 524 46 444 q 215 649 135 604 q 403 694 296 694 q 494 678 451 694 q 557 635 538 663 q 517 752 542 693 q 461 860 492 811 l 249 788 l 244 800 l 454 871 q 385 956 426 914 q 296 1035 343 999 q 203 1093 249 1071 l 208 1106 q 335 1056 271 1088 q 459 985 400 1024 q 561 907 518 946 l 713 958 l 717 946 l 571 897 q 690 744 639 832 q 768 559 740 657 q 796 361 796 461 q 751 158 796 243 q 622 26 706 72 q 422 -19 538 -19 m 424 -3 q 508 44 472 -3 q 562 169 543 92 q 581 339 581 247 q 560 517 581 440 q 505 636 540 593 q 425 679 469 679 q 342 633 378 679 q 288 510 307 588 q 268 339 268 433 q 288 165 268 242 q 344 42 308 88 q 424 -3 379 -3 z "},"ď":{"ha":840,"x_min":49,"x_max":1007,"o":"m 557 -53 l 556 144 q 456 26 522 72 q 313 -21 389 -21 q 178 26 238 -21 q 83 156 118 74 q 49 343 49 239 q 92 546 49 460 q 214 678 136 632 q 393 725 292 725 q 486 708 450 725 q 551 649 522 690 l 551 917 q 520 997 551 967 q 439 1028 489 1028 l 439 1042 l 581 1042 q 686 1056 650 1042 q 738 1094 722 1069 l 751 1094 l 751 125 q 782 44 751 75 q 864 14 813 14 l 864 0 l 722 0 q 626 -12 661 0 q 571 -53 590 -25 l 557 -53 m 389 35 q 453 55 421 35 q 513 108 486 75 q 551 179 539 142 l 551 518 q 510 651 544 601 q 422 701 476 701 q 310 610 350 701 q 271 339 271 518 q 389 35 271 35 m 822 740 l 814 756 q 865 791 844 775 q 897 821 886 807 q 921 874 921 847 q 900 915 921 901 q 853 938 879 928 q 805 967 825 947 q 785 1025 785 988 q 815 1101 785 1072 q 893 1131 844 1131 q 976 1094 946 1131 q 1007 992 1007 1058 q 967 866 1007 922 q 822 740 926 810 z "},"đ":{"ha":835,"x_min":49,"x_max":858,"o":"m 551 -39 l 550 144 q 450 26 517 72 q 307 -21 383 -21 q 175 26 233 -21 q 83 154 117 72 q 49 343 49 236 q 91 547 49 461 q 210 678 133 632 q 388 725 286 725 q 481 708 444 725 q 546 649 517 690 l 546 839 l 333 839 l 333 860 l 546 860 l 546 917 q 515 997 546 967 q 433 1028 483 1028 l 433 1042 l 575 1042 q 681 1056 644 1042 q 732 1094 717 1069 l 746 1094 l 746 860 l 832 860 l 832 839 l 746 839 l 746 144 q 772 54 746 82 q 858 26 797 26 l 858 14 l 717 14 q 558 -39 578 14 l 551 -39 m 383 35 q 448 55 415 35 q 507 108 481 75 q 546 179 533 142 l 546 518 q 505 651 539 601 q 417 701 471 701 q 304 610 344 701 q 265 339 265 518 q 383 35 265 35 z "},"e":{"ha":746,"x_min":46,"x_max":713,"o":"m 374 -17 q 203 31 278 -17 q 88 162 129 78 q 46 354 46 246 q 92 549 46 465 q 217 678 138 632 q 399 725 297 725 q 549 692 483 725 q 655 598 615 658 q 700 458 694 538 l 701 438 l 235 438 l 235 431 q 300 195 235 283 q 475 107 365 107 q 602 140 542 107 q 700 228 663 172 l 713 224 q 639 99 689 153 q 521 14 589 44 q 374 -17 453 -17 m 236 458 l 518 458 q 483 636 518 568 q 383 704 447 704 q 282 638 322 704 q 236 458 242 571 z "},"é":{"ha":746,"x_min":46,"x_max":713,"o":"m 374 -17 q 203 31 278 -17 q 88 162 129 78 q 46 354 46 246 q 92 549 46 465 q 217 678 138 632 q 399 725 297 725 q 549 692 483 725 q 655 598 615 658 q 700 458 694 538 l 701 438 l 235 438 l 235 431 q 300 195 235 283 q 475 107 365 107 q 602 140 542 107 q 700 228 663 172 l 713 224 q 639 99 689 153 q 521 14 589 44 q 374 -17 453 -17 m 236 458 l 518 458 q 483 636 518 568 q 383 704 447 704 q 282 638 322 704 q 236 458 242 571 m 303 807 l 293 821 l 483 1089 l 490 1089 l 581 1008 l 581 1001 l 303 807 z "},"ě":{"ha":746,"x_min":46,"x_max":713,"o":"m 374 -17 q 203 31 278 -17 q 88 162 129 78 q 46 354 46 246 q 92 549 46 465 q 217 678 138 632 q 399 725 297 725 q 549 692 483 725 q 655 598 615 658 q 700 458 694 538 l 701 438 l 235 438 l 235 431 q 300 195 235 283 q 475 107 365 107 q 602 140 542 107 q 700 228 663 172 l 713 224 q 639 99 689 153 q 521 14 589 44 q 374 -17 453 -17 m 236 458 l 518 458 q 483 636 518 568 q 383 704 447 704 q 282 638 322 704 q 236 458 242 571 m 360 807 l 183 1079 l 193 1089 l 396 904 l 599 1089 l 608 1079 l 431 807 l 360 807 z "},"ê":{"ha":746,"x_min":46,"x_max":713,"o":"m 374 -17 q 203 31 278 -17 q 88 162 129 78 q 46 354 46 246 q 92 549 46 465 q 217 678 138 632 q 399 725 297 725 q 549 692 483 725 q 655 598 615 658 q 700 458 694 538 l 701 438 l 235 438 l 235 431 q 300 195 235 283 q 475 107 365 107 q 602 140 542 107 q 700 228 663 172 l 713 224 q 639 99 689 153 q 521 14 589 44 q 374 -17 453 -17 m 236 458 l 518 458 q 483 636 518 568 q 383 704 447 704 q 282 638 322 704 q 236 458 242 571 m 193 807 l 183 817 l 360 1089 l 431 1089 l 608 817 l 599 807 l 396 992 l 193 807 z "},"ë":{"ha":746,"x_min":46,"x_max":713,"o":"m 374 -17 q 203 31 278 -17 q 88 162 129 78 q 46 354 46 246 q 92 549 46 465 q 217 678 138 632 q 399 725 297 725 q 549 692 483 725 q 655 598 615 658 q 700 458 694 538 l 701 438 l 235 438 l 235 431 q 300 195 235 283 q 475 107 365 107 q 602 140 542 107 q 700 228 663 172 l 713 224 q 639 99 689 153 q 521 14 589 44 q 374 -17 453 -17 m 236 458 l 518 458 q 483 636 518 568 q 383 704 447 704 q 282 638 322 704 q 236 458 242 571 m 533 839 q 460 869 490 839 q 429 943 429 900 q 460 1017 429 986 q 533 1047 490 1047 q 606 1017 575 1047 q 638 943 638 986 q 606 869 638 900 q 533 839 575 839 m 258 839 q 185 869 215 839 q 154 943 154 900 q 185 1017 154 986 q 258 1047 215 1047 q 331 1017 300 1047 q 363 943 363 986 q 331 869 363 900 q 258 839 300 839 z "},"ė":{"ha":746,"x_min":46,"x_max":713,"o":"m 374 -17 q 203 31 278 -17 q 88 162 129 78 q 46 354 46 246 q 92 549 46 465 q 217 678 138 632 q 399 725 297 725 q 549 692 483 725 q 655 598 615 658 q 700 458 694 538 l 701 438 l 235 438 l 235 431 q 300 195 235 283 q 475 107 365 107 q 602 140 542 107 q 700 228 663 172 l 713 224 q 639 99 689 153 q 521 14 589 44 q 374 -17 453 -17 m 236 458 l 518 458 q 483 636 518 568 q 383 704 447 704 q 282 638 322 704 q 236 458 242 571 m 396 846 q 313 878 346 846 q 281 961 281 911 q 313 1044 281 1011 q 396 1076 346 1076 q 477 1043 444 1076 q 510 961 510 1010 q 477 879 510 913 q 396 846 444 846 z "},"è":{"ha":746,"x_min":46,"x_max":713,"o":"m 374 -17 q 203 31 278 -17 q 88 162 129 78 q 46 354 46 246 q 92 549 46 465 q 217 678 138 632 q 399 725 297 725 q 549 692 483 725 q 655 598 615 658 q 700 458 694 538 l 701 438 l 235 438 l 235 431 q 300 195 235 283 q 475 107 365 107 q 602 140 542 107 q 700 228 663 172 l 713 224 q 639 99 689 153 q 521 14 589 44 q 374 -17 453 -17 m 236 458 l 518 458 q 483 636 518 568 q 383 704 447 704 q 282 638 322 704 q 236 458 242 571 m 488 807 l 210 1001 l 210 1008 l 300 1089 l 307 1089 l 497 821 l 488 807 z "},"ē":{"ha":746,"x_min":46,"x_max":713,"o":"m 374 -17 q 203 31 278 -17 q 88 162 129 78 q 46 354 46 246 q 92 549 46 465 q 217 678 138 632 q 399 725 297 725 q 549 692 483 725 q 655 598 615 658 q 700 458 694 538 l 701 438 l 235 438 l 235 431 q 300 195 235 283 q 475 107 365 107 q 602 140 542 107 q 700 228 663 172 l 713 224 q 639 99 689 153 q 521 14 589 44 q 374 -17 453 -17 m 236 458 l 518 458 q 483 636 518 568 q 383 704 447 704 q 282 638 322 704 q 236 458 242 571 m 243 932 l 243 1006 l 549 1006 l 549 932 l 243 932 z "},"ę":{"ha":746,"x_min":46,"x_max":713,"o":"m 374 -17 q 203 31 278 -17 q 88 162 129 78 q 46 354 46 246 q 92 549 46 465 q 217 678 138 632 q 399 725 297 725 q 549 692 483 725 q 655 598 615 658 q 700 458 694 538 l 701 438 l 235 438 l 235 431 q 300 195 235 283 q 475 107 365 107 q 602 140 542 107 q 700 228 663 172 l 713 224 q 639 99 689 153 q 521 14 589 44 q 374 -17 453 -17 m 236 458 l 518 458 q 483 636 518 568 q 383 704 447 704 q 282 638 322 704 q 236 458 242 571 m 401 -311 q 290 -278 329 -311 q 250 -183 250 -244 q 309 -44 250 -97 q 464 10 368 10 l 483 10 l 483 1 q 396 -69 431 -15 q 361 -193 361 -124 q 377 -262 361 -237 q 422 -287 393 -287 q 487 -253 457 -287 q 529 -164 517 -218 l 544 -164 l 518 -301 q 458 -306 482 -301 q 433 -310 447 -308 q 401 -311 418 -311 z "},"f":{"ha":433,"x_min":-6,"x_max":669,"o":"m 0 0 l 0 14 q 81 44 50 14 q 113 125 113 75 l 113 681 l -6 681 l 8 706 l 113 706 l 113 738 q 148 920 113 843 q 249 1040 183 997 q 403 1083 314 1083 q 519 1065 464 1083 q 613 1013 574 1046 q 669 938 653 981 l 503 843 q 495 933 501 893 q 475 1004 489 974 q 404 1065 447 1065 q 338 997 360 1065 q 313 811 313 929 l 313 706 l 500 706 l 486 681 l 313 681 l 313 125 q 351 44 313 75 q 451 14 389 14 l 453 14 l 453 0 l 0 0 z "},"g":{"ha":750,"x_min":26,"x_max":743,"o":"m 356 -311 q 117 -272 208 -311 q 26 -168 26 -232 q 73 -81 26 -119 q 200 -22 119 -43 q 69 96 69 11 q 106 181 69 142 q 207 244 142 221 q 99 333 138 275 q 61 471 61 392 q 141 656 61 586 q 356 725 221 725 q 481 706 419 725 l 736 706 l 722 681 l 533 681 q 619 595 589 649 q 649 471 649 542 q 570 285 649 356 q 356 215 492 215 q 224 238 281 215 q 179 182 179 214 q 218 144 179 154 q 274 135 238 139 q 361 129 310 131 l 410 126 q 656 65 569 121 q 743 -86 743 10 q 640 -252 743 -193 q 356 -311 538 -311 m 354 232 q 425 297 397 232 q 450 471 450 363 q 425 644 450 581 q 356 707 399 707 q 286 644 311 707 q 261 471 261 581 q 286 296 261 361 q 354 232 311 232 m 371 -293 q 489 -274 435 -293 q 576 -222 543 -256 q 608 -146 608 -189 q 560 -71 608 -99 q 403 -43 508 -44 l 354 -40 q 280 -35 314 -39 q 219 -26 246 -32 q 176 -65 190 -36 q 163 -135 163 -94 q 217 -250 163 -207 q 371 -293 271 -293 z "},"ğ":{"ha":750,"x_min":26,"x_max":743,"o":"m 356 -311 q 117 -272 208 -311 q 26 -168 26 -232 q 73 -81 26 -119 q 200 -22 119 -43 q 69 96 69 11 q 106 181 69 142 q 207 244 142 221 q 99 333 138 275 q 61 471 61 392 q 141 656 61 586 q 356 725 221 725 q 481 706 419 725 l 736 706 l 722 681 l 533 681 q 619 595 589 649 q 649 471 649 542 q 570 285 649 356 q 356 215 492 215 q 224 238 281 215 q 179 182 179 214 q 218 144 179 154 q 274 135 238 139 q 361 129 310 131 l 410 126 q 656 65 569 121 q 743 -86 743 10 q 640 -252 743 -193 q 356 -311 538 -311 m 354 232 q 425 297 397 232 q 450 471 450 363 q 425 644 450 581 q 356 707 399 707 q 286 644 311 707 q 261 471 261 581 q 286 296 261 361 q 354 232 311 232 m 371 -293 q 489 -274 435 -293 q 576 -222 543 -256 q 608 -146 608 -189 q 560 -71 608 -99 q 403 -43 508 -44 l 354 -40 q 280 -35 314 -39 q 219 -26 246 -32 q 176 -65 190 -36 q 163 -135 163 -94 q 217 -250 163 -207 q 371 -293 271 -293 m 375 858 q 247 914 288 858 q 204 1061 206 969 l 218 1061 q 267 976 221 1010 q 375 942 313 942 q 483 976 438 942 q 532 1061 529 1010 l 546 1061 q 503 914 544 969 q 375 858 461 858 z "},"ģ":{"ha":750,"x_min":26,"x_max":743,"o":"m 356 -311 q 117 -272 208 -311 q 26 -168 26 -232 q 73 -81 26 -119 q 200 -22 119 -43 q 69 96 69 11 q 106 181 69 142 q 207 244 142 221 q 99 333 138 275 q 61 471 61 392 q 141 656 61 586 q 356 725 221 725 q 481 706 419 725 l 736 706 l 722 681 l 533 681 q 619 595 589 649 q 649 471 649 542 q 570 285 649 356 q 356 215 492 215 q 224 238 281 215 q 179 182 179 214 q 218 144 179 154 q 274 135 238 139 q 361 129 310 131 l 410 126 q 656 65 569 121 q 743 -86 743 10 q 640 -252 743 -193 q 356 -311 538 -311 m 354 232 q 425 297 397 232 q 450 471 450 363 q 425 644 450 581 q 356 707 399 707 q 286 644 311 707 q 261 471 261 581 q 286 296 261 361 q 354 232 311 232 m 371 -293 q 489 -274 435 -293 q 576 -222 543 -256 q 608 -146 608 -189 q 560 -71 608 -99 q 403 -43 508 -44 l 354 -40 q 280 -35 314 -39 q 219 -26 246 -32 q 176 -65 190 -36 q 163 -135 163 -94 q 217 -250 163 -207 q 371 -293 271 -293 m 435 1283 l 447 1278 q 370 1191 404 1226 q 336 1110 336 1156 q 350 1074 336 1086 q 384 1053 364 1061 q 424 1036 404 1046 q 458 1008 444 1026 q 472 957 472 990 q 442 880 472 908 q 363 851 411 851 q 281 885 311 851 q 250 978 250 919 q 276 1093 250 1044 q 344 1185 301 1142 q 435 1283 386 1229 z "},"ġ":{"ha":750,"x_min":26,"x_max":743,"o":"m 356 -311 q 117 -272 208 -311 q 26 -168 26 -232 q 73 -81 26 -119 q 200 -22 119 -43 q 69 96 69 11 q 106 181 69 142 q 207 244 142 221 q 99 333 138 275 q 61 471 61 392 q 141 656 61 586 q 356 725 221 725 q 481 706 419 725 l 736 706 l 722 681 l 533 681 q 619 595 589 649 q 649 471 649 542 q 570 285 649 356 q 356 215 492 215 q 224 238 281 215 q 179 182 179 214 q 218 144 179 154 q 274 135 238 139 q 361 129 310 131 l 410 126 q 656 65 569 121 q 743 -86 743 10 q 640 -252 743 -193 q 356 -311 538 -311 m 354 232 q 425 297 397 232 q 450 471 450 363 q 425 644 450 581 q 356 707 399 707 q 286 644 311 707 q 261 471 261 581 q 286 296 261 361 q 354 232 311 232 m 371 -293 q 489 -274 435 -293 q 576 -222 543 -256 q 608 -146 608 -189 q 560 -71 608 -99 q 403 -43 508 -44 l 354 -40 q 280 -35 314 -39 q 219 -26 246 -32 q 176 -65 190 -36 q 163 -135 163 -94 q 217 -250 163 -207 q 371 -293 271 -293 m 375 846 q 292 878 325 846 q 260 961 260 911 q 292 1044 260 1011 q 375 1076 325 1076 q 456 1043 424 1076 q 489 961 489 1010 q 456 879 489 913 q 375 846 424 846 z "},"h":{"ha":876,"x_min":0,"x_max":894,"o":"m 0 0 l 0 14 q 73 34 49 14 q 105 86 97 54 q 113 156 113 118 l 113 917 q 81 997 113 967 q 0 1028 50 1028 l 0 1042 l 142 1042 q 250 1057 213 1042 q 299 1094 285 1072 l 313 1094 l 313 567 q 422 683 350 640 q 576 725 494 725 q 688 695 642 725 q 758 615 733 665 q 782 503 782 565 l 782 125 q 813 44 782 74 q 894 14 844 14 l 894 0 l 471 0 l 471 14 q 552 44 521 14 q 583 125 583 74 l 583 517 q 575 583 583 547 q 545 644 567 618 q 485 669 524 669 q 416 648 449 669 q 357 594 383 626 q 313 531 331 563 l 313 156 q 320 86 313 118 q 352 34 328 54 q 425 14 376 14 l 425 0 l 0 0 z "},"ħ":{"ha":876,"x_min":0,"x_max":894,"o":"m 0 0 l 0 14 q 73 34 49 14 q 105 86 97 54 q 113 156 113 118 l 113 839 l 1 839 l 1 860 l 113 860 l 113 917 q 81 997 113 967 q 0 1028 50 1028 l 0 1042 l 142 1042 q 250 1057 213 1042 q 299 1094 285 1072 l 313 1094 l 313 860 l 500 860 l 500 839 l 313 839 l 313 567 q 422 683 350 640 q 576 725 494 725 q 688 695 642 725 q 758 615 733 665 q 782 503 782 565 l 782 125 q 813 44 782 74 q 894 14 844 14 l 894 0 l 471 0 l 471 14 q 552 44 521 14 q 583 125 583 74 l 583 517 q 575 583 583 547 q 545 644 567 618 q 485 669 524 669 q 416 648 449 669 q 357 594 383 626 q 313 531 331 563 l 313 156 q 320 86 313 118 q 352 34 328 54 q 425 14 376 14 l 425 0 l 0 0 z "},"i":{"ha":413,"x_min":10,"x_max":435,"o":"m 10 0 l 10 14 l 11 14 q 92 44 61 14 q 122 125 122 75 l 122 581 q 101 663 122 633 q 10 692 79 692 l 10 706 l 151 706 q 260 721 222 706 q 308 758 294 736 l 322 758 l 322 125 q 353 44 322 75 q 433 14 383 14 l 435 14 l 435 0 l 10 0 m 221 846 q 138 878 171 846 q 106 961 106 911 q 138 1044 106 1011 q 221 1076 171 1076 q 302 1043 269 1076 q 335 961 335 1010 q 302 879 335 913 q 221 846 269 846 z "},"ı":{"ha":413,"x_min":10,"x_max":435,"o":"m 10 0 l 10 14 l 11 14 q 92 44 61 14 q 122 125 122 75 l 122 581 q 101 663 122 633 q 10 692 79 692 l 10 706 l 151 706 q 260 721 222 706 q 308 758 294 736 l 322 758 l 322 125 q 353 44 322 75 q 433 14 383 14 l 435 14 l 435 0 l 10 0 z "},"í":{"ha":413,"x_min":10,"x_max":435,"o":"m 10 0 l 10 14 l 11 14 q 92 44 61 14 q 122 125 122 75 l 122 581 q 101 663 122 633 q 10 692 79 692 l 10 706 l 151 706 q 260 721 222 706 q 308 758 294 736 l 322 758 l 322 125 q 353 44 322 75 q 433 14 383 14 l 435 14 l 435 0 l 10 0 m 128 807 l 118 821 l 308 1089 l 315 1089 l 406 1008 l 406 1001 l 128 807 z "},"î":{"ha":413,"x_min":8,"x_max":435,"o":"m 10 0 l 10 14 l 11 14 q 92 44 61 14 q 122 125 122 75 l 122 581 q 101 663 122 633 q 10 692 79 692 l 10 706 l 151 706 q 260 721 222 706 q 308 758 294 736 l 322 758 l 322 125 q 353 44 322 75 q 433 14 383 14 l 435 14 l 435 0 l 10 0 m 18 807 l 8 817 l 185 1089 l 256 1089 l 433 817 l 424 807 l 221 992 l 18 807 z "},"ï":{"ha":413,"x_min":-21,"x_max":463,"o":"m 10 0 l 10 14 l 11 14 q 92 44 61 14 q 122 125 122 75 l 122 581 q 101 663 122 633 q 10 692 79 692 l 10 706 l 151 706 q 260 721 222 706 q 308 758 294 736 l 322 758 l 322 125 q 353 44 322 75 q 433 14 383 14 l 435 14 l 435 0 l 10 0 m 358 839 q 285 869 315 839 q 254 943 254 900 q 285 1017 254 986 q 358 1047 315 1047 q 431 1017 400 1047 q 463 943 463 986 q 431 869 463 900 q 358 839 400 839 m 83 839 q 10 869 40 839 q -21 943 -21 900 q 10 1017 -21 986 q 83 1047 40 1047 q 156 1017 125 1047 q 188 943 188 986 q 156 869 188 900 q 83 839 125 839 z "},"ì":{"ha":413,"x_min":10,"x_max":435,"o":"m 10 0 l 10 14 l 11 14 q 92 44 61 14 q 122 125 122 75 l 122 581 q 101 663 122 633 q 10 692 79 692 l 10 706 l 151 706 q 260 721 222 706 q 308 758 294 736 l 322 758 l 322 125 q 353 44 322 75 q 433 14 383 14 l 435 14 l 435 0 l 10 0 m 313 807 l 35 1001 l 35 1008 l 125 1089 l 132 1089 l 322 821 l 313 807 z "},"ĳ":{"ha":804,"x_min":10,"x_max":721,"o":"m 10 0 l 10 14 l 11 14 q 92 44 61 14 q 122 125 122 75 l 122 581 q 101 663 122 633 q 10 692 79 692 l 10 706 l 151 706 q 260 721 222 706 q 308 758 294 736 l 322 758 l 322 125 q 353 44 322 75 q 433 14 383 14 l 435 14 l 435 0 l 10 0 m 221 846 q 138 878 171 846 q 106 961 106 911 q 138 1044 106 1011 q 221 1076 171 1076 q 302 1043 269 1076 q 335 961 335 1010 q 302 879 335 913 q 221 846 269 846 m 606 853 q 524 886 557 853 q 492 968 492 919 q 524 1051 492 1018 q 606 1083 557 1083 q 688 1051 654 1083 q 721 968 721 1018 q 688 886 721 919 q 606 853 654 853 m 401 -311 l 401 -296 q 483 -249 453 -296 q 514 -122 514 -201 l 514 581 q 492 663 514 633 q 401 692 471 692 l 401 706 l 543 706 q 654 714 617 706 q 707 744 692 719 l 714 744 l 714 35 q 676 -146 714 -68 q 567 -267 638 -224 q 401 -311 497 -311 z "},"ī":{"ha":413,"x_min":10,"x_max":435,"o":"m 10 0 l 10 14 l 11 14 q 92 44 61 14 q 122 125 122 75 l 122 581 q 101 663 122 633 q 10 692 79 692 l 10 706 l 151 706 q 260 721 222 706 q 308 758 294 736 l 322 758 l 322 125 q 353 44 322 75 q 433 14 383 14 l 435 14 l 435 0 l 10 0 m 68 932 l 68 1006 l 374 1006 l 374 932 l 68 932 z "},"į":{"ha":413,"x_min":10,"x_max":438,"o":"m 10 0 l 10 14 l 11 14 q 92 44 61 14 q 122 125 122 75 l 122 581 q 101 663 122 633 q 10 692 79 692 l 10 706 l 151 706 q 260 721 222 706 q 308 758 294 736 l 322 758 l 322 125 q 353 44 322 75 q 433 14 383 14 l 435 14 l 435 0 l 10 0 m 221 846 q 138 878 171 846 q 106 961 106 911 q 138 1044 106 1011 q 221 1076 171 1076 q 302 1043 269 1076 q 335 961 335 1010 q 302 879 335 913 q 221 846 269 846 m 294 -311 q 183 -278 222 -311 q 143 -183 143 -244 q 202 -44 143 -97 q 357 10 261 10 l 376 10 l 376 1 q 289 -69 324 -15 q 254 -193 254 -124 q 270 -262 254 -237 q 315 -287 286 -287 q 380 -253 350 -287 q 422 -164 410 -218 l 438 -164 l 411 -301 q 351 -306 375 -301 q 326 -310 340 -308 q 294 -311 311 -311 z "},"j":{"ha":392,"x_min":-11,"x_max":308,"o":"m 193 853 q 112 886 144 853 q 79 968 79 919 q 112 1051 79 1018 q 193 1083 144 1083 q 275 1051 242 1083 q 308 968 308 1018 q 275 886 308 919 q 193 853 242 853 m -11 -311 l -11 -296 q 71 -249 40 -296 q 101 -122 101 -201 l 101 581 q 80 663 101 633 q -11 692 58 692 l -11 706 l 131 706 q 242 714 204 706 q 294 744 279 719 l 301 744 l 301 35 q 263 -146 301 -68 q 155 -267 225 -224 q -11 -311 85 -311 z "},"ȷ":{"ha":392,"x_min":-11,"x_max":301,"o":"m -11 -311 l -11 -296 q 71 -249 40 -296 q 101 -122 101 -201 l 101 581 q 80 663 101 633 q -11 692 58 692 l -11 706 l 131 706 q 242 714 204 706 q 294 744 279 719 l 301 744 l 301 35 q 263 -146 301 -68 q 155 -267 225 -224 q -11 -311 85 -311 z "},"k":{"ha":835,"x_min":0,"x_max":872,"o":"m 0 0 l 0 14 l 1 14 q 82 44 51 14 q 113 125 113 75 l 113 917 q 81 997 113 967 q 0 1028 50 1028 l 0 1042 l 142 1042 q 250 1057 213 1042 q 299 1094 285 1072 l 313 1094 l 313 364 l 549 563 q 617 647 606 610 q 599 688 625 682 l 581 692 l 581 706 l 788 706 l 788 692 l 774 689 q 705 661 740 683 q 603 583 669 639 l 507 503 l 783 78 q 829 28 810 43 q 872 14 849 14 l 872 0 l 506 0 l 506 14 q 551 19 540 14 q 564 38 564 24 q 554 69 564 50 q 541 95 549 81 q 522 128 533 110 l 364 382 l 313 338 l 313 125 q 343 44 313 75 q 424 14 374 14 l 425 14 l 425 0 l 0 0 z "},"ķ":{"ha":835,"x_min":0,"x_max":872,"o":"m 0 0 l 0 14 l 1 14 q 82 44 51 14 q 113 125 113 75 l 113 917 q 81 997 113 967 q 0 1028 50 1028 l 0 1042 l 142 1042 q 250 1057 213 1042 q 299 1094 285 1072 l 313 1094 l 313 364 l 549 563 q 617 647 606 610 q 599 688 625 682 l 581 692 l 581 706 l 788 706 l 788 692 l 774 689 q 705 661 740 683 q 603 583 669 639 l 507 503 l 783 78 q 829 28 810 43 q 872 14 849 14 l 872 0 l 506 0 l 506 14 q 551 19 540 14 q 564 38 564 24 q 554 69 564 50 q 541 95 549 81 q 522 128 533 110 l 364 382 l 313 338 l 313 125 q 343 44 313 75 q 424 14 374 14 l 425 14 l 425 0 l 0 0 m 328 -504 l 315 -499 q 393 -411 360 -446 q 426 -331 426 -376 q 413 -294 426 -307 q 378 -274 399 -282 q 338 -257 358 -267 q 304 -229 318 -247 q 290 -178 290 -211 q 321 -101 290 -129 q 400 -72 351 -72 q 482 -106 451 -72 q 513 -199 513 -140 q 487 -313 513 -265 q 419 -406 461 -361 q 328 -504 376 -450 z "},"l":{"ha":401,"x_min":0,"x_max":425,"o":"m 0 0 l 0 14 q 81 44 50 14 q 113 125 113 74 l 113 917 q 81 997 113 967 q 0 1028 50 1028 l 0 1042 l 142 1042 q 250 1057 213 1042 q 299 1094 285 1072 l 313 1094 l 313 125 q 344 44 313 74 q 425 14 375 14 l 425 0 l 0 0 z "},"ĺ":{"ha":401,"x_min":0,"x_max":425,"o":"m 0 0 l 0 14 q 81 44 50 14 q 113 125 113 74 l 113 917 q 81 997 113 967 q 0 1028 50 1028 l 0 1042 l 142 1042 q 250 1057 213 1042 q 299 1094 285 1072 l 313 1094 l 313 125 q 344 44 313 74 q 425 14 375 14 l 425 0 l 0 0 m 67 1113 l 57 1126 l 247 1394 l 254 1394 l 344 1314 l 344 1307 l 67 1113 z "},"ľ":{"ha":401,"x_min":0,"x_max":596,"o":"m 0 0 l 0 14 q 81 44 50 14 q 113 125 113 74 l 113 917 q 81 997 113 967 q 0 1028 50 1028 l 0 1042 l 142 1042 q 250 1057 213 1042 q 299 1094 285 1072 l 313 1094 l 313 125 q 344 44 313 74 q 425 14 375 14 l 425 0 l 0 0 m 411 739 l 403 754 q 454 790 433 774 q 486 819 475 806 q 510 872 510 846 q 489 913 510 900 q 442 936 468 926 q 394 966 414 946 q 374 1024 374 986 q 403 1100 374 1071 q 482 1129 433 1129 q 565 1093 535 1129 q 596 990 596 1057 q 556 865 596 921 q 411 739 515 808 z "},"ļ":{"ha":401,"x_min":0,"x_max":425,"o":"m 0 0 l 0 14 q 81 44 50 14 q 113 125 113 74 l 113 917 q 81 997 113 967 q 0 1028 50 1028 l 0 1042 l 142 1042 q 250 1057 213 1042 q 299 1094 285 1072 l 313 1094 l 313 125 q 344 44 313 74 q 425 14 375 14 l 425 0 l 0 0 m 142 -504 l 129 -499 q 207 -411 174 -446 q 240 -331 240 -376 q 226 -294 240 -307 q 192 -274 213 -282 q 152 -257 172 -267 q 118 -229 132 -247 q 104 -178 104 -211 q 135 -101 104 -129 q 214 -72 165 -72 q 296 -106 265 -72 q 326 -199 326 -140 q 301 -313 326 -265 q 233 -406 275 -361 q 142 -504 190 -450 z "},"ł":{"ha":453,"x_min":-8,"x_max":465,"o":"m 19 0 l 19 14 q 101 44 69 14 q 132 125 132 74 l 132 439 l -8 360 l -8 378 l 132 457 l 132 917 q 101 997 132 967 q 19 1028 69 1028 l 19 1042 l 161 1042 q 269 1057 232 1042 q 318 1094 304 1072 l 332 1094 l 332 572 l 465 649 l 465 631 l 332 554 l 332 125 q 363 44 332 74 q 444 14 394 14 l 444 0 l 19 0 z "},"m":{"ha":1353,"x_min":8,"x_max":1371,"o":"m 8 0 l 8 14 l 10 14 q 90 44 60 14 q 121 125 121 75 l 121 581 q 99 663 121 633 q 8 692 78 692 l 8 706 l 146 706 q 234 711 203 706 q 281 726 265 717 q 303 744 296 735 l 317 744 l 318 564 q 428 681 354 636 q 583 725 501 725 q 715 681 663 725 q 783 561 768 636 q 895 681 822 636 q 1053 725 968 725 q 1202 664 1146 725 q 1258 503 1258 603 l 1258 125 q 1289 44 1258 75 q 1369 14 1319 14 l 1371 14 l 1371 0 l 947 0 l 947 14 l 949 14 q 1029 44 999 14 q 1060 125 1060 75 l 1060 517 q 1032 628 1060 586 q 960 669 1004 669 q 869 631 917 669 q 788 532 822 593 q 789 525 789 529 q 789 518 789 521 l 789 125 q 819 44 789 75 q 900 14 850 14 l 901 14 l 901 0 l 478 0 l 478 14 l 479 14 q 560 44 529 14 q 590 125 590 75 l 590 517 q 563 628 590 586 q 492 669 536 669 q 402 633 449 669 q 321 533 356 596 l 321 125 q 351 44 321 75 q 432 14 382 14 l 433 14 l 433 0 l 8 0 z "},"n":{"ha":883,"x_min":8,"x_max":901,"o":"m 8 0 l 8 14 l 10 14 q 90 44 60 14 q 121 125 121 75 l 121 581 q 99 663 121 633 q 8 692 78 692 l 8 706 l 146 706 q 254 721 217 706 q 303 758 289 736 l 317 758 l 318 564 q 428 681 354 636 q 583 725 501 725 q 733 664 676 725 q 789 503 789 603 l 789 125 q 819 44 789 75 q 900 14 850 14 l 901 14 l 901 0 l 478 0 l 478 14 l 479 14 q 560 44 529 14 q 590 125 590 75 l 590 517 q 563 628 590 586 q 492 669 536 669 q 402 633 449 669 q 321 533 356 596 l 321 125 q 351 44 321 75 q 432 14 382 14 l 433 14 l 433 0 l 8 0 z "},"ń":{"ha":883,"x_min":8,"x_max":901,"o":"m 8 0 l 8 14 l 10 14 q 90 44 60 14 q 121 125 121 75 l 121 581 q 99 663 121 633 q 8 692 78 692 l 8 706 l 146 706 q 254 721 217 706 q 303 758 289 736 l 317 758 l 318 564 q 428 681 354 636 q 583 725 501 725 q 733 664 676 725 q 789 503 789 603 l 789 125 q 819 44 789 75 q 900 14 850 14 l 901 14 l 901 0 l 478 0 l 478 14 l 479 14 q 560 44 529 14 q 590 125 590 75 l 590 517 q 563 628 590 586 q 492 669 536 669 q 402 633 449 669 q 321 533 356 596 l 321 125 q 351 44 321 75 q 432 14 382 14 l 433 14 l 433 0 l 8 0 m 349 807 l 339 821 l 529 1089 l 536 1089 l 626 1008 l 626 1001 l 349 807 z "},"ň":{"ha":883,"x_min":8,"x_max":901,"o":"m 8 0 l 8 14 l 10 14 q 90 44 60 14 q 121 125 121 75 l 121 581 q 99 663 121 633 q 8 692 78 692 l 8 706 l 146 706 q 254 721 217 706 q 303 758 289 736 l 317 758 l 318 564 q 428 681 354 636 q 583 725 501 725 q 733 664 676 725 q 789 503 789 603 l 789 125 q 819 44 789 75 q 900 14 850 14 l 901 14 l 901 0 l 478 0 l 478 14 l 479 14 q 560 44 529 14 q 590 125 590 75 l 590 517 q 563 628 590 586 q 492 669 536 669 q 402 633 449 669 q 321 533 356 596 l 321 125 q 351 44 321 75 q 432 14 382 14 l 433 14 l 433 0 l 8 0 m 406 807 l 229 1079 l 239 1089 l 442 904 l 644 1089 l 654 1079 l 476 807 l 406 807 z "},"ņ":{"ha":883,"x_min":8,"x_max":901,"o":"m 8 0 l 8 14 l 10 14 q 90 44 60 14 q 121 125 121 75 l 121 581 q 99 663 121 633 q 8 692 78 692 l 8 706 l 146 706 q 254 721 217 706 q 303 758 289 736 l 317 758 l 318 564 q 428 681 354 636 q 583 725 501 725 q 733 664 676 725 q 789 503 789 603 l 789 125 q 819 44 789 75 q 900 14 850 14 l 901 14 l 901 0 l 478 0 l 478 14 l 479 14 q 560 44 529 14 q 590 125 590 75 l 590 517 q 563 628 590 586 q 492 669 536 669 q 402 633 449 669 q 321 533 356 596 l 321 125 q 351 44 321 75 q 432 14 382 14 l 433 14 l 433 0 l 8 0 m 368 -504 l 356 -499 q 433 -411 400 -446 q 467 -331 467 -376 q 453 -294 467 -307 q 419 -274 439 -282 q 378 -257 399 -267 q 344 -229 358 -247 q 331 -178 331 -211 q 361 -101 331 -129 q 440 -72 392 -72 q 522 -106 492 -72 q 553 -199 553 -140 q 527 -313 553 -265 q 459 -406 501 -361 q 368 -504 417 -450 z "},"ñ":{"ha":883,"x_min":8,"x_max":901,"o":"m 8 0 l 8 14 l 10 14 q 90 44 60 14 q 121 125 121 75 l 121 581 q 99 663 121 633 q 8 692 78 692 l 8 706 l 146 706 q 254 721 217 706 q 303 758 289 736 l 317 758 l 318 564 q 428 681 354 636 q 583 725 501 725 q 733 664 676 725 q 789 503 789 603 l 789 125 q 819 44 789 75 q 900 14 850 14 l 901 14 l 901 0 l 478 0 l 478 14 l 479 14 q 560 44 529 14 q 590 125 590 75 l 590 517 q 563 628 590 586 q 492 669 536 669 q 402 633 449 669 q 321 533 356 596 l 321 125 q 351 44 321 75 q 432 14 382 14 l 433 14 l 433 0 l 8 0 m 518 851 q 453 871 482 851 q 399 910 425 890 q 342 931 372 931 q 293 916 318 931 q 250 869 268 901 l 236 875 q 299 986 261 944 q 372 1028 336 1028 q 437 1008 410 1028 q 490 968 464 988 q 549 949 515 949 q 591 961 569 949 q 632 1010 613 974 l 646 1004 q 594 893 629 935 q 518 851 558 851 z "},"ŋ":{"ha":883,"x_min":8,"x_max":789,"o":"m 476 -311 l 476 -296 q 558 -249 528 -296 q 589 -122 589 -201 l 590 517 q 563 628 590 586 q 492 669 536 669 q 402 633 449 669 q 321 533 356 596 l 321 125 q 351 44 321 75 q 432 14 382 14 l 433 14 l 433 0 l 8 0 l 8 14 l 10 14 q 90 44 60 14 q 121 125 121 75 l 121 581 q 99 663 121 633 q 8 692 78 692 l 8 706 l 146 706 q 254 721 217 706 q 303 758 289 736 l 317 758 l 318 564 q 428 681 354 636 q 583 725 501 725 q 733 664 676 725 q 789 503 789 603 l 789 35 q 751 -146 789 -68 q 642 -267 713 -224 q 476 -311 572 -311 z "},"o":{"ha":850,"x_min":47,"x_max":804,"o":"m 426 -19 q 227 26 313 -19 q 94 156 142 72 q 47 353 47 239 q 94 550 47 467 q 227 679 142 633 q 426 725 313 725 q 625 679 540 725 q 757 550 710 633 q 804 353 804 467 q 757 156 804 239 q 625 26 710 72 q 426 -19 540 -19 m 425 -1 q 508 47 474 -1 q 563 177 543 96 q 582 354 582 258 q 562 538 582 458 q 506 663 542 618 q 426 708 471 708 q 344 660 379 708 q 289 531 308 611 q 269 354 269 450 q 290 168 269 249 q 347 43 311 88 q 425 -1 382 -1 z "},"ó":{"ha":850,"x_min":47,"x_max":804,"o":"m 426 -19 q 227 26 313 -19 q 94 156 142 72 q 47 353 47 239 q 94 550 47 467 q 227 679 142 633 q 426 725 313 725 q 625 679 540 725 q 757 550 710 633 q 804 353 804 467 q 757 156 804 239 q 625 26 710 72 q 426 -19 540 -19 m 425 -1 q 508 47 474 -1 q 563 177 543 96 q 582 354 582 258 q 562 538 582 458 q 506 663 542 618 q 426 708 471 708 q 344 660 379 708 q 289 531 308 611 q 269 354 269 450 q 290 168 269 249 q 347 43 311 88 q 425 -1 382 -1 m 332 807 l 322 821 l 513 1089 l 519 1089 l 610 1008 l 610 1001 l 332 807 z "},"ô":{"ha":850,"x_min":47,"x_max":804,"o":"m 426 -19 q 227 26 313 -19 q 94 156 142 72 q 47 353 47 239 q 94 550 47 467 q 227 679 142 633 q 426 725 313 725 q 625 679 540 725 q 757 550 710 633 q 804 353 804 467 q 757 156 804 239 q 625 26 710 72 q 426 -19 540 -19 m 425 -1 q 508 47 474 -1 q 563 177 543 96 q 582 354 582 258 q 562 538 582 458 q 506 663 542 618 q 426 708 471 708 q 344 660 379 708 q 289 531 308 611 q 269 354 269 450 q 290 168 269 249 q 347 43 311 88 q 425 -1 382 -1 m 222 807 l 213 817 l 389 1089 l 460 1089 l 638 817 l 628 807 l 425 992 l 222 807 z "},"ö":{"ha":850,"x_min":47,"x_max":804,"o":"m 426 -19 q 227 26 313 -19 q 94 156 142 72 q 47 353 47 239 q 94 550 47 467 q 227 679 142 633 q 426 725 313 725 q 625 679 540 725 q 757 550 710 633 q 804 353 804 467 q 757 156 804 239 q 625 26 710 72 q 426 -19 540 -19 m 425 -1 q 508 47 474 -1 q 563 177 543 96 q 582 354 582 258 q 562 538 582 458 q 506 663 542 618 q 426 708 471 708 q 344 660 379 708 q 289 531 308 611 q 269 354 269 450 q 290 168 269 249 q 347 43 311 88 q 425 -1 382 -1 m 563 839 q 489 869 519 839 q 458 943 458 900 q 489 1017 458 986 q 563 1047 519 1047 q 635 1017 604 1047 q 667 943 667 986 q 635 869 667 900 q 563 839 604 839 m 288 839 q 214 869 244 839 q 183 943 183 900 q 214 1017 183 986 q 288 1047 244 1047 q 360 1017 329 1047 q 392 943 392 986 q 360 869 392 900 q 288 839 329 839 z "},"ò":{"ha":850,"x_min":47,"x_max":804,"o":"m 426 -19 q 227 26 313 -19 q 94 156 142 72 q 47 353 47 239 q 94 550 47 467 q 227 679 142 633 q 426 725 313 725 q 625 679 540 725 q 757 550 710 633 q 804 353 804 467 q 757 156 804 239 q 625 26 710 72 q 426 -19 540 -19 m 425 -1 q 508 47 474 -1 q 563 177 543 96 q 582 354 582 258 q 562 538 582 458 q 506 663 542 618 q 426 708 471 708 q 344 660 379 708 q 289 531 308 611 q 269 354 269 450 q 290 168 269 249 q 347 43 311 88 q 425 -1 382 -1 m 517 807 l 239 1001 l 239 1008 l 329 1089 l 336 1089 l 526 821 l 517 807 z "},"ő":{"ha":850,"x_min":47,"x_max":804,"o":"m 426 -19 q 227 26 313 -19 q 94 156 142 72 q 47 353 47 239 q 94 550 47 467 q 227 679 142 633 q 426 725 313 725 q 625 679 540 725 q 757 550 710 633 q 804 353 804 467 q 757 156 804 239 q 625 26 710 72 q 426 -19 540 -19 m 425 -1 q 508 47 474 -1 q 563 177 543 96 q 582 354 582 258 q 562 538 582 458 q 506 663 542 618 q 426 708 471 708 q 344 660 379 708 q 289 531 308 611 q 269 354 269 450 q 290 168 269 249 q 347 43 311 88 q 425 -1 382 -1 m 489 807 l 479 821 l 671 1089 l 678 1089 l 767 1008 l 767 1001 l 489 807 m 258 807 l 249 821 l 439 1089 l 446 1089 l 536 1008 l 536 1001 l 258 807 z "},"ō":{"ha":850,"x_min":47,"x_max":804,"o":"m 426 -19 q 227 26 313 -19 q 94 156 142 72 q 47 353 47 239 q 94 550 47 467 q 227 679 142 633 q 426 725 313 725 q 625 679 540 725 q 757 550 710 633 q 804 353 804 467 q 757 156 804 239 q 625 26 710 72 q 426 -19 540 -19 m 425 -1 q 508 47 474 -1 q 563 177 543 96 q 582 354 582 258 q 562 538 582 458 q 506 663 542 618 q 426 708 471 708 q 344 660 379 708 q 289 531 308 611 q 269 354 269 450 q 290 168 269 249 q 347 43 311 88 q 425 -1 382 -1 m 272 932 l 272 1006 l 578 1006 l 578 932 l 272 932 z "},"ø":{"ha":849,"x_min":46,"x_max":803,"o":"m 425 -19 q 193 46 288 -19 l 157 0 l 135 0 l 179 57 q 81 181 115 106 q 46 353 46 257 q 93 550 46 467 q 226 679 140 633 q 425 725 311 725 q 550 708 493 725 q 653 661 607 692 l 689 706 l 711 706 l 668 650 q 767 526 732 601 q 803 353 803 450 q 756 156 803 239 q 624 26 708 72 q 425 -19 539 -19 m 283 190 l 560 540 q 505 664 540 619 q 425 708 469 708 q 342 660 378 708 q 288 531 307 611 q 268 354 268 450 q 272 268 268 310 q 283 190 276 226 m 424 -1 q 507 47 472 -1 q 561 177 542 96 q 581 354 581 258 q 564 519 581 447 l 289 168 q 344 44 308 89 q 424 -1 379 -1 z "},"õ":{"ha":850,"x_min":47,"x_max":804,"o":"m 426 -19 q 227 26 313 -19 q 94 156 142 72 q 47 353 47 239 q 94 550 47 467 q 227 679 142 633 q 426 725 313 725 q 625 679 540 725 q 757 550 710 633 q 804 353 804 467 q 757 156 804 239 q 625 26 710 72 q 426 -19 540 -19 m 425 -1 q 508 47 474 -1 q 563 177 543 96 q 582 354 582 258 q 562 538 582 458 q 506 663 542 618 q 426 708 471 708 q 344 660 379 708 q 289 531 308 611 q 269 354 269 450 q 290 168 269 249 q 347 43 311 88 q 425 -1 382 -1 m 501 851 q 437 871 465 851 q 382 910 408 890 q 325 931 356 931 q 276 916 301 931 q 233 869 251 901 l 219 875 q 282 986 244 944 q 356 1028 319 1028 q 420 1008 393 1028 q 473 968 447 988 q 532 949 499 949 q 574 961 553 949 q 615 1010 596 974 l 629 1004 q 577 893 613 935 q 501 851 542 851 z "},"œ":{"ha":1300,"x_min":46,"x_max":1267,"o":"m 425 -17 q 226 29 311 -17 q 93 158 140 75 q 46 356 46 242 q 93 553 46 469 q 226 682 140 636 q 425 728 311 728 q 584 700 513 728 q 704 621 656 672 q 812 698 749 671 q 953 725 875 725 q 1105 692 1038 725 q 1213 598 1172 658 q 1254 458 1253 538 l 1254 438 l 789 438 l 789 431 q 818 258 789 332 q 901 142 847 183 q 1026 100 954 100 q 1153 135 1092 100 q 1254 228 1214 169 l 1267 224 q 1142 48 1231 113 q 942 -17 1054 -17 q 808 11 868 -17 q 703 89 747 39 q 583 11 654 39 q 425 -17 513 -17 m 424 1 q 507 50 472 1 q 561 180 542 99 q 581 357 581 261 q 560 538 581 458 q 506 665 540 618 q 425 711 471 711 q 341 663 376 711 q 287 533 306 614 q 268 357 268 453 q 289 171 268 251 q 345 46 310 90 q 424 1 381 1 m 790 458 l 1072 458 q 1035 638 1072 571 q 938 704 999 704 q 836 638 876 704 q 790 458 796 571 z "},"p":{"ha":832,"x_min":-24,"x_max":786,"o":"m -24 -292 l -24 -278 l -22 -278 q 58 -247 28 -278 q 89 -167 89 -217 l 89 581 q 63 667 88 642 q -24 692 38 692 l -24 706 l 114 706 q 226 721 196 706 q 271 758 257 736 l 285 758 l 286 581 q 383 685 318 643 q 521 726 449 726 q 658 679 599 726 q 752 551 718 632 q 786 364 786 469 q 744 161 786 247 q 627 28 703 75 q 447 -19 551 -19 q 354 -2 390 -19 q 289 56 318 15 l 289 -167 q 319 -247 289 -217 q 400 -278 350 -278 l 401 -278 l 401 -292 l -24 -292 m 418 4 q 532 97 493 4 q 569 368 569 192 q 447 671 569 671 q 354 633 400 671 q 289 542 308 596 l 289 218 q 324 61 289 118 q 418 4 358 4 z "},"þ":{"ha":865,"x_min":10,"x_max":819,"o":"m 10 -292 l 10 -278 l 11 -278 q 92 -247 61 -278 q 122 -167 122 -217 l 122 917 q 96 1003 121 978 q 10 1028 71 1028 l 10 1042 l 147 1042 q 260 1057 229 1042 q 304 1094 290 1072 l 322 1094 l 322 586 q 419 688 356 649 q 554 726 482 726 q 692 679 632 726 q 785 551 751 632 q 819 364 819 469 q 778 161 819 247 q 660 28 736 75 q 481 -19 585 -19 q 388 -2 424 -19 q 322 56 351 15 l 322 -167 q 353 -247 322 -217 q 433 -278 383 -278 l 435 -278 l 435 -292 l 10 -292 m 451 4 q 565 97 526 4 q 603 367 603 189 q 481 671 603 671 q 388 633 433 671 q 322 542 342 596 l 322 218 q 357 61 322 118 q 451 4 392 4 z "},"q":{"ha":804,"x_min":46,"x_max":856,"o":"m 431 -292 l 431 -278 q 513 -247 482 -278 q 543 -167 543 -217 l 543 132 q 444 24 508 67 q 306 -19 381 -19 q 172 28 231 -19 q 79 158 113 75 q 46 344 46 240 q 87 544 46 458 q 201 678 128 629 q 372 726 275 726 q 590 597 531 726 l 729 726 l 743 726 l 743 -167 q 774 -247 743 -217 q 856 -278 804 -278 l 856 -292 l 431 -292 m 379 36 q 443 56 410 36 q 503 109 476 76 q 543 178 531 142 l 543 515 q 504 653 538 603 q 415 703 471 703 q 301 610 340 703 q 263 339 263 518 q 379 36 263 36 z "},"r":{"ha":629,"x_min":8,"x_max":636,"o":"m 8 0 l 8 14 l 10 14 q 90 44 60 14 q 121 125 121 75 l 121 581 q 99 663 121 633 q 8 692 78 692 l 8 706 l 146 706 q 257 720 219 706 q 310 758 294 735 l 317 758 l 318 531 q 365 618 336 572 q 437 695 393 664 q 542 726 481 726 q 586 722 563 726 q 636 707 610 718 l 582 544 q 495 583 532 572 q 431 594 458 594 q 360 565 383 594 q 321 496 338 536 l 321 125 q 351 44 321 75 q 432 14 382 14 l 433 14 l 433 0 l 8 0 z "},"ŕ":{"ha":629,"x_min":8,"x_max":636,"o":"m 8 0 l 8 14 l 10 14 q 90 44 60 14 q 121 125 121 75 l 121 581 q 99 663 121 633 q 8 692 78 692 l 8 706 l 146 706 q 257 720 219 706 q 310 758 294 735 l 317 758 l 318 531 q 365 618 336 572 q 437 695 393 664 q 542 726 481 726 q 586 722 563 726 q 636 707 610 718 l 582 544 q 495 583 532 572 q 431 594 458 594 q 360 565 383 594 q 321 496 338 536 l 321 125 q 351 44 321 75 q 432 14 382 14 l 433 14 l 433 0 l 8 0 m 222 807 l 213 821 l 403 1089 l 410 1089 l 500 1008 l 500 1001 l 222 807 z "},"ř":{"ha":629,"x_min":8,"x_max":636,"o":"m 8 0 l 8 14 l 10 14 q 90 44 60 14 q 121 125 121 75 l 121 581 q 99 663 121 633 q 8 692 78 692 l 8 706 l 146 706 q 257 720 219 706 q 310 758 294 735 l 317 758 l 318 531 q 365 618 336 572 q 437 695 393 664 q 542 726 481 726 q 586 722 563 726 q 636 707 610 718 l 582 544 q 495 583 532 572 q 431 594 458 594 q 360 565 383 594 q 321 496 338 536 l 321 125 q 351 44 321 75 q 432 14 382 14 l 433 14 l 433 0 l 8 0 m 279 807 l 103 1079 l 113 1089 l 315 904 l 518 1089 l 528 1079 l 350 807 l 279 807 z "},"ŗ":{"ha":629,"x_min":8,"x_max":636,"o":"m 8 0 l 8 14 l 10 14 q 90 44 60 14 q 121 125 121 75 l 121 581 q 99 663 121 633 q 8 692 78 692 l 8 706 l 146 706 q 257 720 219 706 q 310 758 294 735 l 317 758 l 318 531 q 365 618 336 572 q 437 695 393 664 q 542 726 481 726 q 586 722 563 726 q 636 707 610 718 l 582 544 q 495 583 532 572 q 431 594 458 594 q 360 565 383 594 q 321 496 338 536 l 321 125 q 351 44 321 75 q 432 14 382 14 l 433 14 l 433 0 l 8 0 m 158 -504 l 146 -499 q 224 -411 190 -446 q 257 -331 257 -376 q 243 -294 257 -307 q 209 -274 229 -282 q 169 -257 189 -267 q 135 -229 149 -247 q 121 -178 121 -211 q 151 -101 121 -129 q 231 -72 182 -72 q 313 -106 282 -72 q 343 -199 343 -140 q 317 -313 343 -265 q 249 -406 292 -361 q 158 -504 207 -450 z "},"s":{"ha":578,"x_min":39,"x_max":544,"o":"m 283 -19 q 229 -17 247 -19 q 195 -10 211 -14 q 153 -3 179 -6 q 72 0 126 0 l 39 261 l 57 261 q 140 65 79 131 q 274 -1 201 -1 q 381 28 344 -1 q 418 107 418 57 q 402 163 418 139 q 347 213 386 188 q 242 275 308 239 l 201 297 q 88 398 125 340 q 51 522 51 456 q 120 671 51 617 q 304 725 189 725 q 351 722 333 725 q 386 715 369 719 q 428 708 403 711 q 494 706 453 706 l 514 482 l 497 482 q 460 598 489 547 q 393 677 432 649 q 314 706 354 706 q 230 678 261 706 q 199 600 199 650 q 223 531 199 563 q 317 464 247 500 l 358 443 q 500 339 456 393 q 544 200 544 285 q 283 -19 544 -17 z "},"ś":{"ha":578,"x_min":39,"x_max":544,"o":"m 283 -19 q 229 -17 247 -19 q 195 -10 211 -14 q 153 -3 179 -6 q 72 0 126 0 l 39 261 l 57 261 q 140 65 79 131 q 274 -1 201 -1 q 381 28 344 -1 q 418 107 418 57 q 402 163 418 139 q 347 213 386 188 q 242 275 308 239 l 201 297 q 88 398 125 340 q 51 522 51 456 q 120 671 51 617 q 304 725 189 725 q 351 722 333 725 q 386 715 369 719 q 428 708 403 711 q 494 706 453 706 l 514 482 l 497 482 q 460 598 489 547 q 393 677 432 649 q 314 706 354 706 q 230 678 261 706 q 199 600 199 650 q 223 531 199 563 q 317 464 247 500 l 358 443 q 500 339 456 393 q 544 200 544 285 q 283 -19 544 -17 m 196 807 l 186 821 l 376 1089 l 383 1089 l 474 1008 l 474 1001 l 196 807 z "},"š":{"ha":578,"x_min":39,"x_max":544,"o":"m 283 -19 q 229 -17 247 -19 q 195 -10 211 -14 q 153 -3 179 -6 q 72 0 126 0 l 39 261 l 57 261 q 140 65 79 131 q 274 -1 201 -1 q 381 28 344 -1 q 418 107 418 57 q 402 163 418 139 q 347 213 386 188 q 242 275 308 239 l 201 297 q 88 398 125 340 q 51 522 51 456 q 120 671 51 617 q 304 725 189 725 q 351 722 333 725 q 386 715 369 719 q 428 708 403 711 q 494 706 453 706 l 514 482 l 497 482 q 460 598 489 547 q 393 677 432 649 q 314 706 354 706 q 230 678 261 706 q 199 600 199 650 q 223 531 199 563 q 317 464 247 500 l 358 443 q 500 339 456 393 q 544 200 544 285 q 283 -19 544 -17 m 253 807 l 76 1079 l 86 1089 l 289 904 l 492 1089 l 501 1079 l 324 807 l 253 807 z "},"ş":{"ha":578,"x_min":39,"x_max":544,"o":"m 283 -19 q 229 -17 247 -19 q 195 -10 211 -14 q 153 -3 179 -6 q 72 0 126 0 l 39 261 l 57 261 q 140 65 79 131 q 274 -1 201 -1 q 381 28 344 -1 q 418 107 418 57 q 402 163 418 139 q 347 213 386 188 q 242 275 308 239 l 201 297 q 88 398 125 340 q 51 522 51 456 q 120 671 51 617 q 304 725 189 725 q 351 722 333 725 q 386 715 369 719 q 428 708 403 711 q 494 706 453 706 l 514 482 l 497 482 q 460 598 489 547 q 393 677 432 649 q 314 706 354 706 q 230 678 261 706 q 199 600 199 650 q 223 531 199 563 q 317 464 247 500 l 358 443 q 500 339 456 393 q 544 200 544 285 q 283 -19 544 -17 m 278 -312 q 243 -310 256 -312 q 216 -305 231 -307 q 175 -303 201 -303 l 149 -165 l 164 -165 q 258 -289 192 -289 q 302 -267 286 -289 q 318 -208 318 -246 q 295 -128 318 -162 q 239 -87 272 -94 l 239 -79 l 271 0 l 290 0 l 258 -78 q 383 -112 336 -79 q 429 -201 429 -146 q 388 -282 429 -251 q 278 -312 347 -312 z "},"ș":{"ha":578,"x_min":39,"x_max":544,"o":"m 283 -19 q 229 -17 247 -19 q 195 -10 211 -14 q 153 -3 179 -6 q 72 0 126 0 l 39 261 l 57 261 q 140 65 79 131 q 274 -1 201 -1 q 381 28 344 -1 q 418 107 418 57 q 402 163 418 139 q 347 213 386 188 q 242 275 308 239 l 201 297 q 88 398 125 340 q 51 522 51 456 q 120 671 51 617 q 304 725 189 725 q 351 722 333 725 q 386 715 369 719 q 428 708 403 711 q 494 706 453 706 l 514 482 l 497 482 q 460 598 489 547 q 393 677 432 649 q 314 706 354 706 q 230 678 261 706 q 199 600 199 650 q 223 531 199 563 q 317 464 247 500 l 358 443 q 500 339 456 393 q 544 200 544 285 q 283 -19 544 -17 m 215 -504 l 203 -499 q 281 -411 247 -446 q 314 -331 314 -376 q 300 -294 314 -307 q 266 -274 286 -282 q 226 -257 246 -267 q 192 -229 206 -247 q 178 -178 178 -211 q 208 -101 178 -129 q 288 -72 239 -72 q 369 -106 339 -72 q 400 -199 400 -140 q 374 -313 400 -265 q 306 -406 349 -361 q 215 -504 264 -450 z "},"ß":{"ha":982,"x_min":10,"x_max":960,"o":"m 669 -19 q 594 -15 622 -19 q 539 -5 567 -10 q 461 0 511 0 l 429 281 l 443 281 q 478 113 458 174 q 533 26 499 51 q 625 0 568 0 q 710 40 678 0 q 742 149 742 81 q 700 286 742 228 q 601 393 658 344 q 503 492 546 440 q 460 613 460 543 q 617 783 460 726 q 579 972 617 901 q 479 1042 542 1042 q 377 969 415 1042 q 339 776 339 897 l 339 0 l 10 0 l 11 14 l 13 14 q 93 44 63 14 q 124 125 124 75 l 124 581 q 93 661 124 631 q 13 692 63 692 l 11 692 l 10 706 l 125 706 l 126 742 q 169 910 126 839 q 287 1022 211 982 q 463 1061 363 1061 q 630 1026 557 1061 q 744 929 703 992 q 785 783 785 867 q 576 744 654 783 q 497 640 497 704 q 530 569 497 601 q 615 507 563 536 q 729 447 668 478 q 843 378 790 417 q 928 293 896 340 q 960 186 960 246 q 885 35 960 90 q 669 -19 810 -19 z "},"t":{"ha":550,"x_min":19,"x_max":532,"o":"m 301 -19 q 183 26 229 -19 q 138 146 138 72 l 138 681 l 19 681 l 19 699 q 191 760 115 706 q 315 906 267 814 l 338 906 l 338 706 l 522 706 l 508 681 l 338 681 l 338 176 q 413 65 338 65 q 470 81 438 65 q 532 121 503 96 l 532 107 q 424 15 486 49 q 301 -19 361 -19 z "},"ť":{"ha":550,"x_min":19,"x_max":729,"o":"m 301 -19 q 183 26 229 -19 q 138 146 138 72 l 138 681 l 19 681 l 19 699 q 191 760 115 706 q 315 906 267 814 l 338 906 l 338 706 l 522 706 l 508 681 l 338 681 l 338 176 q 413 65 338 65 q 470 81 438 65 q 532 121 503 96 l 532 107 q 424 15 486 49 q 301 -19 361 -19 m 544 671 l 536 686 q 588 722 567 706 q 619 751 608 738 q 643 804 643 778 q 622 845 643 832 q 575 868 601 858 q 527 898 547 878 q 507 956 507 918 q 537 1032 507 1003 q 615 1061 567 1061 q 699 1025 668 1061 q 729 922 729 989 q 689 797 729 853 q 544 671 649 740 z "},"ț":{"ha":550,"x_min":19,"x_max":532,"o":"m 301 -19 q 183 26 229 -19 q 138 146 138 72 l 138 681 l 19 681 l 19 699 q 191 760 115 706 q 315 906 267 814 l 338 906 l 338 706 l 522 706 l 508 681 l 338 681 l 338 176 q 413 65 338 65 q 470 81 438 65 q 532 121 503 96 l 532 107 q 424 15 486 49 q 301 -19 361 -19 m 243 -504 l 231 -499 q 308 -411 275 -446 q 342 -331 342 -376 q 328 -294 342 -307 q 294 -274 314 -282 q 253 -257 274 -267 q 219 -229 233 -247 q 206 -178 206 -211 q 236 -101 206 -129 q 315 -72 267 -72 q 397 -106 367 -72 q 428 -199 428 -140 q 402 -313 428 -265 q 334 -406 376 -361 q 243 -504 292 -450 z "},"u":{"ha":850,"x_min":-18,"x_max":874,"o":"m 567 -39 l 565 140 q 456 25 529 69 q 300 -19 382 -19 q 151 42 207 -19 q 94 203 94 103 l 94 581 q 74 663 94 633 q -18 692 53 692 l -18 706 l 122 706 q 231 721 193 706 q 279 758 265 736 l 293 758 l 293 189 q 321 78 293 119 q 393 36 349 36 q 482 73 436 36 q 563 172 528 110 l 563 581 q 538 661 563 631 q 451 692 513 692 l 451 706 l 592 706 q 700 721 663 706 q 750 758 736 736 l 764 758 l 763 125 q 793 44 763 75 q 874 13 824 13 l 874 0 l 736 0 q 672 -2 700 0 q 626 -7 644 -4 q 574 -39 589 -15 l 567 -39 z "},"ú":{"ha":850,"x_min":-18,"x_max":874,"o":"m 567 -39 l 565 140 q 456 25 529 69 q 300 -19 382 -19 q 151 42 207 -19 q 94 203 94 103 l 94 581 q 74 663 94 633 q -18 692 53 692 l -18 706 l 122 706 q 231 721 193 706 q 279 758 265 736 l 293 758 l 293 189 q 321 78 293 119 q 393 36 349 36 q 482 73 436 36 q 563 172 528 110 l 563 581 q 538 661 563 631 q 451 692 513 692 l 451 706 l 592 706 q 700 721 663 706 q 750 758 736 736 l 764 758 l 763 125 q 793 44 763 75 q 874 13 824 13 l 874 0 l 736 0 q 672 -2 700 0 q 626 -7 644 -4 q 574 -39 589 -15 l 567 -39 m 332 807 l 322 821 l 513 1089 l 519 1089 l 610 1008 l 610 1001 l 332 807 z "},"ŭ":{"ha":850,"x_min":-18,"x_max":874,"o":"m 567 -39 l 565 140 q 456 25 529 69 q 300 -19 382 -19 q 151 42 207 -19 q 94 203 94 103 l 94 581 q 74 663 94 633 q -18 692 53 692 l -18 706 l 122 706 q 231 721 193 706 q 279 758 265 736 l 293 758 l 293 189 q 321 78 293 119 q 393 36 349 36 q 482 73 436 36 q 563 172 528 110 l 563 581 q 538 661 563 631 q 451 692 513 692 l 451 706 l 592 706 q 700 721 663 706 q 750 758 736 736 l 764 758 l 763 125 q 793 44 763 75 q 874 13 824 13 l 874 0 l 736 0 q 672 -2 700 0 q 626 -7 644 -4 q 574 -39 589 -15 l 567 -39 m 425 858 q 297 914 338 858 q 254 1061 256 969 l 268 1061 q 317 976 271 1010 q 425 942 363 942 q 533 976 488 942 q 582 1061 579 1010 l 596 1061 q 553 914 594 969 q 425 858 511 858 z "},"û":{"ha":850,"x_min":-18,"x_max":874,"o":"m 567 -39 l 565 140 q 456 25 529 69 q 300 -19 382 -19 q 151 42 207 -19 q 94 203 94 103 l 94 581 q 74 663 94 633 q -18 692 53 692 l -18 706 l 122 706 q 231 721 193 706 q 279 758 265 736 l 293 758 l 293 189 q 321 78 293 119 q 393 36 349 36 q 482 73 436 36 q 563 172 528 110 l 563 581 q 538 661 563 631 q 451 692 513 692 l 451 706 l 592 706 q 700 721 663 706 q 750 758 736 736 l 764 758 l 763 125 q 793 44 763 75 q 874 13 824 13 l 874 0 l 736 0 q 672 -2 700 0 q 626 -7 644 -4 q 574 -39 589 -15 l 567 -39 m 222 807 l 213 817 l 389 1089 l 460 1089 l 638 817 l 628 807 l 425 992 l 222 807 z "},"ü":{"ha":850,"x_min":-18,"x_max":874,"o":"m 567 -39 l 565 140 q 456 25 529 69 q 300 -19 382 -19 q 151 42 207 -19 q 94 203 94 103 l 94 581 q 74 663 94 633 q -18 692 53 692 l -18 706 l 122 706 q 231 721 193 706 q 279 758 265 736 l 293 758 l 293 189 q 321 78 293 119 q 393 36 349 36 q 482 73 436 36 q 563 172 528 110 l 563 581 q 538 661 563 631 q 451 692 513 692 l 451 706 l 592 706 q 700 721 663 706 q 750 758 736 736 l 764 758 l 763 125 q 793 44 763 75 q 874 13 824 13 l 874 0 l 736 0 q 672 -2 700 0 q 626 -7 644 -4 q 574 -39 589 -15 l 567 -39 m 563 839 q 489 869 519 839 q 458 943 458 900 q 489 1017 458 986 q 563 1047 519 1047 q 635 1017 604 1047 q 667 943 667 986 q 635 869 667 900 q 563 839 604 839 m 288 839 q 214 869 244 839 q 183 943 183 900 q 214 1017 183 986 q 288 1047 244 1047 q 360 1017 329 1047 q 392 943 392 986 q 360 869 392 900 q 288 839 329 839 z "},"ù":{"ha":850,"x_min":-18,"x_max":874,"o":"m 567 -39 l 565 140 q 456 25 529 69 q 300 -19 382 -19 q 151 42 207 -19 q 94 203 94 103 l 94 581 q 74 663 94 633 q -18 692 53 692 l -18 706 l 122 706 q 231 721 193 706 q 279 758 265 736 l 293 758 l 293 189 q 321 78 293 119 q 393 36 349 36 q 482 73 436 36 q 563 172 528 110 l 563 581 q 538 661 563 631 q 451 692 513 692 l 451 706 l 592 706 q 700 721 663 706 q 750 758 736 736 l 764 758 l 763 125 q 793 44 763 75 q 874 13 824 13 l 874 0 l 736 0 q 672 -2 700 0 q 626 -7 644 -4 q 574 -39 589 -15 l 567 -39 m 517 807 l 239 1001 l 239 1008 l 329 1089 l 336 1089 l 526 821 l 517 807 z "},"ű":{"ha":850,"x_min":-18,"x_max":874,"o":"m 567 -39 l 565 140 q 456 25 529 69 q 300 -19 382 -19 q 151 42 207 -19 q 94 203 94 103 l 94 581 q 74 663 94 633 q -18 692 53 692 l -18 706 l 122 706 q 231 721 193 706 q 279 758 265 736 l 293 758 l 293 189 q 321 78 293 119 q 393 36 349 36 q 482 73 436 36 q 563 172 528 110 l 563 581 q 538 661 563 631 q 451 692 513 692 l 451 706 l 592 706 q 700 721 663 706 q 750 758 736 736 l 764 758 l 763 125 q 793 44 763 75 q 874 13 824 13 l 874 0 l 736 0 q 672 -2 700 0 q 626 -7 644 -4 q 574 -39 589 -15 l 567 -39 m 489 807 l 479 821 l 671 1089 l 678 1089 l 767 1008 l 767 1001 l 489 807 m 258 807 l 249 821 l 439 1089 l 446 1089 l 536 1008 l 536 1001 l 258 807 z "},"ū":{"ha":850,"x_min":-18,"x_max":874,"o":"m 567 -39 l 565 140 q 456 25 529 69 q 300 -19 382 -19 q 151 42 207 -19 q 94 203 94 103 l 94 581 q 74 663 94 633 q -18 692 53 692 l -18 706 l 122 706 q 231 721 193 706 q 279 758 265 736 l 293 758 l 293 189 q 321 78 293 119 q 393 36 349 36 q 482 73 436 36 q 563 172 528 110 l 563 581 q 538 661 563 631 q 451 692 513 692 l 451 706 l 592 706 q 700 721 663 706 q 750 758 736 736 l 764 758 l 763 125 q 793 44 763 75 q 874 13 824 13 l 874 0 l 736 0 q 672 -2 700 0 q 626 -7 644 -4 q 574 -39 589 -15 l 567 -39 m 272 932 l 272 1006 l 578 1006 l 578 932 l 272 932 z "},"ų":{"ha":850,"x_min":-18,"x_max":903,"o":"m 567 -39 l 565 140 q 456 25 529 69 q 300 -19 382 -19 q 151 42 207 -19 q 94 203 94 103 l 94 581 q 74 663 94 633 q -18 692 53 692 l -18 706 l 122 706 q 231 721 193 706 q 279 758 265 736 l 293 758 l 293 189 q 321 78 293 119 q 393 36 349 36 q 482 73 436 36 q 563 172 528 110 l 563 581 q 538 661 563 631 q 451 692 513 692 l 451 706 l 592 706 q 700 721 663 706 q 750 758 736 736 l 764 758 l 763 125 q 793 44 763 75 q 874 13 824 13 l 874 0 l 736 0 q 672 -2 700 0 q 626 -7 644 -4 q 574 -39 589 -15 l 567 -39 m 760 -311 q 648 -278 688 -311 q 608 -183 608 -244 q 667 -44 608 -97 q 822 10 726 10 l 842 10 l 842 1 q 754 -69 789 -15 q 719 -193 719 -124 q 735 -262 719 -237 q 781 -287 751 -287 q 845 -253 815 -287 q 888 -164 875 -218 l 903 -164 l 876 -301 q 817 -306 840 -301 q 791 -310 806 -308 q 760 -311 776 -311 z "},"ů":{"ha":850,"x_min":-18,"x_max":874,"o":"m 567 -39 l 565 140 q 456 25 529 69 q 300 -19 382 -19 q 151 42 207 -19 q 94 203 94 103 l 94 581 q 74 663 94 633 q -18 692 53 692 l -18 706 l 122 706 q 231 721 193 706 q 279 758 265 736 l 293 758 l 293 189 q 321 78 293 119 q 393 36 349 36 q 482 73 436 36 q 563 172 528 110 l 563 581 q 538 661 563 631 q 451 692 513 692 l 451 706 l 592 706 q 700 721 663 706 q 750 758 736 736 l 764 758 l 763 125 q 793 44 763 75 q 874 13 824 13 l 874 0 l 736 0 q 672 -2 700 0 q 626 -7 644 -4 q 574 -39 589 -15 l 567 -39 m 424 853 q 348 883 379 853 q 317 957 317 914 q 348 1031 317 1000 q 424 1061 379 1061 q 500 1031 468 1061 q 532 957 532 1000 q 500 883 532 914 q 424 853 468 853 m 424 879 q 478 902 456 879 q 501 957 501 925 q 478 1012 501 989 q 424 1035 456 1035 q 369 1012 392 1035 q 347 957 347 989 q 369 902 347 925 q 424 879 392 879 z "},"v":{"ha":660,"x_min":-58,"x_max":715,"o":"m 318 -22 l 42 617 q 5 669 28 649 q -58 692 -18 690 l -58 706 l 331 706 l 331 692 q 267 649 282 686 q 276 554 253 611 l 419 219 l 561 546 q 575 608 575 578 q 554 665 575 643 q 496 692 533 688 l 496 706 l 715 706 l 715 692 q 646 650 679 683 q 586 558 613 617 l 331 -22 l 318 -22 z "},"w":{"ha":1014,"x_min":-61,"x_max":1075,"o":"m 315 -22 l 40 617 q 3 670 26 650 q -61 692 -21 690 l -61 706 l 329 706 l 329 692 q 265 649 281 686 q 275 554 250 611 l 418 219 l 526 471 l 469 617 q 436 669 457 649 q 379 692 415 690 l 379 706 l 729 706 l 729 692 q 672 649 685 686 q 681 554 658 611 l 808 219 l 936 546 q 946 579 943 564 q 949 608 949 594 q 931 665 949 643 q 878 692 913 688 l 878 706 l 1075 706 l 1075 692 q 1013 650 1043 683 q 958 558 982 617 l 729 -22 l 718 -22 l 535 447 l 329 -22 l 315 -22 z "},"ẃ":{"ha":1014,"x_min":-61,"x_max":1075,"o":"m 315 -22 l 40 617 q 3 670 26 650 q -61 692 -21 690 l -61 706 l 329 706 l 329 692 q 265 649 281 686 q 275 554 250 611 l 418 219 l 526 471 l 469 617 q 436 669 457 649 q 379 692 415 690 l 379 706 l 729 706 l 729 692 q 672 649 685 686 q 681 554 658 611 l 808 219 l 936 546 q 946 579 943 564 q 949 608 949 594 q 931 665 949 643 q 878 692 913 688 l 878 706 l 1075 706 l 1075 692 q 1013 650 1043 683 q 958 558 982 617 l 729 -22 l 718 -22 l 535 447 l 329 -22 l 315 -22 m 442 807 l 432 821 l 622 1089 l 629 1089 l 719 1008 l 719 1001 l 442 807 z "},"ŵ":{"ha":1014,"x_min":-61,"x_max":1075,"o":"m 315 -22 l 40 617 q 3 670 26 650 q -61 692 -21 690 l -61 706 l 329 706 l 329 692 q 265 649 281 686 q 275 554 250 611 l 418 219 l 526 471 l 469 617 q 436 669 457 649 q 379 692 415 690 l 379 706 l 729 706 l 729 692 q 672 649 685 686 q 681 554 658 611 l 808 219 l 936 546 q 946 579 943 564 q 949 608 949 594 q 931 665 949 643 q 878 692 913 688 l 878 706 l 1075 706 l 1075 692 q 1013 650 1043 683 q 958 558 982 617 l 729 -22 l 718 -22 l 535 447 l 329 -22 l 315 -22 m 332 807 l 322 817 l 499 1089 l 569 1089 l 747 817 l 738 807 l 535 992 l 332 807 z "},"ẅ":{"ha":1014,"x_min":-61,"x_max":1075,"o":"m 315 -22 l 40 617 q 3 670 26 650 q -61 692 -21 690 l -61 706 l 329 706 l 329 692 q 265 649 281 686 q 275 554 250 611 l 418 219 l 526 471 l 469 617 q 436 669 457 649 q 379 692 415 690 l 379 706 l 729 706 l 729 692 q 672 649 685 686 q 681 554 658 611 l 808 219 l 936 546 q 946 579 943 564 q 949 608 949 594 q 931 665 949 643 q 878 692 913 688 l 878 706 l 1075 706 l 1075 692 q 1013 650 1043 683 q 958 558 982 617 l 729 -22 l 718 -22 l 535 447 l 329 -22 l 315 -22 m 672 839 q 599 869 629 839 q 568 943 568 900 q 599 1017 568 986 q 672 1047 629 1047 q 745 1017 714 1047 q 776 943 776 986 q 745 869 776 900 q 672 839 714 839 m 397 839 q 324 869 354 839 q 293 943 293 900 q 324 1017 293 986 q 397 1047 354 1047 q 470 1017 439 1047 q 501 943 501 986 q 470 869 501 900 q 397 839 439 839 z "},"ẁ":{"ha":1014,"x_min":-61,"x_max":1075,"o":"m 315 -22 l 40 617 q 3 670 26 650 q -61 692 -21 690 l -61 706 l 329 706 l 329 692 q 265 649 281 686 q 275 554 250 611 l 418 219 l 526 471 l 469 617 q 436 669 457 649 q 379 692 415 690 l 379 706 l 729 706 l 729 692 q 672 649 685 686 q 681 554 658 611 l 808 219 l 936 546 q 946 579 943 564 q 949 608 949 594 q 931 665 949 643 q 878 692 913 688 l 878 706 l 1075 706 l 1075 692 q 1013 650 1043 683 q 958 558 982 617 l 729 -22 l 718 -22 l 535 447 l 329 -22 l 315 -22 m 626 807 l 349 1001 l 349 1008 l 439 1089 l 446 1089 l 636 821 l 626 807 z "},"x":{"ha":689,"x_min":-7,"x_max":706,"o":"m -7 0 l -7 14 q 56 42 18 18 q 135 129 89 65 l 267 311 q 224 383 244 347 q 181 454 203 419 q 135 528 158 490 q 89 606 113 565 q 40 670 60 651 q -7 692 21 689 l -7 706 l 354 706 l 354 692 q 306 653 310 689 q 329 572 303 617 q 369 503 350 536 q 408 438 389 469 l 501 568 q 531 653 536 617 q 485 692 526 689 l 485 706 l 686 706 l 686 692 q 612 664 647 688 q 531 576 576 640 l 418 421 q 515 258 467 338 q 621 85 564 178 q 662 32 644 47 q 706 14 679 17 l 706 0 l 344 0 l 344 14 q 394 50 388 17 q 371 135 401 83 q 324 217 347 178 q 276 296 300 257 l 154 124 q 134 48 122 79 q 194 14 146 17 l 194 0 l -7 0 z "},"y":{"ha":619,"x_min":-93,"x_max":674,"o":"m 17 -311 q -93 -289 -40 -311 l -39 -126 q 37 -150 -4 -140 q 119 -160 78 -160 q 219 -138 172 -160 q 289 -58 265 -117 l 304 -21 l 29 617 q -8 670 15 650 q -71 692 -31 690 l -71 706 l 331 706 l 331 692 q 273 665 293 688 q 253 608 253 643 q 267 546 253 578 l 407 217 l 547 546 q 561 608 561 578 q 541 665 561 643 q 482 692 521 688 l 482 706 l 674 706 l 674 692 q 619 651 642 685 q 572 558 597 617 l 289 -100 q 174 -257 244 -203 q 17 -311 103 -311 z "},"ý":{"ha":619,"x_min":-93,"x_max":674,"o":"m 17 -311 q -93 -289 -40 -311 l -39 -126 q 37 -150 -4 -140 q 119 -160 78 -160 q 219 -138 172 -160 q 289 -58 265 -117 l 304 -21 l 29 617 q -8 670 15 650 q -71 692 -31 690 l -71 706 l 331 706 l 331 692 q 273 665 293 688 q 253 608 253 643 q 267 546 253 578 l 407 217 l 547 546 q 561 608 561 578 q 541 665 561 643 q 482 692 521 688 l 482 706 l 674 706 l 674 692 q 619 651 642 685 q 572 558 597 617 l 289 -100 q 174 -257 244 -203 q 17 -311 103 -311 m 324 807 l 314 821 l 504 1089 l 511 1089 l 601 1008 l 601 1001 l 324 807 z "},"ŷ":{"ha":619,"x_min":-93,"x_max":674,"o":"m 17 -311 q -93 -289 -40 -311 l -39 -126 q 37 -150 -4 -140 q 119 -160 78 -160 q 219 -138 172 -160 q 289 -58 265 -117 l 304 -21 l 29 617 q -8 670 15 650 q -71 692 -31 690 l -71 706 l 331 706 l 331 692 q 273 665 293 688 q 253 608 253 643 q 267 546 253 578 l 407 217 l 547 546 q 561 608 561 578 q 541 665 561 643 q 482 692 521 688 l 482 706 l 674 706 l 674 692 q 619 651 642 685 q 572 558 597 617 l 289 -100 q 174 -257 244 -203 q 17 -311 103 -311 m 214 807 l 204 817 l 381 1089 l 451 1089 l 629 817 l 619 807 l 417 992 l 214 807 z "},"ÿ":{"ha":619,"x_min":-93,"x_max":674,"o":"m 17 -311 q -93 -289 -40 -311 l -39 -126 q 37 -150 -4 -140 q 119 -160 78 -160 q 219 -138 172 -160 q 289 -58 265 -117 l 304 -21 l 29 617 q -8 670 15 650 q -71 692 -31 690 l -71 706 l 331 706 l 331 692 q 273 665 293 688 q 253 608 253 643 q 267 546 253 578 l 407 217 l 547 546 q 561 608 561 578 q 541 665 561 643 q 482 692 521 688 l 482 706 l 674 706 l 674 692 q 619 651 642 685 q 572 558 597 617 l 289 -100 q 174 -257 244 -203 q 17 -311 103 -311 m 554 839 q 481 869 511 839 q 450 943 450 900 q 481 1017 450 986 q 554 1047 511 1047 q 627 1017 596 1047 q 658 943 658 986 q 627 869 658 900 q 554 839 596 839 m 279 839 q 206 869 236 839 q 175 943 175 900 q 206 1017 175 986 q 279 1047 236 1047 q 352 1017 321 1047 q 383 943 383 986 q 352 869 383 900 q 279 839 321 839 z "},"ỳ":{"ha":619,"x_min":-93,"x_max":674,"o":"m 17 -311 q -93 -289 -40 -311 l -39 -126 q 37 -150 -4 -140 q 119 -160 78 -160 q 219 -138 172 -160 q 289 -58 265 -117 l 304 -21 l 29 617 q -8 670 15 650 q -71 692 -31 690 l -71 706 l 331 706 l 331 692 q 273 665 293 688 q 253 608 253 643 q 267 546 253 578 l 407 217 l 547 546 q 561 608 561 578 q 541 665 561 643 q 482 692 521 688 l 482 706 l 674 706 l 674 692 q 619 651 642 685 q 572 558 597 617 l 289 -100 q 174 -257 244 -203 q 17 -311 103 -311 m 508 807 l 231 1001 l 231 1008 l 321 1089 l 328 1089 l 518 821 l 508 807 z "},"z":{"ha":668,"x_min":36,"x_max":613,"o":"m 36 0 l 36 14 l 375 689 l 278 689 q 149 640 199 689 q 83 482 100 590 l 67 482 l 96 706 l 585 706 l 585 692 l 243 18 l 390 18 q 526 74 475 18 q 596 254 576 129 l 613 254 l 578 0 l 36 0 z "},"ź":{"ha":668,"x_min":36,"x_max":613,"o":"m 36 0 l 36 14 l 375 689 l 278 689 q 149 640 199 689 q 83 482 100 590 l 67 482 l 96 706 l 585 706 l 585 692 l 243 18 l 390 18 q 526 74 475 18 q 596 254 576 129 l 613 254 l 578 0 l 36 0 m 242 807 l 232 821 l 422 1089 l 429 1089 l 519 1008 l 519 1001 l 242 807 z "},"ž":{"ha":668,"x_min":36,"x_max":613,"o":"m 36 0 l 36 14 l 375 689 l 278 689 q 149 640 199 689 q 83 482 100 590 l 67 482 l 96 706 l 585 706 l 585 692 l 243 18 l 390 18 q 526 74 475 18 q 596 254 576 129 l 613 254 l 578 0 l 36 0 m 299 807 l 122 1079 l 132 1089 l 335 904 l 538 1089 l 547 1079 l 369 807 l 299 807 z "},"ż":{"ha":668,"x_min":36,"x_max":613,"o":"m 36 0 l 36 14 l 375 689 l 278 689 q 149 640 199 689 q 83 482 100 590 l 67 482 l 96 706 l 585 706 l 585 692 l 243 18 l 390 18 q 526 74 475 18 q 596 254 576 129 l 613 254 l 578 0 l 36 0 m 335 846 q 252 878 285 846 q 219 961 219 911 q 252 1044 219 1011 q 335 1076 285 1076 q 416 1043 383 1076 q 449 961 449 1010 q 416 879 449 913 q 335 846 383 846 z "},"ﬁ":{"ha":856,"x_min":-6,"x_max":878,"o":"m 0 0 l 0 14 q 81 44 50 14 q 113 125 113 75 l 113 681 l -6 681 l 8 706 l 113 706 l 113 738 q 153 919 113 842 q 268 1040 194 997 q 442 1083 342 1083 q 565 1065 507 1083 q 666 1015 624 1047 q 725 938 708 982 l 558 843 q 524 1004 557 943 q 436 1065 490 1065 q 346 997 379 1065 q 313 811 313 928 l 313 706 l 594 706 q 698 718 661 706 q 751 758 735 731 l 765 758 l 765 125 q 796 44 765 75 q 876 14 826 14 l 878 14 l 878 0 l 0 0 m 425 14 l 453 14 q 535 44 504 14 q 565 125 565 75 l 565 571 q 546 652 565 624 q 481 681 526 681 l 313 681 l 313 125 q 344 45 313 76 q 425 14 375 14 z "},"ﬂ":{"ha":856,"x_min":-6,"x_max":878,"o":"m 0 0 l 0 14 q 81 44 50 14 q 113 125 113 75 l 113 681 l -6 681 l 8 706 l 113 706 l 113 738 q 154 918 113 840 q 270 1040 196 996 q 444 1083 344 1083 q 626 1043 550 1083 q 751 1094 722 1049 l 765 1094 l 765 125 q 796 44 765 75 q 876 14 826 14 l 878 14 l 878 0 l 0 0 m 425 14 l 453 14 q 535 44 504 14 q 565 125 565 75 l 565 853 q 529 1006 565 946 q 439 1065 493 1065 q 347 997 382 1065 q 313 811 313 928 l 313 706 l 497 706 l 483 681 l 313 681 l 313 125 q 344 44 313 75 q 425 14 375 14 z "},"ª":{"ha":581,"x_min":44,"x_max":603,"o":"m 185 503 q 83 537 121 503 q 44 628 44 571 q 63 692 44 664 q 128 748 82 721 q 260 806 175 775 l 357 840 l 357 919 q 338 1013 357 979 q 286 1047 318 1047 q 219 996 246 1047 q 182 854 192 944 l 69 919 q 163 1022 97 983 q 307 1061 228 1061 q 452 1011 397 1061 q 507 878 507 961 l 507 626 q 547 565 504 565 q 594 592 572 565 l 603 585 q 538 526 576 549 q 461 503 499 503 q 393 530 421 503 q 358 601 365 557 q 268 524 307 546 q 185 503 229 503 m 263 567 q 356 615 304 567 l 357 826 l 315 811 q 230 769 258 790 q 192 724 201 749 q 183 668 183 700 q 206 595 183 624 q 263 567 228 567 z "},"º":{"ha":653,"x_min":39,"x_max":613,"o":"m 326 503 q 176 538 240 503 q 75 636 111 574 q 39 782 39 699 q 75 928 39 865 q 176 1026 111 992 q 326 1061 240 1061 q 477 1026 413 1061 q 577 928 542 992 q 613 782 613 865 q 577 636 613 699 q 477 538 542 574 q 326 503 413 503 m 325 517 q 386 552 361 517 q 424 647 411 588 q 438 783 438 707 q 407 976 438 903 q 326 1049 376 1049 q 266 1013 292 1049 q 227 917 240 976 q 214 783 214 857 q 227 651 214 711 q 265 553 240 590 q 325 517 290 517 z "},"π":{"ha":793,"x_min":47,"x_max":815,"o":"m 163 -19 q 117 1 139 -19 q 83 56 96 22 q 69 128 69 90 q 95 232 69 182 q 157 339 121 282 q 226 468 193 396 q 278 638 260 540 l 211 638 q 60 572 114 638 l 47 578 q 100 642 67 613 q 170 689 133 671 q 238 707 207 707 l 788 707 l 788 638 l 640 638 q 633 510 635 589 q 636 346 632 432 q 652 207 640 271 q 685 104 664 143 q 736 65 706 65 q 773 83 757 65 q 794 128 789 100 l 815 128 q 749 21 799 61 q 631 -19 699 -19 q 479 194 479 -19 q 486 315 479 243 q 506 469 493 386 q 536 638 519 553 l 369 638 q 343 388 361 504 q 299 183 325 271 q 163 -19 236 -19 z "},"⁄":{"ha":778,"x_min":14,"x_max":764,"o":"m 14 0 l 743 1042 l 764 1042 l 35 0 l 14 0 z "},"½":{"ha":1021,"x_min":78,"x_max":954,"o":"m 96 488 l 96 501 q 140 515 124 501 q 157 556 157 529 l 157 839 q 142 914 157 894 q 78 935 126 933 l 78 949 l 96 949 q 172 964 135 949 q 236 1005 210 979 q 268 1061 263 1031 l 282 1061 l 282 556 q 343 501 282 501 l 343 488 l 96 488 m 124 0 l 851 1042 l 872 1042 l 144 0 l 124 0 m 551 0 l 551 8 q 693 188 633 114 q 785 322 753 261 q 817 447 817 383 q 797 530 817 499 q 743 561 776 561 q 681 535 713 561 q 627 467 650 510 q 597 375 604 425 l 586 375 l 614 558 q 649 560 631 558 q 686 565 667 563 q 724 570 706 568 q 761 572 743 572 q 896 529 844 572 q 947 417 947 486 q 922 332 947 372 q 833 241 896 292 q 656 117 769 190 l 840 117 q 903 122 883 117 q 930 146 922 128 q 943 199 938 164 l 954 199 l 924 0 l 551 0 z "},"⅓":{"ha":1008,"x_min":78,"x_max":943,"o":"m 96 488 l 96 501 q 140 515 124 501 q 157 556 157 529 l 157 839 q 142 914 157 894 q 78 935 126 933 l 78 949 l 96 949 q 172 964 135 949 q 236 1005 210 979 q 268 1061 263 1031 l 282 1061 l 282 556 q 343 501 282 501 l 343 488 l 96 488 m 124 0 l 851 1042 l 872 1042 l 144 0 l 124 0 m 736 -19 q 703 -18 718 -19 q 675 -14 688 -17 q 614 -10 650 -10 l 590 158 l 603 158 q 647 40 613 82 q 725 -3 681 -3 q 802 43 769 -3 q 835 168 835 89 q 809 272 835 236 q 743 308 783 308 q 679 290 710 308 l 679 304 q 761 389 736 346 q 786 485 786 432 q 776 534 786 521 q 742 547 765 547 q 661 508 694 547 q 617 396 628 469 l 604 396 l 628 553 q 663 554 647 553 q 693 558 679 556 q 722 563 707 561 q 756 564 738 564 q 859 538 819 564 q 899 471 899 513 q 867 401 899 435 q 783 349 836 368 q 899 307 856 356 q 943 174 943 258 q 885 34 943 88 q 736 -19 826 -19 z "},"⅔":{"ha":1056,"x_min":83,"x_max":990,"o":"m 83 488 l 83 501 q 213 678 158 593 q 296 832 267 763 q 325 947 325 901 q 303 1023 325 994 q 250 1051 282 1051 q 186 1024 213 1051 q 144 961 160 997 q 122 894 128 925 l 108 894 l 132 1050 q 163 1051 147 1050 q 196 1056 179 1053 q 228 1060 211 1058 q 261 1061 244 1061 q 391 1027 340 1061 q 442 938 442 993 q 406 830 442 890 q 309 706 369 769 q 174 588 249 643 l 338 588 q 386 590 368 588 q 414 606 404 592 q 429 656 424 619 l 442 656 l 414 488 l 83 488 m 171 0 l 899 1042 l 919 1042 l 192 0 l 171 0 m 783 -19 q 750 -18 765 -19 q 722 -14 735 -17 q 661 -10 697 -10 l 638 158 l 650 158 q 694 40 660 82 q 772 -3 728 -3 q 849 43 817 -3 q 882 168 882 89 q 856 272 882 236 q 790 308 831 308 q 726 290 757 308 l 726 304 q 808 389 783 346 q 833 485 833 432 q 823 534 833 521 q 789 547 813 547 q 708 508 742 547 q 664 396 675 469 l 651 396 l 675 553 q 710 554 694 553 q 740 558 726 556 q 769 563 754 561 q 803 564 785 564 q 906 538 867 564 q 946 471 946 513 q 915 401 946 435 q 831 349 883 368 q 947 307 903 356 q 990 174 990 258 q 932 34 990 88 q 783 -19 874 -19 z "},"¼":{"ha":968,"x_min":76,"x_max":872,"o":"m 96 488 l 96 501 q 140 515 124 501 q 157 556 157 528 l 157 839 q 145 909 157 886 q 76 935 133 932 l 76 949 l 96 949 q 180 967 143 949 q 240 1010 217 985 q 269 1061 264 1036 l 282 1061 l 282 556 q 299 515 282 528 q 343 501 315 501 l 343 488 l 96 488 m 124 0 l 851 1042 l 872 1042 l 144 0 l 124 0 m 597 0 l 599 8 q 642 24 625 8 q 660 65 658 39 l 660 128 l 438 128 l 438 135 l 767 589 l 775 589 l 775 222 l 863 222 l 863 128 l 775 128 l 775 69 q 792 25 775 42 q 836 8 808 8 l 838 0 l 597 0 m 515 222 l 660 222 l 660 421 l 515 222 z "},"¾":{"ha":996,"x_min":90,"x_max":900,"o":"m 236 478 q 203 479 218 478 q 175 483 188 481 q 114 488 150 488 l 90 656 l 103 656 q 147 537 113 579 q 225 494 181 494 q 302 540 269 494 q 335 665 335 586 q 309 769 335 733 q 243 806 283 806 q 179 788 210 806 l 179 801 q 261 886 236 843 q 286 982 286 929 q 276 1031 286 1018 q 242 1044 265 1044 q 161 1006 194 1044 q 117 893 128 967 l 104 893 l 128 1050 q 163 1051 147 1050 q 193 1056 179 1053 q 222 1060 207 1058 q 256 1061 238 1061 q 359 1035 319 1061 q 399 968 399 1010 q 367 899 399 932 q 283 846 336 865 q 399 804 356 853 q 443 671 443 756 q 385 531 443 585 q 236 478 326 478 m 151 0 l 879 1042 l 900 1042 l 172 0 l 151 0 m 597 0 l 599 8 q 642 24 625 8 q 660 65 658 39 l 660 128 l 438 128 l 438 135 l 767 589 l 775 589 l 775 222 l 863 222 l 863 128 l 775 128 l 775 69 q 792 25 775 42 q 836 8 808 8 l 838 0 l 597 0 m 515 222 l 660 222 l 660 421 l 515 222 z "},"₁":{"ha":388,"x_min":64,"x_max":329,"o":"m 82 -181 l 82 -167 q 126 -153 110 -167 q 143 -112 143 -140 l 143 171 q 131 240 143 217 q 64 267 119 264 l 64 281 l 82 281 q 167 299 131 281 q 226 343 203 317 q 254 393 249 369 l 268 393 l 268 -112 q 285 -153 268 -140 q 329 -167 301 -167 l 329 -181 l 82 -181 z "},"₂":{"ha":488,"x_min":64,"x_max":422,"o":"m 64 -181 l 64 -167 q 193 10 139 -75 q 276 164 247 94 q 306 279 306 233 q 284 355 306 326 q 231 383 263 383 q 167 356 193 383 q 124 293 140 329 q 103 226 108 257 l 89 226 l 113 382 q 144 383 128 382 q 176 388 160 385 q 208 392 192 390 q 242 393 225 393 q 372 359 321 393 q 422 269 422 325 q 386 162 422 222 q 290 38 350 101 q 154 -81 229 -25 l 318 -81 q 367 -78 349 -81 q 394 -62 385 -76 q 410 -12 404 -49 l 422 -12 l 394 -181 l 64 -181 z "},"₃":{"ha":476,"x_min":64,"x_max":417,"o":"m 210 -200 q 176 -199 192 -200 q 149 -194 161 -197 q 88 -190 124 -190 l 64 -22 l 76 -22 q 120 -141 86 -99 q 199 -183 154 -183 q 276 -137 243 -183 q 308 -12 308 -92 q 283 92 308 56 q 217 128 257 128 q 153 110 183 128 l 153 124 q 235 208 210 165 q 260 304 260 251 q 249 353 260 340 q 215 367 239 367 q 135 328 168 367 q 90 215 101 289 l 78 215 l 101 372 q 137 374 121 372 q 167 378 153 375 q 196 382 181 381 q 229 383 211 383 q 333 358 293 383 q 372 290 372 332 q 341 221 372 254 q 257 168 310 188 q 373 126 329 175 q 417 -7 417 78 q 360 -147 417 -94 q 210 -200 303 -200 z "},"₄":{"ha":486,"x_min":7,"x_max":432,"o":"m 167 -181 l 168 -172 q 211 -157 194 -172 q 229 -115 228 -142 l 229 -53 l 7 -53 l 7 -46 l 336 408 l 344 408 l 344 42 l 432 42 l 432 -53 l 344 -53 l 344 -111 q 361 -156 344 -139 q 406 -172 378 -172 l 407 -181 l 167 -181 m 85 42 l 229 42 l 229 240 l 85 42 z "},"₅":{"ha":463,"x_min":39,"x_max":404,"o":"m 190 -200 q 156 -199 172 -200 q 126 -194 140 -197 q 97 -190 113 -192 q 64 -189 81 -189 l 39 -18 l 50 -18 q 94 -139 60 -94 q 176 -183 128 -183 q 260 -135 229 -183 q 292 -8 292 -87 q 260 115 292 69 q 176 160 229 160 q 112 142 143 160 q 63 96 81 125 l 56 96 l 93 400 q 247 344 169 344 q 382 400 326 344 l 382 386 q 283 288 340 322 q 161 254 226 254 q 89 269 126 254 l 75 158 q 129 168 96 158 q 208 178 160 178 q 351 128 297 178 q 404 -6 404 78 q 345 -147 404 -93 q 190 -200 286 -200 z "},"₆":{"ha":522,"x_min":54,"x_max":472,"o":"m 281 -200 q 115 -119 176 -200 q 54 92 54 -39 q 83 250 54 182 q 165 356 113 318 q 285 394 217 394 q 318 393 300 394 q 354 389 336 392 q 392 385 374 386 q 428 383 410 383 l 447 224 l 440 224 q 397 334 432 290 q 314 378 361 378 q 244 344 274 378 q 199 252 215 310 q 179 122 182 194 q 236 163 200 147 q 313 178 272 178 q 428 129 385 178 q 472 -1 472 81 q 420 -146 472 -92 q 281 -200 368 -200 m 272 -183 q 338 -134 313 -183 q 363 -21 363 -85 q 333 96 363 50 q 260 142 304 142 q 216 131 238 142 q 179 104 194 121 l 179 90 q 178 83 178 88 q 178 76 178 79 l 178 65 q 203 -115 178 -49 q 272 -183 228 -183 z "},"₇":{"ha":393,"x_min":32,"x_max":410,"o":"m 119 -181 q 145 -8 119 -96 q 217 158 171 79 q 326 292 264 236 l 181 290 q 97 290 125 290 q 58 277 68 289 q 43 233 47 265 l 32 233 l 54 393 l 410 393 l 410 379 q 317 231 357 319 q 255 36 276 142 q 233 -181 233 -69 l 119 -181 z "},"₈":{"ha":517,"x_min":49,"x_max":468,"o":"m 258 -200 q 106 -148 163 -200 q 49 -10 49 -96 q 95 119 49 68 q 222 179 142 169 q 117 215 156 186 q 78 286 78 243 q 127 365 78 335 q 258 394 176 394 q 390 365 340 394 q 439 286 439 335 q 400 215 439 243 q 294 179 361 186 q 422 119 375 169 q 468 -10 468 68 q 411 -148 468 -96 q 258 -200 354 -200 m 258 188 q 300 215 285 188 q 315 286 315 242 q 300 356 315 331 q 258 382 285 382 q 217 356 232 382 q 201 286 201 331 q 217 215 201 242 q 258 188 232 188 m 260 -183 q 324 -135 300 -183 q 347 -4 347 -86 q 324 124 347 76 q 260 172 300 172 q 194 124 219 172 q 169 -6 169 75 q 194 -135 169 -86 q 260 -183 219 -183 z "},"₉":{"ha":519,"x_min":47,"x_max":465,"o":"m 235 -200 q 202 -199 219 -200 q 165 -194 185 -197 q 128 -190 147 -192 q 92 -189 110 -189 l 72 -29 l 79 -29 q 123 -140 88 -96 q 206 -183 158 -183 q 301 -113 264 -183 q 340 72 339 -43 q 283 32 319 47 q 207 17 247 17 q 91 65 135 17 q 47 196 47 114 q 99 340 47 286 q 239 394 151 394 q 404 314 343 394 q 465 103 465 233 q 436 -56 465 13 q 355 -162 407 -124 q 235 -200 303 -200 m 260 53 q 303 63 282 53 q 340 90 325 74 q 342 99 342 94 q 342 106 342 103 l 342 129 q 317 311 342 243 q 247 378 292 378 q 185 332 213 378 q 157 215 157 286 q 186 99 157 144 q 260 53 215 53 z "},"¹":{"ha":388,"x_min":64,"x_max":329,"o":"m 82 488 l 82 501 q 126 515 110 501 q 143 556 143 528 l 143 839 q 131 908 143 885 q 64 935 119 932 l 64 949 l 82 949 q 167 967 131 949 q 226 1011 203 985 q 254 1061 249 1038 l 268 1061 l 268 556 q 285 515 268 528 q 329 501 301 501 l 329 488 l 82 488 z "},"²":{"ha":488,"x_min":64,"x_max":422,"o":"m 64 488 l 64 501 q 193 678 139 593 q 276 832 247 763 q 306 947 306 901 q 284 1023 306 994 q 231 1051 263 1051 q 167 1024 193 1051 q 124 961 140 997 q 103 894 108 925 l 89 894 l 113 1050 q 144 1051 128 1050 q 176 1056 160 1053 q 208 1060 192 1058 q 242 1061 225 1061 q 372 1027 321 1061 q 422 938 422 993 q 386 830 422 890 q 290 706 350 769 q 154 588 229 643 l 318 588 q 367 590 349 588 q 394 606 385 592 q 410 656 404 619 l 422 656 l 394 488 l 64 488 z "},"³":{"ha":476,"x_min":64,"x_max":417,"o":"m 210 478 q 176 479 192 478 q 149 483 161 481 q 88 488 124 488 l 64 656 l 76 656 q 120 537 86 579 q 199 494 154 494 q 276 540 243 494 q 308 665 308 586 q 283 769 308 733 q 217 806 257 806 q 153 788 183 806 l 153 801 q 235 886 210 843 q 260 982 260 929 q 249 1031 260 1018 q 215 1044 239 1044 q 135 1006 168 1044 q 90 893 101 967 l 78 893 l 101 1050 q 137 1051 121 1050 q 167 1056 153 1053 q 196 1060 181 1058 q 229 1061 211 1061 q 333 1035 293 1061 q 372 968 372 1010 q 341 899 372 932 q 257 846 310 865 q 373 804 329 853 q 417 671 417 756 q 358 531 417 585 q 210 478 300 478 z "},"⁴":{"ha":486,"x_min":7,"x_max":432,"o":"m 167 476 l 168 485 q 211 500 194 485 q 229 542 228 515 l 229 604 l 7 604 l 7 611 l 336 1065 l 344 1065 l 344 699 l 432 699 l 432 604 l 344 604 l 344 546 q 361 501 344 518 q 406 485 378 485 l 407 476 l 167 476 m 85 699 l 229 699 l 229 897 l 85 699 z "},"⁵":{"ha":463,"x_min":39,"x_max":404,"o":"m 190 463 q 156 464 172 463 q 126 468 140 465 q 97 472 113 471 q 64 474 81 474 l 39 644 l 50 644 q 94 524 60 568 q 176 479 128 479 q 260 527 229 479 q 292 654 292 575 q 260 777 292 732 q 176 822 229 822 q 112 805 143 822 q 63 758 81 788 l 56 758 l 93 1063 q 247 1007 169 1007 q 382 1063 326 1007 l 382 1049 q 283 951 340 985 q 161 917 226 917 q 89 932 126 917 l 75 821 q 129 831 96 821 q 208 840 160 840 q 351 790 297 840 q 404 657 404 740 q 345 516 404 569 q 190 463 286 463 z "},"⁶":{"ha":522,"x_min":54,"x_max":472,"o":"m 281 467 q 115 547 176 467 q 54 758 54 628 q 83 917 54 849 q 165 1023 113 985 q 285 1061 217 1061 q 318 1060 300 1061 q 354 1056 336 1058 q 392 1051 374 1053 q 428 1050 410 1050 l 447 890 l 440 890 q 397 1001 432 957 q 314 1044 361 1044 q 244 1010 274 1044 q 199 919 215 976 q 179 789 182 861 q 236 829 200 814 q 313 844 272 844 q 428 796 385 844 q 472 665 472 747 q 420 521 472 575 q 281 467 368 467 m 272 483 q 338 533 313 483 q 363 646 363 582 q 333 763 363 717 q 260 808 304 808 q 216 798 238 808 q 179 771 194 788 l 179 757 q 178 750 178 754 q 178 743 178 746 l 178 732 q 203 551 178 618 q 272 483 228 483 z "},"⁷":{"ha":393,"x_min":32,"x_max":410,"o":"m 119 468 q 144 642 119 554 q 216 806 169 729 q 326 940 263 883 l 181 939 q 97 938 125 939 q 58 926 68 938 q 43 882 47 914 l 32 882 l 54 1042 l 410 1042 l 410 1028 q 317 879 357 968 q 255 685 276 790 q 233 468 233 579 l 119 468 z "},"⁸":{"ha":517,"x_min":49,"x_max":468,"o":"m 258 467 q 106 519 163 467 q 49 657 49 571 q 95 785 49 735 q 222 846 142 836 q 117 881 156 853 q 78 953 78 910 q 127 1031 78 1001 q 258 1061 176 1061 q 390 1031 340 1061 q 439 953 439 1001 q 400 881 439 910 q 294 846 361 853 q 422 785 375 836 q 468 657 468 735 q 411 519 468 571 q 258 467 354 467 m 258 854 q 300 881 285 854 q 315 953 315 908 q 300 1023 315 997 q 258 1049 285 1049 q 217 1023 232 1049 q 201 953 201 997 q 217 881 201 908 q 258 854 232 854 m 260 483 q 324 532 300 483 q 347 663 347 581 q 324 791 347 743 q 260 839 300 839 q 194 790 219 839 q 169 661 169 742 q 194 532 169 581 q 260 483 219 483 z "},"⁹":{"ha":519,"x_min":47,"x_max":465,"o":"m 235 467 q 202 468 219 467 q 165 472 185 469 q 128 476 147 475 q 92 478 110 478 l 72 638 l 79 638 q 123 527 88 571 q 206 483 158 483 q 276 517 247 483 q 322 610 306 551 q 340 739 339 668 q 283 699 319 714 q 207 683 247 683 q 91 732 135 683 q 47 863 47 781 q 99 1007 47 953 q 239 1061 151 1061 q 404 981 343 1061 q 465 769 465 900 q 436 611 465 679 q 355 505 407 543 q 235 467 303 467 m 260 719 q 303 730 282 719 q 340 757 325 740 q 342 765 342 761 q 342 772 342 769 l 342 796 q 317 978 342 910 q 247 1044 292 1044 q 185 999 213 1044 q 157 882 157 953 q 186 765 157 811 q 260 719 215 719 z "},"\r":{"ha":347,"x_min":0,"x_max":0,"o":""}," ":{"ha":299,"x_min":0,"x_max":0,"o":""}," ":{"ha":299,"x_min":0,"x_max":0,"o":""},"⟨":{"ha":528,"x_min":64,"x_max":458,"o":"m 436 -278 l 64 394 l 64 407 l 436 1083 l 458 1083 l 82 400 l 458 -278 l 436 -278 z "},"⟩":{"ha":526,"x_min":69,"x_max":464,"o":"m 69 -278 l 446 400 l 69 1083 l 92 1083 l 464 407 l 464 394 l 92 -278 l 69 -278 z "},".":{"ha":347,"x_min":56,"x_max":292,"o":"m 174 -19 q 90 15 125 -19 q 56 99 56 50 q 92 183 56 150 q 174 217 128 217 q 256 183 219 217 q 292 99 292 150 q 257 15 292 50 q 174 -19 222 -19 z "},",":{"ha":306,"x_min":42,"x_max":264,"o":"m 79 -215 l 67 -210 q 122 -147 97 -174 q 163 -97 147 -121 q 178 -42 178 -72 q 164 -6 178 -18 q 130 15 150 7 q 90 32 110 22 q 56 60 69 42 q 42 111 42 78 q 72 188 42 160 q 151 217 103 217 q 233 183 203 217 q 264 90 264 149 q 238 -25 264 24 q 171 -118 213 -74 q 79 -215 129 -162 z "},":":{"ha":319,"x_min":42,"x_max":278,"o":"m 160 475 q 76 510 111 475 q 42 593 42 544 q 78 678 42 644 q 160 711 114 711 q 242 678 206 711 q 278 593 278 644 q 243 510 278 544 q 160 475 208 475 m 160 -19 q 76 15 111 -19 q 42 99 42 50 q 78 183 42 150 q 160 217 114 217 q 242 183 206 217 q 278 99 278 150 q 243 15 278 50 q 160 -19 208 -19 z "},";":{"ha":319,"x_min":42,"x_max":278,"o":"m 160 475 q 76 510 111 475 q 42 593 42 544 q 78 678 42 644 q 160 711 114 711 q 242 678 206 711 q 278 593 278 644 q 243 510 278 544 q 160 475 208 475 m 86 -215 l 74 -210 q 129 -147 104 -174 q 169 -97 154 -121 q 185 -42 185 -72 q 171 -6 185 -18 q 137 15 157 7 q 97 32 117 22 q 63 60 76 42 q 49 111 49 78 q 78 188 49 160 q 157 217 108 217 q 240 183 208 217 q 271 90 271 149 q 245 -25 271 24 q 178 -118 219 -74 q 86 -215 136 -162 z "},"…":{"ha":925,"x_min":42,"x_max":883,"o":"m 765 -19 q 682 15 717 -19 q 647 99 647 50 q 683 183 647 150 q 765 217 719 217 q 847 183 811 217 q 883 99 883 150 q 849 15 883 50 q 765 -19 814 -19 m 160 -19 q 76 15 111 -19 q 42 99 42 50 q 78 183 42 150 q 160 217 114 217 q 242 183 206 217 q 278 99 278 150 q 243 15 278 50 q 160 -19 208 -19 m 463 -19 q 379 15 414 -19 q 344 99 344 50 q 381 183 344 150 q 463 217 417 217 q 544 183 508 217 q 581 99 581 150 q 546 15 581 50 q 463 -19 511 -19 z "},"!":{"ha":322,"x_min":42,"x_max":281,"o":"m 154 376 q 137 594 154 506 q 100 747 119 683 q 63 853 81 808 q 44 943 44 899 q 76 1028 44 996 q 161 1061 108 1061 q 248 1028 215 1061 q 281 943 281 996 q 263 853 281 899 q 225 747 246 808 q 185 594 203 683 q 168 376 168 506 l 154 376 m 160 -19 q 76 15 111 -19 q 42 99 42 50 q 78 183 42 150 q 160 217 114 217 q 242 183 206 217 q 278 99 278 150 q 243 15 278 50 q 160 -19 208 -19 z "},"¡":{"ha":374,"x_min":72,"x_max":311,"o":"m 193 489 q 110 523 144 489 q 75 606 75 557 q 110 690 75 654 q 193 725 146 725 q 276 690 240 725 q 311 606 311 654 q 278 524 311 558 q 193 489 244 489 m 190 -297 q 105 -265 138 -297 q 72 -178 72 -232 q 90 -90 72 -133 q 131 13 108 -47 q 169 159 151 74 q 185 374 186 244 l 199 374 q 215 159 197 244 q 253 13 232 74 q 290 -90 272 -47 q 308 -178 308 -133 q 276 -265 308 -232 q 190 -297 243 -297 z "},"?":{"ha":619,"x_min":42,"x_max":578,"o":"m 246 376 q 256 540 246 476 q 280 642 265 603 q 308 711 294 682 q 347 824 335 764 q 358 931 358 883 q 338 1015 358 989 q 265 1042 318 1042 q 131 947 183 1042 q 56 692 79 853 l 42 692 l 88 1042 q 161 1047 129 1042 q 224 1056 193 1051 q 294 1061 256 1061 q 505 1015 432 1061 q 578 893 578 969 q 555 813 578 849 q 499 748 532 776 q 433 698 465 719 q 379 661 400 676 q 293 553 326 617 q 260 376 260 490 l 246 376 m 254 -19 q 171 15 206 -19 q 136 99 136 50 q 172 183 136 150 q 254 217 208 217 q 336 183 300 217 q 372 99 372 150 q 338 15 372 50 q 254 -19 303 -19 z "},"¿":{"ha":603,"x_min":42,"x_max":578,"o":"m 365 489 q 282 524 317 489 q 247 606 247 558 q 282 690 247 654 q 365 725 317 725 q 449 690 414 725 q 483 606 483 654 q 449 524 483 558 q 365 489 414 489 m 313 -297 q 227 -290 274 -297 q 138 -265 181 -283 q 69 -216 96 -247 q 42 -135 42 -185 q 65 -56 42 -90 q 124 10 88 -21 q 201 71 160 40 q 276 141 240 100 q 336 239 313 182 q 360 374 360 296 l 374 374 q 357 205 374 276 q 317 75 340 133 q 278 -40 294 17 q 261 -167 261 -97 q 276 -244 261 -211 q 343 -278 292 -278 q 441 -241 401 -278 q 506 -149 481 -204 q 544 -33 531 -93 q 564 72 557 26 l 578 72 l 532 -278 q 477 -281 504 -279 q 422 -287 450 -283 q 368 -295 396 -293 q 313 -297 340 -297 z "},"·":{"ha":321,"x_min":43,"x_max":279,"o":"m 161 235 q 78 269 113 235 q 43 353 43 304 q 79 438 43 404 q 161 471 115 471 q 243 438 207 471 q 279 353 279 404 q 244 269 279 304 q 161 235 210 235 z "},"•":{"ha":556,"x_min":42,"x_max":514,"o":"m 278 200 q 163 231 217 200 q 75 317 108 263 q 42 436 42 371 q 73 553 42 500 q 158 640 104 607 q 278 672 213 672 q 398 640 344 672 q 483 553 451 607 q 514 436 514 500 q 483 321 514 375 q 398 233 451 267 q 278 200 344 200 z "},"*":{"ha":464,"x_min":39,"x_max":426,"o":"m 232 644 q 194 660 206 644 q 183 692 183 675 q 193 731 183 711 q 214 776 203 750 q 226 843 225 803 q 171 797 189 819 q 143 757 153 774 q 117 731 133 740 q 92 724 106 724 q 51 749 67 724 q 46 789 39 772 q 68 815 53 806 q 108 826 89 826 q 154 830 128 826 q 221 853 181 833 q 155 879 183 875 q 106 883 126 883 q 68 892 85 883 q 46 917 53 900 q 51 957 39 935 q 92 982 67 982 q 118 975 101 982 q 147 947 136 964 q 174 908 157 929 q 226 864 190 888 q 214 929 225 903 q 193 976 203 956 q 183 1014 183 996 q 194 1046 183 1031 q 232 1061 206 1061 q 269 1046 258 1061 q 281 1014 281 1031 q 271 976 281 996 q 251 929 261 956 q 238 864 240 903 q 291 908 275 888 q 317 947 307 929 q 346 975 328 964 q 372 983 358 983 q 413 957 396 983 q 418 917 425 935 q 396 892 411 900 q 356 881 379 883 q 304 875 333 879 q 242 853 275 871 q 304 832 275 836 q 357 826 333 828 q 396 815 381 824 q 419 789 411 806 q 413 749 426 772 q 372 724 399 724 q 347 731 358 724 q 322 757 332 740 q 294 797 311 774 q 238 843 276 819 q 251 774 240 800 q 271 729 261 747 q 281 693 281 711 q 269 660 281 675 q 232 644 258 644 z "},"‖":{"ha":201,"x_min":50,"x_max":151,"o":"m 124 0 l 124 1083 l 151 1083 l 151 0 l 124 0 m 50 0 l 50 1083 l 78 1083 l 78 0 l 50 0 z "},"#":{"ha":797,"x_min":43,"x_max":754,"o":"m 164 -21 l 146 -19 l 206 238 l 43 238 l 43 414 l 246 414 l 296 628 l 107 628 l 107 804 l 338 804 l 397 1063 l 415 1061 l 356 804 l 572 804 l 632 1063 l 650 1061 l 590 804 l 754 804 l 753 628 l 550 628 l 500 414 l 689 414 l 689 238 l 460 238 l 400 -21 l 382 -19 l 442 238 l 224 238 l 164 -21 m 265 414 l 482 414 l 532 628 l 314 628 l 265 414 z "},"/":{"ha":351,"x_min":15,"x_max":338,"o":"m 15 -278 l 319 1042 l 338 1042 l 33 -278 l 15 -278 z "},"\\":{"ha":351,"x_min":15,"x_max":338,"o":"m 319 -279 l 15 1042 l 33 1043 l 338 -278 l 319 -279 z "},"-":{"ha":428,"x_min":40,"x_max":388,"o":"m 40 382 l 40 451 l 388 451 l 388 382 l 40 382 z "},"–":{"ha":631,"x_min":42,"x_max":590,"o":"m 42 410 l 42 424 l 590 424 l 590 410 l 42 410 z "},"—":{"ha":1178,"x_min":40,"x_max":1138,"o":"m 40 410 l 40 424 l 1138 424 l 1138 410 l 40 410 z "},"_":{"ha":568,"x_min":42,"x_max":528,"o":"m 42 -76 l 42 -62 l 528 -62 l 528 -76 l 42 -76 z "},"(":{"ha":485,"x_min":42,"x_max":456,"o":"m 447 -215 q 307 -107 379 -172 q 176 46 235 -42 q 79 243 117 133 q 42 486 42 353 q 79 729 42 619 q 176 926 117 839 q 307 1078 235 1013 q 447 1186 379 1143 l 456 1176 q 381 1046 415 1117 q 324 890 347 975 q 285 705 299 806 q 271 486 271 604 q 285 268 271 368 q 324 82 299 168 q 381 -74 347 -3 q 456 -206 415 -146 l 447 -215 z "},")":{"ha":485,"x_min":28,"x_max":442,"o":"m 36 -215 l 28 -206 q 102 -74 68 -146 q 161 82 136 -3 q 199 268 185 168 q 213 486 213 368 q 199 705 213 604 q 161 890 185 806 q 102 1046 136 975 q 28 1176 68 1117 l 36 1186 q 176 1078 104 1143 q 308 926 249 1013 q 404 729 367 839 q 442 486 442 619 q 404 243 442 353 q 308 46 367 133 q 176 -107 249 -42 q 36 -215 104 -172 z "},"{":{"ha":442,"x_min":43,"x_max":428,"o":"m 428 -215 q 189 -83 261 -187 q 146 217 117 21 q 155 344 157 283 q 127 442 153 404 q 43 479 101 479 l 43 493 q 126 531 101 493 q 153 628 150 569 q 146 751 156 688 q 188 1054 117 950 q 428 1186 260 1158 l 428 1172 q 348 1083 365 1144 q 339 950 331 1022 q 338 757 356 838 q 285 622 321 676 q 197 534 247 567 q 99 486 147 501 q 197 438 147 471 q 285 350 247 406 q 338 214 321 294 q 339 21 356 133 q 348 -112 331 -51 q 428 -201 365 -174 l 428 -215 z "},"}":{"ha":442,"x_min":15,"x_max":400,"o":"m 15 -215 l 15 -201 q 81 -147 60 -182 q 106 -67 101 -111 q 103 21 110 -22 q 105 214 88 133 q 160 350 122 294 q 246 439 196 406 q 344 488 296 472 q 246 535 296 503 q 160 622 196 567 q 105 757 122 676 q 103 950 88 838 q 106 1038 110 993 q 81 1118 101 1082 q 15 1172 60 1154 l 15 1186 q 255 1054 183 1158 q 297 751 326 950 q 291 628 289 688 q 317 531 293 569 q 400 493 342 493 l 400 479 q 317 442 342 479 q 289 346 292 406 q 296 217 286 286 q 254 -83 326 21 q 15 -215 182 -187 z "},"[":{"ha":501,"x_min":56,"x_max":486,"o":"m 56 -215 l 56 1186 l 486 1186 l 486 1172 l 278 1172 l 278 -201 l 486 -201 l 486 -215 l 56 -215 z "},"]":{"ha":501,"x_min":14,"x_max":444,"o":"m 14 -215 l 14 -201 l 222 -201 l 222 1172 l 14 1172 l 14 1186 l 444 1186 l 444 -215 l 14 -215 z "},"‚":{"ha":306,"x_min":42,"x_max":264,"o":"m 79 -215 l 67 -210 q 122 -147 97 -174 q 163 -97 147 -121 q 178 -42 178 -72 q 164 -6 178 -18 q 130 15 150 7 q 90 32 110 22 q 56 60 69 42 q 42 111 42 78 q 72 188 42 160 q 151 217 103 217 q 233 183 203 217 q 264 90 264 149 q 238 -25 264 24 q 171 -118 213 -74 q 79 -215 129 -162 z "},"„":{"ha":578,"x_min":42,"x_max":535,"o":"m 350 -215 l 338 -210 q 393 -147 368 -174 q 433 -97 418 -121 q 449 -42 449 -72 q 435 -6 449 -18 q 401 15 421 7 q 360 32 381 22 q 326 60 340 42 q 313 111 313 78 q 343 188 313 160 q 422 217 374 217 q 504 183 474 217 q 535 90 535 149 q 509 -25 535 24 q 442 -118 483 -74 q 350 -215 400 -162 m 79 -215 l 67 -210 q 122 -147 97 -174 q 163 -97 147 -121 q 178 -42 178 -72 q 164 -6 178 -18 q 130 15 150 7 q 90 32 110 22 q 56 60 69 42 q 42 111 42 78 q 72 188 42 160 q 151 217 103 217 q 233 183 203 217 q 264 90 264 149 q 238 -25 264 24 q 171 -118 213 -74 q 79 -215 129 -162 z "},"“":{"ha":578,"x_min":43,"x_max":536,"o":"m 426 699 q 344 733 375 699 q 314 825 314 767 q 340 940 314 892 q 408 1033 365 989 q 499 1131 450 1078 l 511 1125 q 456 1063 481 1089 q 415 1012 431 1036 q 400 957 400 988 q 414 921 400 933 q 448 901 428 908 q 488 883 468 893 q 522 856 508 874 q 536 804 536 838 q 506 727 536 756 q 426 699 475 699 m 156 699 q 74 733 104 699 q 43 825 43 767 q 69 940 43 892 q 137 1033 94 989 q 228 1131 179 1078 l 240 1125 q 185 1063 210 1089 q 144 1012 160 1036 q 129 957 129 988 q 143 921 129 933 q 177 901 157 908 q 217 883 197 893 q 251 856 238 874 q 265 804 265 838 q 235 727 265 756 q 156 699 204 699 z "},"”":{"ha":578,"x_min":43,"x_max":536,"o":"m 351 699 l 339 704 q 417 792 383 757 q 450 872 450 826 q 436 908 450 896 q 402 928 422 921 q 362 946 382 936 q 328 974 342 956 q 314 1025 314 992 q 344 1102 314 1074 q 424 1131 375 1131 q 506 1097 475 1131 q 536 1004 536 1063 q 510 890 536 938 q 442 797 485 842 q 351 699 400 753 m 81 699 l 68 704 q 146 792 113 757 q 179 872 179 826 q 165 908 179 896 q 131 928 151 921 q 91 946 111 936 q 57 974 71 956 q 43 1025 43 992 q 74 1102 43 1074 q 153 1131 104 1131 q 235 1097 204 1131 q 265 1004 265 1063 q 240 890 265 938 q 172 797 214 842 q 81 699 129 753 z "},"‘":{"ha":307,"x_min":43,"x_max":265,"o":"m 156 699 q 74 733 104 699 q 43 825 43 767 q 69 940 43 892 q 137 1033 94 989 q 228 1131 179 1078 l 240 1125 q 185 1063 210 1089 q 144 1012 160 1036 q 129 957 129 988 q 143 921 129 933 q 177 901 157 908 q 217 883 197 893 q 251 856 238 874 q 265 804 265 838 q 235 727 265 756 q 156 699 204 699 z "},"’":{"ha":307,"x_min":43,"x_max":265,"o":"m 81 740 l 72 756 q 124 791 103 775 q 156 821 144 807 q 179 874 179 847 q 158 915 179 901 q 111 938 138 928 q 63 967 83 947 q 43 1025 43 988 q 73 1101 43 1072 q 151 1131 103 1131 q 235 1094 204 1131 q 265 992 265 1058 q 225 866 265 922 q 81 740 185 810 z "},"«":{"ha":485,"x_min":36,"x_max":443,"o":"m 433 133 l 236 343 q 236 363 226 353 l 433 572 l 443 563 l 333 353 l 443 143 l 433 133 m 243 133 l 46 343 q 46 363 36 353 l 243 572 l 253 563 l 143 353 l 253 143 l 243 133 z "},"»":{"ha":486,"x_min":43,"x_max":450,"o":"m 243 133 l 233 143 l 343 353 l 233 563 l 243 572 l 440 363 q 440 343 450 353 l 243 133 m 53 133 l 43 143 l 153 353 l 43 563 l 53 572 l 249 363 q 249 343 258 353 l 53 133 z "},"‹":{"ha":296,"x_min":38,"x_max":253,"o":"m 243 133 l 47 343 q 47 363 38 353 l 243 572 l 253 563 l 143 353 l 253 143 l 243 133 z "},"›":{"ha":296,"x_min":43,"x_max":260,"o":"m 53 133 l 43 143 l 153 353 l 43 563 l 53 572 l 250 363 q 250 343 260 353 l 53 133 z "},"\"":{"ha":489,"x_min":42,"x_max":446,"o":"m 349 717 q 336 812 349 774 q 307 878 324 850 q 278 931 290 907 q 265 981 265 954 q 290 1038 265 1015 q 356 1061 315 1061 q 420 1038 394 1061 q 446 981 446 1015 q 433 931 446 954 q 404 878 421 907 q 375 812 388 850 q 363 717 363 774 l 349 717 m 125 717 q 113 812 125 774 q 83 878 100 850 q 54 931 67 907 q 42 981 42 954 q 67 1038 42 1015 q 132 1061 92 1061 q 197 1038 171 1061 q 222 981 222 1015 q 210 931 222 954 q 181 878 197 907 q 151 812 164 850 q 139 717 139 774 l 125 717 z "},"'":{"ha":265,"x_min":43,"x_max":224,"o":"m 126 717 q 114 812 126 774 q 85 878 101 850 q 56 931 68 907 q 43 981 43 954 q 68 1038 43 1015 q 132 1061 93 1061 q 198 1038 172 1061 q 224 981 224 1015 q 211 931 224 954 q 182 878 199 907 q 153 812 165 850 q 140 717 140 774 l 126 717 z "},"฿":{"ha":847,"x_min":42,"x_max":792,"o":"m 42 46 l 42 57 l 43 58 q 111 83 85 58 q 138 147 138 107 l 138 835 q 109 899 135 875 q 43 924 83 924 l 42 925 l 42 936 l 394 936 q 415 936 406 936 l 415 1042 l 429 1042 l 429 935 q 631 878 553 929 q 710 742 710 826 q 652 620 710 671 q 497 557 594 569 q 711 487 631 551 q 792 315 792 422 q 746 176 792 236 q 618 83 700 117 q 429 46 536 49 l 429 -62 l 415 -62 l 415 46 l 411 46 l 42 46 m 321 565 l 394 565 q 415 567 406 565 l 415 917 q 394 918 406 918 l 321 918 l 321 565 m 529 743 q 503 856 529 811 q 429 914 476 901 l 429 569 q 503 629 476 583 q 529 743 529 675 m 321 149 q 411 64 321 64 q 412 64 411 64 q 415 64 413 64 l 415 543 q 394 544 406 544 l 321 544 l 321 149 m 601 299 q 556 465 601 400 q 429 542 510 531 l 429 65 q 555 133 508 71 q 601 299 601 196 z "},"@":{"ha":1360,"x_min":44,"x_max":1317,"o":"m 597 -204 q 301 -134 426 -201 q 110 56 176 -67 q 46 342 44 178 q 102 600 49 482 q 250 805 156 718 q 472 939 344 892 q 750 985 600 986 q 1051 917 924 983 q 1248 735 1179 851 q 1313 463 1317 619 q 1272 264 1311 347 q 1164 135 1232 181 q 1008 90 1096 90 l 996 90 q 818 141 883 90 q 758 279 753 192 q 649 140 714 190 q 513 89 583 89 q 384 153 432 89 q 343 335 336 218 q 399 530 349 447 q 531 658 449 613 q 713 700 613 703 q 790 690 757 699 q 856 674 824 682 q 915 659 890 664 q 956 654 939 654 q 992 664 979 654 q 1011 693 1004 674 l 1025 693 l 940 297 q 1006 113 901 113 q 1072 135 1044 111 q 1117 198 1100 160 q 1145 281 1135 236 q 1160 367 1156 326 q 1167 435 1165 408 q 1120 715 1171 597 q 975 897 1069 832 q 749 964 881 963 q 540 921 636 965 q 370 794 443 876 q 256 601 297 713 q 211 358 214 490 q 264 87 210 203 q 421 -94 318 -29 q 665 -161 524 -158 l 672 -161 q 803 -148 736 -161 q 931 -112 871 -135 q 1035 -60 992 -89 l 1044 -71 q 856 -167 974 -131 q 604 -204 738 -204 l 597 -204 m 614 169 q 685 203 651 169 q 747 292 719 236 q 788 419 774 349 l 828 610 q 813 658 835 639 q 749 678 790 676 l 743 678 q 638 638 685 678 q 564 527 592 597 q 531 364 536 457 q 547 218 525 267 q 614 169 571 169 z "},"&":{"ha":1061,"x_min":39,"x_max":1013,"o":"m 371 -19 q 197 11 271 -19 q 81 95 122 42 q 39 218 39 149 q 103 376 39 301 q 288 504 167 450 l 260 542 q 171 683 197 625 q 144 807 144 742 q 182 942 144 885 q 287 1030 219 999 q 443 1061 354 1061 q 590 1035 526 1061 q 688 963 653 1008 q 724 857 724 917 q 661 704 724 778 q 489 579 599 631 l 746 256 q 801 362 779 308 q 824 446 824 415 q 799 502 824 478 q 735 531 774 526 l 707 533 l 707 549 l 993 549 l 993 533 l 968 531 q 831 385 879 521 q 813 344 822 363 q 794 307 804 325 q 775 274 785 289 q 758 243 765 258 l 786 207 q 856 119 826 154 q 903 68 886 85 q 947 35 922 49 q 990 19 971 22 l 1013 17 l 1013 1 l 701 1 q 626 81 672 29 q 510 4 569 28 q 371 -19 451 -19 m 479 593 q 556 692 528 629 q 583 835 583 756 q 545 988 583 931 q 443 1044 507 1044 q 356 1001 389 1044 q 322 883 322 957 q 347 775 322 825 q 408 681 372 725 q 479 593 444 636 m 475 44 q 615 90 561 44 l 299 493 q 239 322 239 451 q 304 120 239 196 q 475 44 369 44 z "},"¶":{"ha":492,"x_min":42,"x_max":449,"o":"m 315 -69 l 315 631 l 267 631 q 101 685 160 631 q 42 836 42 739 q 101 988 42 933 q 267 1042 160 1042 l 449 1042 l 449 -69 l 433 -69 l 433 1028 l 331 1028 l 331 -69 l 315 -69 z "},"§":{"ha":713,"x_min":46,"x_max":601,"o":"m 303 -258 q 256 -255 274 -258 q 221 -248 239 -251 q 172 -241 203 -244 q 82 -237 140 -237 l 46 50 l 60 50 q 150 -159 79 -81 q 317 -237 221 -237 q 421 -207 379 -237 q 463 -131 463 -176 q 411 -24 463 -82 q 272 86 360 33 q 60 376 60 214 q 108 516 60 453 q 233 604 156 579 q 106 728 151 660 q 60 863 60 796 q 95 967 60 922 q 193 1036 131 1011 q 336 1061 256 1061 q 400 1056 375 1061 q 458 1046 425 1051 q 551 1040 492 1040 l 564 794 l 550 794 q 475 975 532 910 q 340 1040 418 1040 q 254 1009 288 1040 q 221 928 221 978 q 381 738 221 822 q 545 602 489 676 q 601 442 601 528 q 556 295 601 361 q 440 203 511 229 q 560 81 518 144 q 601 -47 601 17 q 563 -157 601 -110 q 456 -231 524 -204 q 303 -258 389 -258 m 426 213 q 475 263 457 232 q 493 326 493 293 q 435 454 493 385 q 282 575 376 524 l 268 583 q 254 590 261 586 q 197 538 219 571 q 175 468 175 504 q 225 360 175 417 q 367 251 275 303 q 398 232 383 242 q 426 213 413 222 z "},"©":{"ha":1194,"x_min":50,"x_max":1144,"o":"m 597 -19 q 387 21 486 -22 q 211 140 288 64 q 92 315 135 217 q 53 521 50 413 q 92 729 50 631 q 211 903 135 828 q 387 1020 288 978 q 597 1061 486 1063 q 808 1020 708 1063 q 983 903 907 978 q 1102 729 1060 828 q 1142 521 1144 631 q 1102 315 1144 413 q 983 140 1060 217 q 808 21 907 64 q 597 -19 708 -22 m 597 10 q 791 49 699 8 q 956 163 883 90 q 1069 328 1028 236 q 1108 521 1110 421 q 1068 716 1110 624 q 953 880 1026 808 q 788 992 881 951 q 597 1032 696 1033 q 406 992 499 1033 q 241 880 314 951 q 126 716 168 808 q 86 521 85 624 q 126 328 85 421 q 239 163 167 236 q 403 49 311 90 q 597 10 496 8 m 631 178 q 427 221 515 178 q 290 341 339 264 q 240 522 240 418 q 290 702 240 625 q 429 822 339 779 q 642 864 519 864 q 704 860 681 864 q 755 853 728 857 q 829 850 782 850 l 863 644 l 849 644 q 772 791 831 735 q 629 847 713 847 q 506 805 560 847 q 423 688 453 763 q 393 515 393 613 q 423 348 393 419 q 507 236 453 276 q 633 196 561 196 q 775 247 715 196 q 856 397 835 299 l 869 397 l 838 193 q 761 190 792 193 q 702 182 731 186 q 631 178 674 178 z "},"®":{"ha":575,"x_min":18,"x_max":557,"o":"m 288 517 q 145 551 206 517 q 51 645 85 585 q 18 785 18 706 q 52 927 18 867 q 147 1022 86 988 q 288 1056 207 1056 q 428 1022 368 1056 q 523 927 489 988 q 557 785 557 867 q 524 645 557 706 q 430 551 490 585 q 288 517 369 517 m 288 540 q 464 606 399 540 q 529 785 529 672 q 463 966 529 900 q 288 1032 397 1032 q 112 966 178 1032 q 46 785 46 900 q 111 606 46 672 q 288 540 176 540 m 153 625 l 153 635 q 186 664 186 635 l 186 906 q 153 939 186 939 l 153 949 l 292 949 q 363 926 336 949 q 390 864 390 903 q 372 810 390 832 q 321 783 353 788 q 357 743 339 778 l 401 665 q 442 635 421 635 l 442 625 l 356 625 q 332 668 340 644 l 290 746 q 272 776 281 769 q 254 782 267 782 l 250 782 l 250 664 q 285 635 250 635 l 285 625 l 153 625 m 250 790 l 271 790 q 331 865 331 790 q 315 921 331 901 q 274 940 300 940 l 250 940 l 250 790 z "},"™":{"ha":1201,"x_min":35,"x_max":1168,"o":"m 788 526 l 600 954 l 569 613 q 584 567 567 585 q 626 549 601 550 l 626 535 l 492 535 l 492 549 q 535 569 517 551 q 556 613 553 586 l 589 978 q 558 1013 579 997 q 507 1028 538 1028 l 507 1042 l 669 1042 l 831 665 l 996 1042 l 1125 1042 l 1125 1028 q 1086 1017 1100 1028 q 1075 979 1072 1006 l 1108 594 q 1130 560 1111 572 q 1168 549 1149 549 l 1168 535 l 958 535 l 958 549 q 993 560 976 549 q 1007 592 1010 572 l 975 958 l 788 526 m 158 535 l 158 549 q 198 564 183 549 q 213 603 213 579 l 213 1028 l 188 1028 q 98 997 136 1028 q 49 890 60 967 l 35 890 l 56 1042 l 476 1042 l 496 890 l 482 890 q 433 997 471 965 q 342 1028 394 1028 l 318 1028 l 318 603 q 333 564 318 579 q 372 549 347 549 l 372 535 l 158 535 z "},"°":{"ha":422,"x_min":47,"x_max":375,"o":"m 211 775 q 131 795 168 775 q 70 851 93 815 q 47 932 47 888 q 96 1046 47 1001 q 211 1090 144 1090 q 326 1046 278 1090 q 375 932 375 1001 q 352 851 375 888 q 292 795 329 815 q 211 775 254 775 m 211 801 q 303 840 264 801 q 342 932 342 878 q 303 1026 342 988 q 211 1064 264 1064 q 121 1026 160 1064 q 82 932 82 988 q 121 840 82 878 q 211 801 160 801 z "},"′":{"ha":354,"x_min":56,"x_max":264,"o":"m 56 717 q 83 810 76 774 q 90 872 90 847 q 87 918 90 897 q 83 964 83 939 q 108 1035 83 1008 q 172 1061 132 1061 q 238 1040 211 1061 q 264 988 264 1018 q 242 932 264 956 q 190 883 221 908 q 126 818 158 857 q 69 717 93 779 l 56 717 z "},"″":{"ha":604,"x_min":56,"x_max":514,"o":"m 306 717 q 333 810 326 774 q 340 872 340 847 q 337 918 340 897 q 333 964 333 939 q 358 1035 333 1008 q 422 1061 382 1061 q 488 1040 461 1061 q 514 988 514 1018 q 492 932 514 956 q 440 883 471 908 q 376 818 408 857 q 319 717 343 779 l 306 717 m 56 717 q 83 810 76 774 q 90 872 90 847 q 87 918 90 897 q 83 964 83 939 q 108 1035 83 1008 q 172 1061 132 1061 q 238 1040 211 1061 q 264 988 264 1018 q 242 932 264 956 q 190 883 221 908 q 126 818 158 857 q 69 717 93 779 l 56 717 z "},"|":{"ha":99,"x_min":42,"x_max":56,"o":"m 42 -97 l 42 1139 l 56 1139 l 56 -97 l 42 -97 z "},"¦":{"ha":99,"x_min":42,"x_max":56,"o":"m 42 569 l 42 1139 l 56 1139 l 56 569 l 42 569 m 42 -97 l 42 403 l 56 403 l 56 -97 l 42 -97 z "},"†":{"ha":514,"x_min":42,"x_max":472,"o":"m 250 -139 l 250 911 q 169 901 197 911 q 125 879 142 890 q 89 868 108 868 q 57 879 72 868 q 42 917 42 890 q 57 954 42 943 q 90 965 72 965 q 131 955 108 965 q 182 933 153 944 q 250 922 211 922 q 240 993 250 964 q 218 1044 229 1022 q 207 1083 207 1067 q 221 1117 207 1104 q 257 1131 235 1131 q 293 1117 279 1131 q 307 1083 307 1103 q 297 1044 307 1067 q 275 993 286 1022 q 264 922 264 964 q 333 933 304 922 q 383 955 361 944 q 424 965 406 965 q 457 954 442 965 q 472 917 472 943 q 457 879 472 890 q 425 868 442 868 q 385 879 407 868 q 333 901 363 890 q 264 911 304 911 l 264 -139 l 250 -139 z "},"ℓ":{"ha":688,"x_min":28,"x_max":667,"o":"m 43 165 l 28 186 q 74 224 50 204 q 121 264 97 243 q 121 279 121 271 l 121 757 q 159 913 121 844 q 264 1022 197 982 q 418 1061 331 1061 q 558 1015 508 1061 q 607 885 607 969 q 581 766 607 824 q 510 649 556 708 q 440 568 479 610 q 358 481 401 526 l 358 186 q 385 61 358 100 q 471 22 411 22 q 572 60 525 22 q 642 163 619 99 l 667 156 q 576 25 644 69 q 399 -19 508 -19 q 122 231 144 -19 q 43 165 82 196 m 357 846 l 357 519 q 515 706 453 618 q 578 882 578 793 q 547 986 578 946 q 469 1026 517 1026 q 387 978 417 1026 q 357 846 357 929 z "},"‡":{"ha":515,"x_min":43,"x_max":474,"o":"m 258 -158 q 222 -146 236 -158 q 208 -111 208 -133 q 219 -72 208 -93 q 241 -20 231 -50 q 251 50 251 10 q 172 40 200 50 q 126 18 143 29 q 90 7 110 7 q 58 18 74 7 q 43 56 43 29 q 58 92 43 81 q 90 104 72 104 q 126 94 110 104 q 172 72 143 83 q 251 61 200 61 l 251 382 q 225 453 251 426 q 154 479 199 479 l 147 479 l 147 493 l 154 493 q 225 519 199 493 q 251 590 251 546 l 251 911 q 172 901 200 911 q 126 879 143 890 q 90 868 110 868 q 58 879 72 868 q 43 917 43 890 q 58 954 43 943 q 90 965 74 965 q 126 955 110 965 q 172 933 143 944 q 251 922 200 922 q 241 993 251 964 q 219 1044 231 1022 q 208 1083 208 1067 q 222 1117 208 1104 q 258 1131 236 1131 q 294 1117 281 1131 q 308 1083 308 1103 q 298 1044 308 1067 q 276 993 288 1022 q 265 922 265 964 q 334 933 306 922 q 385 955 363 944 q 425 965 407 965 q 458 954 443 965 q 474 917 474 943 q 458 879 474 890 q 425 868 443 868 q 385 879 407 868 q 334 901 363 890 q 265 911 306 911 l 265 588 q 292 519 267 544 q 363 493 318 493 l 369 493 l 369 479 l 363 479 q 292 453 318 479 q 265 382 265 426 l 265 61 q 334 72 306 61 q 385 94 363 83 q 425 104 407 104 q 458 92 443 104 q 474 56 474 81 q 458 18 474 29 q 425 7 443 7 q 385 18 407 7 q 334 40 363 29 q 265 50 306 50 q 276 -20 265 10 q 298 -72 288 -50 q 308 -111 308 -93 q 294 -145 308 -132 q 258 -158 281 -158 z "},"℮":{"ha":890,"x_min":47,"x_max":857,"o":"m 457 -47 q 244 7 336 -47 q 99 158 151 61 q 47 383 47 256 q 98 608 47 510 q 241 762 149 706 q 458 818 333 818 q 664 765 576 818 q 801 615 751 713 q 857 382 851 517 l 267 382 l 267 21 q 447 -28 336 -28 q 790 176 668 -28 l 813 163 q 653 3 738 53 q 457 -47 568 -47 m 267 403 l 640 403 l 640 754 q 460 799 583 799 q 267 753 340 799 l 267 403 z "},"№":{"ha":1574,"x_min":-7,"x_max":1528,"o":"m 921 -19 l 193 908 q 172 933 183 921 q 150 954 160 946 l 150 160 q 186 57 150 100 q 282 14 222 14 l 282 0 l -7 0 l -7 14 q 90 57 54 14 q 126 161 126 100 l 126 974 q -6 1028 64 1021 l -6 1042 l 351 1042 l 897 338 l 897 882 q 861 985 897 942 q 765 1028 825 1028 l 765 1042 l 1053 1042 l 1053 1028 q 957 985 993 1028 q 921 882 921 942 l 921 -19 m 1290 239 q 1118 303 1185 239 q 1051 472 1051 367 q 1118 642 1051 579 q 1290 706 1185 706 q 1463 642 1399 706 q 1528 472 1528 579 q 1463 302 1528 365 q 1290 239 1399 239 m 1288 260 q 1360 318 1332 260 q 1388 474 1388 376 q 1360 629 1388 569 q 1290 686 1332 686 q 1219 628 1246 686 q 1192 474 1192 571 q 1219 318 1192 378 q 1288 260 1247 260 m 1061 0 l 1061 69 l 1519 69 l 1519 0 l 1061 0 z "},"₿":{"ha":913,"x_min":0,"x_max":878,"o":"m 329 -97 l 329 0 l 0 0 l 0 14 l 1 14 q 81 42 50 14 q 113 117 113 71 l 113 925 q 80 1000 110 972 q 1 1028 50 1028 l 0 1028 l 0 1042 l 329 1042 l 329 1139 l 343 1139 l 343 1042 l 413 1042 q 444 1041 429 1042 q 475 1039 460 1040 l 475 1139 l 489 1139 l 489 1038 q 703 962 624 1022 q 782 808 782 901 q 713 669 782 728 q 533 597 644 611 q 713 556 636 592 q 834 461 790 521 q 878 322 878 401 q 829 163 878 232 q 693 52 781 93 q 489 1 606 11 l 489 -97 l 475 -97 l 475 1 q 465 0 469 0 q 454 0 460 0 l 343 0 l 343 -97 l 329 -97 m 326 607 l 413 607 q 527 663 483 607 q 571 814 571 719 q 527 967 571 910 q 413 1024 483 1024 l 326 1024 l 326 607 m 432 18 q 595 96 535 18 q 656 306 656 174 q 590 509 656 432 q 413 586 524 586 l 326 586 l 326 117 q 432 18 326 18 z "},"₵":{"ha":1031,"x_min":51,"x_max":1013,"o":"m 619 -143 l 619 -18 q 322 58 450 -11 q 122 246 193 126 q 51 522 51 365 q 122 797 51 679 q 319 983 192 914 q 619 1060 447 1051 l 619 1176 l 633 1176 l 633 1060 q 643 1061 639 1061 q 653 1061 647 1061 l 671 1061 q 747 1058 717 1061 q 804 1050 778 1054 q 865 1042 831 1046 q 950 1039 899 1039 l 992 761 l 978 761 q 917 906 963 843 q 805 1006 872 969 q 656 1043 738 1043 l 644 1043 q 633 1042 638 1043 l 633 4 q 643 3 639 3 q 653 3 647 3 l 671 3 q 891 83 804 3 q 999 306 978 163 l 1013 306 l 972 6 q 857 -1 907 6 q 760 -13 807 -7 q 656 -19 714 -19 l 633 -19 l 633 -143 l 619 -143 m 619 6 l 619 1040 q 445 958 519 1029 q 329 772 371 888 q 288 513 288 657 q 310 317 288 406 q 376 163 333 228 q 619 6 464 29 z "},"¢":{"ha":788,"x_min":67,"x_max":719,"o":"m 388 -144 l 388 -19 q 219 29 292 -19 q 107 161 147 78 q 67 349 67 244 q 108 544 67 463 q 222 673 150 626 q 388 725 294 719 l 388 850 l 401 850 l 401 725 q 594 665 513 725 q 692 490 675 606 l 525 397 q 492 614 525 533 q 401 703 460 694 l 401 118 q 476 104 433 104 q 603 140 540 104 q 706 235 665 175 l 719 231 q 598 51 683 118 q 401 -19 513 -17 l 401 -144 l 388 -144 m 388 125 l 388 704 q 310 667 343 704 q 260 568 278 629 q 243 433 243 507 q 282 240 243 321 q 388 125 321 158 z "},"₡":{"ha":1031,"x_min":51,"x_max":1013,"o":"m 407 -143 l 442 8 q 157 193 263 61 q 51 522 51 325 q 127 807 51 686 q 342 994 203 928 q 671 1061 481 1061 l 685 1061 l 711 1176 l 729 1176 l 703 1061 q 779 1055 743 1060 q 851 1044 815 1050 l 882 1176 l 900 1176 l 869 1042 q 906 1040 886 1040 q 950 1039 926 1039 l 992 761 l 978 761 q 933 882 965 828 q 853 974 900 936 l 631 6 q 650 3 640 4 q 671 3 660 3 q 891 83 804 3 q 999 306 978 163 l 1013 306 l 972 6 q 857 -1 907 6 q 760 -13 807 -7 q 656 -19 714 -19 l 625 -19 l 596 -143 l 578 -143 l 607 -18 q 458 4 529 -12 l 425 -143 l 407 -143 m 457 74 l 681 1042 q 668 1043 676 1043 l 656 1043 q 507 1004 575 1043 q 390 896 439 965 q 315 727 342 825 q 288 513 288 629 q 332 249 288 361 q 457 74 376 138 m 613 7 l 838 985 q 697 1040 772 1031 l 472 63 q 538 28 504 42 q 613 7 572 14 z "},"¤":{"ha":574,"x_min":50,"x_max":525,"o":"m 60 233 l 50 243 l 143 336 q 101 397 117 363 q 86 471 86 431 q 101 546 86 511 q 142 606 117 581 l 50 699 l 60 708 l 153 615 q 288 665 210 665 q 422 615 367 665 l 515 708 l 525 699 l 432 607 q 474 546 458 581 q 489 471 489 511 q 474 397 489 431 q 432 336 458 363 l 525 243 l 515 233 l 422 326 q 288 276 367 276 q 153 326 210 276 l 60 233 m 288 292 q 381 317 339 292 q 447 383 422 342 q 472 471 472 424 q 447 559 472 518 q 381 625 422 600 q 288 650 339 650 q 194 625 236 650 q 128 559 153 600 q 103 471 103 518 q 128 383 103 424 q 194 317 153 342 q 288 292 236 292 z "},"$":{"ha":683,"x_min":46,"x_max":671,"o":"m 367 -83 l 367 -17 q 357 -18 361 -18 q 349 -18 353 -18 q 339 -18 343 -18 q 329 -19 335 -18 q 273 -17 296 -19 q 228 -10 250 -14 q 174 -3 206 -6 q 92 0 143 0 l 46 375 l 61 375 q 148 94 85 182 q 329 6 211 6 q 348 6 339 6 q 367 8 357 7 l 367 415 q 292 478 333 444 l 238 521 q 135 615 174 571 q 79 708 97 660 q 61 817 61 757 q 100 945 61 890 q 208 1031 139 1000 q 367 1061 276 1061 l 367 1125 l 381 1125 l 381 1061 q 447 1056 418 1061 q 508 1047 475 1051 q 589 1042 542 1042 l 603 731 l 589 731 q 518 965 567 892 q 381 1040 469 1038 l 381 685 l 382 685 l 436 640 q 569 524 517 578 q 646 417 621 471 q 671 301 671 364 q 592 84 671 167 q 381 -15 513 1 l 381 -83 l 367 -83 m 367 696 l 367 1040 q 267 1004 304 1038 q 231 918 231 971 q 264 802 231 851 q 367 696 297 753 m 381 11 q 481 70 444 25 q 518 182 518 115 q 485 289 518 238 q 381 403 451 340 l 381 11 z "},"₫":{"ha":835,"x_min":49,"x_max":858,"o":"m 551 -53 l 550 131 q 450 12 517 58 q 307 -35 383 -35 q 175 12 233 -35 q 83 140 117 58 q 49 329 49 222 q 91 533 49 447 q 210 665 133 618 q 388 711 286 711 q 481 694 444 711 q 546 635 517 676 l 546 825 l 333 825 l 333 846 l 546 846 l 546 903 q 515 983 546 953 q 433 1014 483 1014 l 433 1028 l 575 1028 q 681 1042 644 1028 q 732 1081 717 1056 l 746 1081 l 746 846 l 832 846 l 832 825 l 746 825 l 746 131 q 772 40 746 68 q 858 13 797 13 l 858 0 l 717 0 q 558 -53 578 0 l 551 -53 m 383 21 q 448 41 415 21 q 507 94 481 61 q 546 165 533 128 l 546 504 q 505 638 539 588 q 417 688 471 688 q 304 596 344 688 q 265 325 265 504 q 383 21 265 21 m 140 -193 l 140 -160 l 746 -160 l 746 -193 l 140 -193 z "},"€":{"ha":957,"x_min":43,"x_max":915,"o":"m 658 -19 q 413 40 514 -19 q 254 206 311 99 q 186 454 197 313 l 43 454 l 46 472 l 185 472 q 183 484 183 478 q 183 496 183 490 l 183 543 q 183 554 183 549 q 185 565 183 560 l 43 565 l 46 583 l 185 583 q 251 833 196 726 q 406 1001 306 940 q 657 1061 507 1061 q 717 1056 693 1061 q 772 1047 742 1051 q 853 1042 801 1042 l 894 733 l 881 736 q 838 897 869 828 q 759 1004 806 965 q 657 1043 713 1043 q 566 1010 607 1043 q 494 918 525 978 q 445 773 464 858 q 421 583 426 688 l 786 583 l 783 565 l 421 565 q 419 552 419 558 q 419 539 419 546 l 419 472 l 758 472 l 756 454 l 421 454 q 444 268 425 351 q 493 126 463 185 q 563 35 522 67 q 654 3 604 3 q 769 41 718 3 q 856 148 821 79 q 901 306 890 217 l 915 308 l 875 0 q 795 -3 825 0 q 745 -10 765 -6 q 706 -17 725 -14 q 658 -19 688 -19 z "},"₲":{"ha":1146,"x_min":51,"x_max":1146,"o":"m 413 -143 l 447 6 q 157 190 263 56 q 51 524 51 325 q 125 806 51 685 q 331 994 199 926 q 642 1061 464 1061 l 668 1061 q 679 1061 674 1061 q 690 1060 685 1061 l 717 1176 l 735 1176 l 708 1060 q 784 1053 750 1058 q 855 1044 818 1049 q 942 1039 892 1039 l 983 761 l 969 761 q 878 949 949 876 q 703 1039 807 1021 l 475 47 q 625 3 540 3 q 734 22 682 3 q 814 71 786 42 l 814 425 q 783 506 814 475 q 703 536 753 536 l 699 536 l 699 550 l 1146 550 l 1146 536 l 1140 536 q 1060 506 1090 536 q 1029 425 1029 475 l 1029 71 q 941 23 1001 43 q 805 -8 881 3 q 654 -19 729 -19 q 464 1 551 -19 l 431 -143 l 413 -143 m 458 58 l 685 1040 q 663 1042 674 1042 q 642 1043 653 1043 q 497 1006 563 1043 q 386 901 432 968 q 315 738 340 833 q 289 525 289 642 q 334 241 289 361 q 458 58 379 121 z "},"₴":{"ha":763,"x_min":4,"x_max":707,"o":"m 396 -19 q 206 23 288 -17 q 78 133 124 63 q 32 296 32 203 q 45 383 32 342 q 89 467 58 425 l 4 467 l 4 486 l 104 486 q 176 559 133 522 q 278 640 219 596 l 4 640 l 4 660 l 304 660 l 338 685 q 460 799 425 750 q 496 903 496 849 q 458 1003 496 965 q 356 1040 419 1040 q 201 965 265 1040 q 118 761 138 890 l 104 761 l 118 1042 q 193 1044 164 1042 q 244 1051 222 1047 q 289 1058 265 1056 q 347 1061 313 1061 q 585 991 496 1061 q 674 799 674 921 q 632 660 674 725 l 707 660 l 707 640 l 618 640 q 564 583 596 613 q 489 521 532 553 l 443 486 l 707 486 l 707 467 l 417 467 q 247 315 301 379 q 193 181 193 250 q 247 54 193 103 q 388 6 301 6 q 578 98 504 6 q 674 361 653 190 l 690 361 l 642 0 q 554 -3 586 0 q 500 -10 522 -6 q 455 -17 478 -14 q 396 -19 432 -19 z "},"₭":{"ha":1018,"x_min":0,"x_max":1056,"o":"m 0 0 l 0 14 l 6 14 q 86 44 56 14 q 117 125 117 75 l 117 560 l 0 560 l 0 579 l 117 579 l 117 917 q 86 997 117 967 q 6 1028 56 1028 l 0 1028 l 0 1042 l 426 1042 l 426 1028 l 421 1028 q 340 997 371 1028 q 310 917 310 967 l 310 579 l 314 579 l 665 894 q 722 986 722 944 q 658 1028 722 1028 l 657 1028 l 657 1042 l 951 1042 l 951 1028 q 885 1015 924 1026 q 810 987 847 1004 q 746 946 772 969 l 450 676 l 531 579 l 944 579 l 944 560 l 547 560 l 944 83 q 999 33 969 53 q 1056 14 1028 14 l 1056 0 l 644 0 l 644 14 q 717 37 703 14 q 701 96 732 60 l 314 560 l 310 560 l 310 125 q 340 44 310 75 q 421 14 371 14 l 426 14 l 426 0 l 0 0 z "},"₾":{"ha":1178,"x_min":76,"x_max":1122,"o":"m 100 0 l 132 42 l 447 42 q 249 146 332 74 q 121 319 165 218 q 76 538 76 419 q 132 774 76 669 q 289 945 188 879 q 526 1028 390 1011 l 526 1104 l 540 1104 l 540 1029 q 610 1032 574 1032 q 679 1029 646 1032 l 679 1104 l 693 1104 l 693 1028 q 969 914 858 1007 q 1122 674 1081 821 l 917 579 q 887 758 911 678 q 822 896 863 839 q 693 1000 769 972 l 693 586 l 679 586 l 679 1006 q 610 1015 646 1015 q 540 1006 574 1015 l 540 586 l 526 586 l 526 1000 q 389 886 444 971 q 324 739 347 824 q 301 551 301 654 q 324 358 301 450 q 389 196 347 265 q 485 83 429 125 q 610 42 542 42 l 1078 42 l 1046 0 l 100 0 z "},"₤":{"ha":832,"x_min":54,"x_max":776,"o":"m 54 0 l 54 18 q 183 193 138 104 q 226 361 229 282 q 217 426 225 393 l 99 426 l 99 444 l 213 444 q 197 494 206 469 q 178 544 188 519 l 99 544 l 99 563 l 171 563 q 135 665 151 614 q 118 772 118 717 q 162 924 118 860 q 285 1025 206 989 q 467 1061 364 1061 q 545 1056 513 1061 q 611 1047 578 1051 q 689 1042 644 1042 l 733 731 l 719 731 q 687 844 711 789 q 626 944 663 900 q 546 1015 589 989 q 457 1040 503 1040 q 352 991 393 1040 q 311 865 311 942 q 327 758 311 804 q 360 666 343 711 q 381 563 378 621 l 579 563 l 579 544 l 381 544 q 375 483 381 514 q 367 444 372 464 l 579 444 l 579 426 l 363 426 q 299 290 340 353 q 203 185 258 226 l 500 185 q 645 189 594 185 q 717 206 696 193 q 747 243 739 218 q 763 310 754 268 l 776 310 l 733 0 l 54 0 z "},"₺":{"ha":778,"x_min":28,"x_max":771,"o":"m 28 0 l 28 14 l 29 14 q 111 41 82 14 q 140 117 140 68 l 140 438 l 28 372 l 28 390 l 140 456 l 140 579 l 28 514 l 28 532 l 140 597 l 140 917 q 110 997 140 967 q 29 1028 79 1028 l 28 1028 l 28 1042 l 471 1042 l 471 1028 l 465 1028 q 385 997 415 1028 q 354 917 354 967 l 354 719 l 561 838 l 561 819 l 354 701 l 354 578 l 561 696 l 561 678 l 354 560 l 354 21 q 592 74 506 21 q 686 225 679 128 q 674 301 690 274 q 637 348 657 328 q 608 394 617 368 q 609 453 599 429 q 644 485 619 478 q 696 457 674 492 q 726 356 718 422 q 390 0 771 0 l 28 0 z "},"₼":{"ha":1353,"x_min":118,"x_max":1235,"o":"m 674 -28 l 674 707 q 507 640 579 706 q 394 456 435 575 q 354 174 354 338 q 365 0 354 82 l 129 0 q 121 79 124 36 q 118 158 118 122 q 187 456 118 329 q 381 653 256 582 q 674 725 506 724 l 674 799 l 693 826 l 693 725 q 981 652 860 724 q 1169 453 1103 581 q 1235 154 1235 325 q 1232 82 1235 119 q 1224 0 1229 44 l 988 0 q 996 78 993 40 q 999 158 999 115 q 916 556 999 414 q 693 707 833 699 l 693 0 l 674 -28 z "},"₦":{"ha":1040,"x_min":-7,"x_max":1053,"o":"m 921 -19 l 514 499 l 150 499 l 150 160 q 186 57 150 100 q 282 14 222 14 l 282 0 l -7 0 l -7 14 q 90 57 54 14 q 126 161 126 100 l 126 499 l 7 499 l 7 518 l 126 518 l 126 769 l 7 769 l 7 789 l 126 789 l 126 974 q -6 1028 64 1021 l -6 1042 l 351 1042 l 547 789 l 897 789 l 897 882 q 861 985 897 942 q 765 1028 825 1028 l 765 1042 l 1053 1042 l 1053 1028 q 957 985 993 1028 q 921 882 921 942 l 921 789 l 1040 789 l 1040 769 l 921 769 l 921 518 l 1040 518 l 1040 499 l 921 499 l 921 -19 m 150 789 l 286 789 l 193 908 q 172 933 183 921 q 150 954 160 946 l 150 789 m 150 518 l 499 518 l 301 769 l 150 769 l 150 518 m 757 518 l 897 518 l 897 769 l 563 769 l 757 518 m 897 338 l 897 499 l 772 499 l 897 338 z "}}}
